<?xml version="1.0" encoding="utf-8"?>
<!-- Generator: Adobe Illustrator 17.0.0, SVG Export Plug-In . SVG Version: 6.00 Build 0)  -->
<!DOCTYPE svg PUBLIC "-//W3C//DTD SVG 1.1//EN" "http://www.w3.org/Graphics/SVG/1.1/DTD/svg11.dtd">
<svg version="1.1" id="Слой_1" xmlns="http://www.w3.org/2000/svg" xmlns:xlink="http://www.w3.org/1999/xlink" x="0px" y="0px"
	 width="841.89px" height="226.77px" viewBox="0 0 841.89 226.77" enable-background="new 0 0 841.89 226.77" xml:space="preserve">
<g>
	<g>
		<g>
			<g>
				<path fill="#FFFFFF" d="M503.875,132.983c-6.242,0-11.858-0.781-16.851-2.34c-4.993-1.559-9.762-4.3-14.309-8.225
					c-1.16-0.979-2.052-2.094-2.675-3.343c-0.625-1.248-0.936-2.495-0.936-3.745c0-2.05,0.735-3.855,2.206-5.416
					c1.471-1.559,3.32-2.34,5.55-2.34c1.692,0,3.21,0.535,4.547,1.605c3.387,2.764,6.753,4.86,10.097,6.285
					c3.343,1.428,7.466,2.14,12.37,2.14c3.297,0,6.329-0.512,9.094-1.537c2.762-1.024,4.991-2.408,6.686-4.146
					c1.693-1.738,2.541-3.721,2.541-5.951c0-2.674-0.802-4.948-2.407-6.82c-1.604-1.873-4.058-3.454-7.354-4.748
					c-3.3-1.292-7.489-2.294-12.57-3.009c-4.814-0.712-9.05-1.806-12.705-3.276c-3.656-1.471-6.709-3.343-9.16-5.617
					c-2.453-2.273-4.303-4.948-5.55-8.024c-1.249-3.076-1.872-6.53-1.872-10.364c0-5.794,1.492-10.742,4.479-14.844
					c2.986-4.1,7.021-7.221,12.103-9.361c5.082-2.14,10.698-3.209,16.851-3.209c5.794,0,11.166,0.869,16.114,2.607
					c4.947,1.739,8.98,3.945,12.103,6.62c2.584,2.052,3.878,4.413,3.878,7.088c0,1.962-0.759,3.744-2.273,5.349
					c-1.517,1.605-3.3,2.407-5.35,2.407c-1.337,0-2.54-0.401-3.61-1.204c-1.427-1.248-3.343-2.428-5.75-3.544
					c-2.407-1.114-4.948-2.05-7.623-2.808c-2.675-0.756-5.171-1.137-7.488-1.137c-3.835,0-7.067,0.491-9.695,1.471
					c-2.631,0.982-4.614,2.319-5.951,4.012c-1.338,1.694-2.006,3.657-2.006,5.884c0,2.675,0.779,4.881,2.34,6.62
					c1.559,1.739,3.812,3.122,6.754,4.146c2.941,1.026,6.463,1.939,10.564,2.742c5.349,0.982,10.051,2.14,14.108,3.477
					c4.056,1.337,7.422,3.055,10.097,5.148c2.674,2.096,4.681,4.727,6.018,7.89c1.337,3.166,2.006,7.021,2.006,11.567
					c0,5.796-1.604,10.789-4.814,14.978c-3.209,4.191-7.422,7.401-12.638,9.629C515.576,131.868,509.937,132.983,503.875,132.983z"
					/>
				<path fill="#FFFFFF" d="M553.085,61.438h31.693c2.14,0,3.922,0.715,5.35,2.14c1.425,1.427,2.14,3.209,2.14,5.349
					c0,2.052-0.715,3.768-2.14,5.149c-1.428,1.383-3.21,2.073-5.35,2.073h-31.693c-2.14,0-3.925-0.713-5.35-2.14
					c-1.427-1.425-2.14-3.209-2.14-5.349c0-2.05,0.713-3.766,2.14-5.149C549.16,62.13,550.945,61.438,553.085,61.438z
					 M567.394,44.722c2.317,0,4.213,0.782,5.684,2.34c1.471,1.561,2.207,3.5,2.207,5.817v59.51c0,1.25,0.244,2.274,0.735,3.076
					c0.488,0.803,1.157,1.384,2.006,1.739c0.846,0.356,1.759,0.534,2.741,0.534c1.07,0,2.05-0.2,2.942-0.602
					c0.89-0.401,1.916-0.602,3.075-0.602c1.248,0,2.385,0.581,3.41,1.738c1.024,1.16,1.538,2.765,1.538,4.814
					c0,2.497-1.36,4.547-4.079,6.151c-2.72,1.604-5.64,2.407-8.759,2.407c-1.872,0-3.945-0.154-6.219-0.468
					c-2.273-0.312-4.413-1.07-6.419-2.273c-2.006-1.204-3.678-3.053-5.015-5.55c-1.337-2.495-2.006-5.928-2.006-10.298V52.879
					c0-2.317,0.779-4.256,2.34-5.817C563.135,45.503,565.074,44.722,567.394,44.722z"/>
			</g>
			<g>
				<path fill="none" stroke="#201602" stroke-width="10" d="M503.875,132.983c-6.242,0-11.858-0.781-16.851-2.34
					c-4.993-1.559-9.762-4.3-14.309-8.225c-1.16-0.979-2.052-2.094-2.675-3.343c-0.625-1.248-0.936-2.495-0.936-3.745
					c0-2.05,0.735-3.855,2.206-5.416c1.471-1.559,3.32-2.34,5.55-2.34c1.692,0,3.21,0.535,4.547,1.605
					c3.387,2.764,6.753,4.86,10.097,6.285c3.343,1.428,7.466,2.14,12.37,2.14c3.297,0,6.329-0.512,9.094-1.537
					c2.762-1.024,4.991-2.408,6.686-4.146c1.693-1.738,2.541-3.721,2.541-5.951c0-2.674-0.802-4.948-2.407-6.82
					c-1.604-1.873-4.058-3.454-7.354-4.748c-3.3-1.292-7.489-2.294-12.57-3.009c-4.814-0.712-9.05-1.806-12.705-3.276
					c-3.656-1.471-6.709-3.343-9.16-5.617c-2.453-2.273-4.303-4.948-5.55-8.024c-1.249-3.076-1.872-6.53-1.872-10.364
					c0-5.794,1.492-10.742,4.479-14.844c2.986-4.1,7.021-7.221,12.103-9.361c5.082-2.14,10.698-3.209,16.851-3.209
					c5.794,0,11.166,0.869,16.114,2.607c4.947,1.739,8.98,3.945,12.103,6.62c2.584,2.052,3.878,4.413,3.878,7.088
					c0,1.962-0.759,3.744-2.273,5.349c-1.517,1.605-3.3,2.407-5.35,2.407c-1.337,0-2.54-0.401-3.61-1.204
					c-1.427-1.248-3.343-2.428-5.75-3.544c-2.407-1.114-4.948-2.05-7.623-2.808c-2.675-0.756-5.171-1.137-7.488-1.137
					c-3.835,0-7.067,0.491-9.695,1.471c-2.631,0.982-4.614,2.319-5.951,4.012c-1.338,1.694-2.006,3.657-2.006,5.884
					c0,2.675,0.779,4.881,2.34,6.62c1.559,1.739,3.812,3.122,6.754,4.146c2.941,1.026,6.463,1.939,10.564,2.742
					c5.349,0.982,10.051,2.14,14.108,3.477c4.056,1.337,7.422,3.055,10.097,5.148c2.674,2.096,4.681,4.727,6.018,7.89
					c1.337,3.166,2.006,7.021,2.006,11.567c0,5.796-1.604,10.789-4.814,14.978c-3.209,4.191-7.422,7.401-12.638,9.629
					C515.576,131.868,509.937,132.983,503.875,132.983z"/>
				<path fill="none" stroke="#201602" stroke-width="10" d="M553.085,61.438h31.693c2.14,0,3.922,0.715,5.35,2.14
					c1.425,1.427,2.14,3.209,2.14,5.349c0,2.052-0.715,3.768-2.14,5.149c-1.428,1.383-3.21,2.073-5.35,2.073h-31.693
					c-2.14,0-3.925-0.713-5.35-2.14c-1.427-1.425-2.14-3.209-2.14-5.349c0-2.05,0.713-3.766,2.14-5.149
					C549.16,62.13,550.945,61.438,553.085,61.438z M567.394,44.722c2.317,0,4.213,0.782,5.684,2.34
					c1.471,1.561,2.207,3.5,2.207,5.817v59.51c0,1.25,0.244,2.274,0.735,3.076c0.488,0.803,1.157,1.384,2.006,1.739
					c0.846,0.356,1.759,0.534,2.741,0.534c1.07,0,2.05-0.2,2.942-0.602c0.89-0.401,1.916-0.602,3.075-0.602
					c1.248,0,2.385,0.581,3.41,1.738c1.024,1.16,1.538,2.765,1.538,4.814c0,2.497-1.36,4.547-4.079,6.151
					c-2.72,1.604-5.64,2.407-8.759,2.407c-1.872,0-3.945-0.154-6.219-0.468c-2.273-0.312-4.413-1.07-6.419-2.273
					c-2.006-1.204-3.678-3.053-5.015-5.55c-1.337-2.495-2.006-5.928-2.006-10.298V52.879c0-2.317,0.779-4.256,2.34-5.817
					C563.135,45.503,565.074,44.722,567.394,44.722z"/>
			</g>
			<g>
				<path fill="#DFC098" d="M503.875,132.983c-6.242,0-11.858-0.781-16.851-2.34c-4.993-1.559-9.762-4.3-14.309-8.225
					c-1.16-0.979-2.052-2.094-2.675-3.343c-0.625-1.248-0.936-2.495-0.936-3.745c0-2.05,0.735-3.855,2.206-5.416
					c1.471-1.559,3.32-2.34,5.55-2.34c1.692,0,3.21,0.535,4.547,1.605c3.387,2.764,6.753,4.86,10.097,6.285
					c3.343,1.428,7.466,2.14,12.37,2.14c3.297,0,6.329-0.512,9.094-1.537c2.762-1.024,4.991-2.408,6.686-4.146
					c1.693-1.738,2.541-3.721,2.541-5.951c0-2.674-0.802-4.948-2.407-6.82c-1.604-1.873-4.058-3.454-7.354-4.748
					c-3.3-1.292-7.489-2.294-12.57-3.009c-4.814-0.712-9.05-1.806-12.705-3.276c-3.656-1.471-6.709-3.343-9.16-5.617
					c-2.453-2.273-4.303-4.948-5.55-8.024c-1.249-3.076-1.872-6.53-1.872-10.364c0-5.794,1.492-10.742,4.479-14.844
					c2.986-4.1,7.021-7.221,12.103-9.361c5.082-2.14,10.698-3.209,16.851-3.209c5.794,0,11.166,0.869,16.114,2.607
					c4.947,1.739,8.98,3.945,12.103,6.62c2.584,2.052,3.878,4.413,3.878,7.088c0,1.962-0.759,3.744-2.273,5.349
					c-1.517,1.605-3.3,2.407-5.35,2.407c-1.337,0-2.54-0.401-3.61-1.204c-1.427-1.248-3.343-2.428-5.75-3.544
					c-2.407-1.114-4.948-2.05-7.623-2.808c-2.675-0.756-5.171-1.137-7.488-1.137c-3.835,0-7.067,0.491-9.695,1.471
					c-2.631,0.982-4.614,2.319-5.951,4.012c-1.338,1.694-2.006,3.657-2.006,5.884c0,2.675,0.779,4.881,2.34,6.62
					c1.559,1.739,3.812,3.122,6.754,4.146c2.941,1.026,6.463,1.939,10.564,2.742c5.349,0.982,10.051,2.14,14.108,3.477
					c4.056,1.337,7.422,3.055,10.097,5.148c2.674,2.096,4.681,4.727,6.018,7.89c1.337,3.166,2.006,7.021,2.006,11.567
					c0,5.796-1.604,10.789-4.814,14.978c-3.209,4.191-7.422,7.401-12.638,9.629C515.576,131.868,509.937,132.983,503.875,132.983z"
					/>
				<path fill="#DFC098" d="M553.085,61.438h31.693c2.14,0,3.922,0.715,5.35,2.14c1.425,1.427,2.14,3.209,2.14,5.349
					c0,2.052-0.715,3.768-2.14,5.149c-1.428,1.383-3.21,2.073-5.35,2.073h-31.693c-2.14,0-3.925-0.713-5.35-2.14
					c-1.427-1.425-2.14-3.209-2.14-5.349c0-2.05,0.713-3.766,2.14-5.149C549.16,62.13,550.945,61.438,553.085,61.438z
					 M567.394,44.722c2.317,0,4.213,0.782,5.684,2.34c1.471,1.561,2.207,3.5,2.207,5.817v59.51c0,1.25,0.244,2.274,0.735,3.076
					c0.488,0.803,1.157,1.384,2.006,1.739c0.846,0.356,1.759,0.534,2.741,0.534c1.07,0,2.05-0.2,2.942-0.602
					c0.89-0.401,1.916-0.602,3.075-0.602c1.248,0,2.385,0.581,3.41,1.738c1.024,1.16,1.538,2.765,1.538,4.814
					c0,2.497-1.36,4.547-4.079,6.151c-2.72,1.604-5.64,2.407-8.759,2.407c-1.872,0-3.945-0.154-6.219-0.468
					c-2.273-0.312-4.413-1.07-6.419-2.273c-2.006-1.204-3.678-3.053-5.015-5.55c-1.337-2.495-2.006-5.928-2.006-10.298V52.879
					c0-2.317,0.779-4.256,2.34-5.817C563.135,45.503,565.074,44.722,567.394,44.722z"/>
			</g>
		</g>
		<g>
			<path fill="#FFFFFF" d="M708.602,202.554c0.856,1.406,2.696,1.854,4.102,0.998c1.406-0.856,1.854-2.696,0.998-4.102
				l-42.91-70.499c-0.814,0.567-1.646,1.114-2.5,1.634c-0.855,0.52-1.722,1.008-2.6,1.47L708.602,202.554z"/>
			<path fill="#DC453F" d="M602.802,80.49c-2.67,10.974-0.906,22.33,4.966,31.977c5.872,9.648,15.149,16.431,26.123,19.1
				c8.455,2.057,17.135,1.479,25.087-1.578l-8.663-14.234c-0.669-1.1-0.32-2.534,0.779-3.203l-2.424-3.982
				c-1.1,0.669-2.533,0.32-3.203-0.779l-1.616-2.655c-2.192-3.602-1.045-8.316,2.557-10.509c3.602-2.192,8.316-1.045,10.508,2.556
				l15.127,24.853c6.368-5.659,10.869-13.104,12.926-21.559c2.67-10.974,0.906-22.331-4.966-31.978
				c-5.872-9.648-15.149-16.431-26.123-19.1c-10.974-2.67-22.33-0.906-31.978,4.966C612.255,60.239,605.472,69.517,602.802,80.49z
				 M649.481,53.301c11.068,1.673,20.741,8.097,26.54,17.624c0.669,1.1,0.321,2.534-0.779,3.203
				c-0.55,0.335-1.183,0.415-1.763,0.274c-0.579-0.141-1.106-0.503-1.44-1.053c-5.079-8.345-13.555-13.972-23.255-15.439
				c-1.271-0.195-2.149-1.38-1.956-2.654C647.02,53.984,648.208,53.109,649.481,53.301z M624.327,58.35
				c4.68-2.848,9.8-4.608,15.217-5.229c1.279-0.147,2.435,0.771,2.582,2.05c0.147,1.279-0.771,2.435-2.05,2.582
				c-4.742,0.544-9.226,2.085-13.325,4.58c-0.55,0.335-1.183,0.415-1.763,0.274c-0.58-0.141-1.106-0.503-1.44-1.053
				C622.878,60.453,623.227,59.019,624.327,58.35z"/>
			<path fill="#EBB3B0" d="M651.095,112.554c1.1-0.669,2.534-0.32,3.203,0.779l8.967,14.732c0.88-0.456,1.75-0.942,2.604-1.462
				c0.855-0.52,1.686-1.069,2.495-1.642l-15.43-25.352c-0.855-1.406-2.696-1.854-4.102-0.998c-1.406,0.856-1.854,2.696-0.998,4.102
				l1.616,2.655c0.669,1.1,0.32,2.534-0.779,3.203L651.095,112.554z"/>
			<path fill="#FFFFFF" d="M624.327,58.35c-1.1,0.669-1.449,2.103-0.779,3.203c0.335,0.55,0.861,0.912,1.44,1.053
				s1.213,0.061,1.763-0.274c4.1-2.495,8.583-4.036,13.325-4.58c1.279-0.147,2.197-1.303,2.05-2.582
				c-0.147-1.279-1.303-2.197-2.582-2.05C634.127,53.742,629.007,55.502,624.327,58.35z"/>
			<path fill="#FFFFFF" d="M646.827,55.257c-0.193,1.273,0.685,2.459,1.956,2.654c9.7,1.467,18.176,7.094,23.255,15.439
				c0.335,0.55,0.861,0.912,1.44,1.053c0.58,0.141,1.213,0.061,1.763-0.274c1.1-0.669,1.449-2.103,0.779-3.203
				c-5.799-9.527-15.472-15.951-26.54-17.624C648.208,53.109,647.02,53.984,646.827,55.257z"/>
			<path fill="#3D2A20" d="M598.273,79.389c-2.964,12.184-1.006,24.792,5.513,35.504c6.519,10.711,16.819,18.242,29.003,21.206
				c9.669,2.352,19.605,1.601,28.649-2.066l43.181,70.946c1.096,1.801,2.823,2.988,4.726,3.451c1.903,0.463,3.982,0.202,5.783-0.894
				c3.602-2.193,4.749-6.907,2.557-10.509l-43.181-70.946c7.412-6.348,12.643-14.829,14.996-24.498
				c2.964-12.184,1.006-24.793-5.513-35.504c-6.519-10.711-16.82-18.242-29.003-21.206s-24.792-1.006-35.504,5.513
				S601.237,67.205,598.273,79.389z M607.769,112.468c-5.873-9.647-7.636-21.004-4.966-31.977
				c2.67-10.974,9.453-20.251,19.101-26.123c9.647-5.872,21.004-7.636,31.977-4.966c10.974,2.67,20.251,9.453,26.123,19.1
				c5.872,9.647,7.636,21.004,4.966,31.978c-2.057,8.454-6.557,15.899-12.926,21.559l-15.127-24.853
				c-2.193-3.602-6.906-4.748-10.508-2.556c-3.602,2.193-4.749,6.907-2.557,10.509l1.616,2.655c0.669,1.099,2.103,1.448,3.203,0.779
				c1.1-0.669,1.448-2.103,0.779-3.203l-1.616-2.655c-0.856-1.406-0.408-3.246,0.998-4.102c1.406-0.856,3.246-0.408,4.102,0.998
				l15.43,25.352c-0.809,0.573-1.641,1.121-2.495,1.642c-0.855,0.52-1.724,1.007-2.604,1.462l-8.967-14.732
				c-0.669-1.099-2.103-1.448-3.203-0.779c-1.1,0.669-1.449,2.103-0.779,3.203l8.663,14.234c-7.952,3.057-16.633,3.635-25.087,1.578
				C622.918,128.898,613.64,122.115,607.769,112.468z M708.602,202.554l-42.909-70.499c0.877-0.462,1.745-0.95,2.6-1.47
				c0.855-0.52,1.687-1.067,2.5-1.634l42.909,70.499c0.856,1.406,0.408,3.246-0.998,4.102
				C711.298,204.408,709.458,203.96,708.602,202.554z"/>
		</g>
		<g>
			<g>
				<path fill="#FFFFFF" d="M716.046,131.114c-2.319,0-4.235-0.779-5.75-2.34c-1.517-1.56-2.273-3.498-2.273-5.817V67.726
					c0-2.317,0.757-4.256,2.273-5.817c1.515-1.559,3.431-2.34,5.75-2.34c2.317,0,4.233,0.782,5.751,2.34
					c1.515,1.561,2.273,3.5,2.273,5.817v12.57l-0.937-8.959c0.98-2.14,2.251-4.033,3.812-5.684c1.559-1.649,3.32-3.03,5.282-4.146
					c1.96-1.114,4.056-1.939,6.285-2.474c2.228-0.535,4.457-0.802,6.687-0.802c2.675,0,4.925,0.758,6.753,2.273
					c1.827,1.517,2.742,3.299,2.742,5.349c0,2.942-0.759,5.061-2.273,6.352c-1.518,1.293-3.166,1.939-4.948,1.939
					c-1.694,0-3.232-0.312-4.613-0.936c-1.384-0.623-2.966-0.936-4.748-0.936c-1.604,0-3.232,0.38-4.881,1.137
					c-1.65,0.758-3.166,1.939-4.547,3.543c-1.383,1.605-2.497,3.59-3.343,5.951c-0.849,2.363-1.271,5.148-1.271,8.358v31.695
					c0,2.319-0.759,4.258-2.273,5.817C720.279,130.335,718.363,131.114,716.046,131.114z"/>
				<path fill="#FFFFFF" d="M796.819,132.451c-7.579,0-14.154-1.581-19.726-4.747c-5.572-3.163-9.852-7.466-12.838-12.905
					c-2.988-5.437-4.479-11.588-4.479-18.455c0-8.024,1.625-14.865,4.881-20.527c3.253-5.661,7.51-10.007,12.771-13.039
					c5.26-3.03,10.833-4.546,16.717-4.546c4.547,0,8.847,0.936,12.904,2.808c4.057,1.872,7.644,4.436,10.766,7.689
					c3.12,3.255,5.594,7.021,7.422,11.3c1.826,4.279,2.741,8.826,2.741,13.64c-0.09,2.14-0.936,3.878-2.54,5.215
					c-1.605,1.337-3.478,2.006-5.617,2.006h-51.085l-4.012-13.373h49.079l-2.942,2.674v-3.61c-0.18-2.585-1.093-4.902-2.741-6.954
					c-1.65-2.05-3.7-3.678-6.151-4.881c-2.453-1.204-5.061-1.806-7.823-1.806c-2.675,0-5.172,0.357-7.489,1.07
					c-2.319,0.715-4.325,1.918-6.018,3.611c-1.694,1.694-3.032,3.968-4.012,6.82c-0.982,2.854-1.471,6.465-1.471,10.832
					c0,4.814,1.003,8.893,3.009,12.236s4.591,5.884,7.756,7.623c3.164,1.738,6.53,2.607,10.097,2.607
					c3.297,0,5.928-0.268,7.89-0.803c1.96-0.534,3.544-1.18,4.748-1.938c1.203-0.757,2.294-1.405,3.276-1.94
					c1.604-0.802,3.119-1.203,4.547-1.203c1.96,0,3.587,0.668,4.881,2.006c1.291,1.337,1.939,2.899,1.939,4.681
					c0,2.407-1.25,4.593-3.745,6.553c-2.319,1.962-5.572,3.678-9.762,5.148C805.6,131.716,801.276,132.451,796.819,132.451z"/>
			</g>
			<g>
				<path fill="none" stroke="#201602" stroke-width="10" d="M716.046,131.114c-2.319,0-4.235-0.779-5.75-2.34
					c-1.517-1.56-2.273-3.498-2.273-5.817V67.726c0-2.317,0.757-4.256,2.273-5.817c1.515-1.559,3.431-2.34,5.75-2.34
					c2.317,0,4.233,0.782,5.751,2.34c1.515,1.561,2.273,3.5,2.273,5.817v12.57l-0.937-8.959c0.98-2.14,2.251-4.033,3.812-5.684
					c1.559-1.649,3.32-3.03,5.282-4.146c1.96-1.114,4.056-1.939,6.285-2.474c2.228-0.535,4.457-0.802,6.687-0.802
					c2.675,0,4.925,0.758,6.753,2.273c1.827,1.517,2.742,3.299,2.742,5.349c0,2.942-0.759,5.061-2.273,6.352
					c-1.518,1.293-3.166,1.939-4.948,1.939c-1.694,0-3.232-0.312-4.613-0.936c-1.384-0.623-2.966-0.936-4.748-0.936
					c-1.604,0-3.232,0.38-4.881,1.137c-1.65,0.758-3.166,1.939-4.547,3.543c-1.383,1.605-2.497,3.59-3.343,5.951
					c-0.849,2.363-1.271,5.148-1.271,8.358v31.695c0,2.319-0.759,4.258-2.273,5.817
					C720.279,130.335,718.363,131.114,716.046,131.114z"/>
				<path fill="none" stroke="#201602" stroke-width="10" d="M796.819,132.451c-7.579,0-14.154-1.581-19.726-4.747
					c-5.572-3.163-9.852-7.466-12.838-12.905c-2.988-5.437-4.479-11.588-4.479-18.455c0-8.024,1.625-14.865,4.881-20.527
					c3.253-5.661,7.51-10.007,12.771-13.039c5.26-3.03,10.833-4.546,16.717-4.546c4.547,0,8.847,0.936,12.904,2.808
					c4.057,1.872,7.644,4.436,10.766,7.689c3.12,3.255,5.594,7.021,7.422,11.3c1.826,4.279,2.741,8.826,2.741,13.64
					c-0.09,2.14-0.936,3.878-2.54,5.215c-1.605,1.337-3.478,2.006-5.617,2.006h-51.085l-4.012-13.373h49.079l-2.942,2.674v-3.61
					c-0.18-2.585-1.093-4.902-2.741-6.954c-1.65-2.05-3.7-3.678-6.151-4.881c-2.453-1.204-5.061-1.806-7.823-1.806
					c-2.675,0-5.172,0.357-7.489,1.07c-2.319,0.715-4.325,1.918-6.018,3.611c-1.694,1.694-3.032,3.968-4.012,6.82
					c-0.982,2.854-1.471,6.465-1.471,10.832c0,4.814,1.003,8.893,3.009,12.236s4.591,5.884,7.756,7.623
					c3.164,1.738,6.53,2.607,10.097,2.607c3.297,0,5.928-0.268,7.89-0.803c1.96-0.534,3.544-1.18,4.748-1.938
					c1.203-0.757,2.294-1.405,3.276-1.94c1.604-0.802,3.119-1.203,4.547-1.203c1.96,0,3.587,0.668,4.881,2.006
					c1.291,1.337,1.939,2.899,1.939,4.681c0,2.407-1.25,4.593-3.745,6.553c-2.319,1.962-5.572,3.678-9.762,5.148
					C805.6,131.716,801.276,132.451,796.819,132.451z"/>
			</g>
			<g>
				<path fill="#DFC098" d="M716.046,131.114c-2.319,0-4.235-0.779-5.75-2.34c-1.517-1.56-2.273-3.498-2.273-5.817V67.726
					c0-2.317,0.757-4.256,2.273-5.817c1.515-1.559,3.431-2.34,5.75-2.34c2.317,0,4.233,0.782,5.751,2.34
					c1.515,1.561,2.273,3.5,2.273,5.817v12.57l-0.937-8.959c0.98-2.14,2.251-4.033,3.812-5.684c1.559-1.649,3.32-3.03,5.282-4.146
					c1.96-1.114,4.056-1.939,6.285-2.474c2.228-0.535,4.457-0.802,6.687-0.802c2.675,0,4.925,0.758,6.753,2.273
					c1.827,1.517,2.742,3.299,2.742,5.349c0,2.942-0.759,5.061-2.273,6.352c-1.518,1.293-3.166,1.939-4.948,1.939
					c-1.694,0-3.232-0.312-4.613-0.936c-1.384-0.623-2.966-0.936-4.748-0.936c-1.604,0-3.232,0.38-4.881,1.137
					c-1.65,0.758-3.166,1.939-4.547,3.543c-1.383,1.605-2.497,3.59-3.343,5.951c-0.849,2.363-1.271,5.148-1.271,8.358v31.695
					c0,2.319-0.759,4.258-2.273,5.817C720.279,130.335,718.363,131.114,716.046,131.114z"/>
				<path fill="#DFC098" d="M796.819,132.451c-7.579,0-14.154-1.581-19.726-4.747c-5.572-3.163-9.852-7.466-12.838-12.905
					c-2.988-5.437-4.479-11.588-4.479-18.455c0-8.024,1.625-14.865,4.881-20.527c3.253-5.661,7.51-10.007,12.771-13.039
					c5.26-3.03,10.833-4.546,16.717-4.546c4.547,0,8.847,0.936,12.904,2.808c4.057,1.872,7.644,4.436,10.766,7.689
					c3.12,3.255,5.594,7.021,7.422,11.3c1.826,4.279,2.741,8.826,2.741,13.64c-0.09,2.14-0.936,3.878-2.54,5.215
					c-1.605,1.337-3.478,2.006-5.617,2.006h-51.085l-4.012-13.373h49.079l-2.942,2.674v-3.61c-0.18-2.585-1.093-4.902-2.741-6.954
					c-1.65-2.05-3.7-3.678-6.151-4.881c-2.453-1.204-5.061-1.806-7.823-1.806c-2.675,0-5.172,0.357-7.489,1.07
					c-2.319,0.715-4.325,1.918-6.018,3.611c-1.694,1.694-3.032,3.968-4.012,6.82c-0.982,2.854-1.471,6.465-1.471,10.832
					c0,4.814,1.003,8.893,3.009,12.236s4.591,5.884,7.756,7.623c3.164,1.738,6.53,2.607,10.097,2.607
					c3.297,0,5.928-0.268,7.89-0.803c1.96-0.534,3.544-1.18,4.748-1.938c1.203-0.757,2.294-1.405,3.276-1.94
					c1.604-0.802,3.119-1.203,4.547-1.203c1.96,0,3.587,0.668,4.881,2.006c1.291,1.337,1.939,2.899,1.939,4.681
					c0,2.407-1.25,4.593-3.745,6.553c-2.319,1.962-5.572,3.678-9.762,5.148C805.6,131.716,801.276,132.451,796.819,132.451z"/>
			</g>
		</g>
	</g>
	<g>
		<g>
			<path fill="#C7171E" d="M352.452,205.044c0.555,0.464,1.11,0.927,1.665,1.391c0.135-0.088,0.269-0.177,0.404-0.265
				c-0.508-0.504-1.016-1.009-1.523-1.513C352.816,204.786,352.634,204.915,352.452,205.044"/>
			<path fill="#B54C59" d="M347.79,186.518l0.787-0.453c0,0-0.093-1.228-0.826-1.497
				C347.751,184.568,347.593,185.299,347.79,186.518"/>
			<path fill="#B99FB0" d="M368.084,64.301c0.248-2.082,0.588-4.158,0.72-6.246c0.172-2.692,0.473-5.404,0.194-8.088
				c-0.616-5.925-9.063-9.134-15.555-5.973c-1.184,0.576-1.996,1.576-2.98,2.381c4.572,0.308,7.898,1.958,9.174,5.381
				c0.877,2.354,1.31,4.792,1.941,7.193c0.351,0.278,0.702,0.556,1.053,0.834c0.709,0.594,1.418,1.188,2.127,1.782
				C365.867,62.476,366.976,63.388,368.084,64.301"/>
			<path fill="#911720" d="M368.084,64.301c-1.109-0.912-2.217-1.825-3.325-2.737c-0.709-0.594-1.418-1.188-2.127-1.782
				c-0.351-0.278-0.702-0.556-1.053-0.834c-0.886-0.659-1.773-1.318-2.659-1.977c-0.101,0.057-0.213,0.071-0.336,0.043
				c-0.08,0.079-0.177,0.142-0.292,0.191c0.109,0.129,0.218,0.257,0.328,0.386c0.588,0.503,1.175,1.006,1.763,1.508
				c0.239,0.202,0.478,0.405,0.717,0.608c0.113,0.286,0.226,0.571,0.34,0.856c0.23,1.984,0.459,3.967,0.689,5.951
				c0.183,2.102,0.455,4.204,0.524,6.306c0.075,2.281-0.228,4.568,0.009,6.838c0.113,1.082-0.219,1.745-1.221,2.339
				c1.424,1.366,2.836,2.741,4.301,4.082c0.107,0.098,0.608-0.044,0.926-0.074C367.138,78.77,367.611,71.535,368.084,64.301"/>
			<path fill="#AF121E" d="M361.098,59.707c-0.239-0.203-0.478-0.405-0.717-0.608c-1.685,0.57-1.776-0.647-2.681-1.18
				c0.475-0.17,0.696-0.249,0.918-0.329c-0.109-0.129-0.218-0.257-0.328-0.386c-0.488-0.375-0.977-0.75-1.465-1.125
				c-0.317,0.048-0.833,0.213-0.922,0.128c-1.241-1.185-3.665-1.808-3.319-3.76l0.075-0.025c-0.268-0.192-0.536-0.385-0.805-0.577
				c-0.24,0.162-0.479,0.323-0.719,0.485c0.051,0.564,0.102,1.128,0.147,1.616c-0.754-0.215-1.543-0.439-2.331-0.663
				c-0.343,3.948-0.686,7.897-1.028,11.845c-0.123,2.225-0.245,4.45-0.368,6.674c0.543,0.532,1.085,1.063,1.628,1.595
				c0.165,0.081,0.331,0.161,0.496,0.242c0.099-0.645,0.237-1.288,0.291-1.936c0.315-3.748,0.61-7.496,0.911-11.245
				c0.03-0.552,0.06-1.105,0.089-1.657c-0.08-0.982-0.16-1.964-0.24-2.947c0.261-0.011,0.522-0.021,0.784-0.032
				c0.075,0.853,0.151,1.707,0.226,2.56c0.056,0.096,0.112,0.192,0.166,0.289c1.829-0.037,3.658-0.074,4.848-0.099
				c2.023,2.99,3.697,5.465,5.372,7.94c-0.229-1.983-0.459-3.967-0.689-5.951C360.22,60.503,360.673,60.102,361.098,59.707"/>
			<path fill="#F3F0EE" d="M358.919,56.97c0.886,0.659,1.773,1.318,2.659,1.977c-0.631-2.401-1.064-4.839-1.941-7.193
				c-1.275-3.423-4.601-5.073-9.174-5.381c-0.432,0.634-0.863,1.267-1.295,1.901v-0.001c0.083,0.334,0.166,0.667,0.249,1.001
				c1.178,0.982,2.355,1.965,3.532,2.947c1.344,1.08,2.688,2.161,4.031,3.241C357.628,55.965,358.274,56.468,358.919,56.97"/>
			<path fill="#6E242B" d="M366.665,86.005c-0.318,0.03-0.819,0.173-0.926,0.074c-1.465-1.341-2.876-2.715-4.301-4.082
				c-0.942-0.432-1.883-0.864-2.825-1.296c2.555,2.191,5.109,4.382,7.664,6.574l0.161,0.049l0.006,0.13
				C366.517,86.971,366.591,86.488,366.665,86.005"/>
			<path fill="#B11620" d="M348.952,53.284c0.788,0.224,1.577,0.449,2.331,0.663c-0.044-0.488-0.095-1.052-0.147-1.616
				c-0.643-0.131-1.286-0.261-1.928-0.392C349.122,52.387,349.037,52.836,348.952,53.284"/>
			<path fill="#B90E19" d="M349.208,51.939c0.643,0.131,1.286,0.261,1.928,0.392c0.24-0.162,0.479-0.323,0.719-0.485
				c-0.875-0.527-1.749-1.054-2.624-1.581c-0.034,0.342-0.069,0.683-0.103,1.025c0.033,0.221,0.066,0.442,0.099,0.663
				L349.208,51.939z"/>
			<path fill="#8A2A36" d="M349.231,50.265c0.875,0.527,1.75,1.054,2.624,1.581c0.268,0.192,0.536,0.384,0.804,0.577
				c0.095-0.069,0.192-0.136,0.291-0.202c-1.178-0.982-2.355-1.965-3.533-2.947C349.356,49.604,349.293,49.934,349.231,50.265"/>
			<path fill="#DDADAF" d="M347.555,71.804c-0.12,0.078-0.238,0.159-0.355,0.241c0.181,0.224,0.362,0.449,0.542,0.673
				c0.48,0.227,0.96,0.454,1.44,0.681C348.64,72.867,348.098,72.335,347.555,71.804"/>
			<path fill="#B11620" d="M349.226,51.952c-0.033-0.221-0.066-0.442-0.099-0.663C349.161,51.51,349.193,51.731,349.226,51.952"/>
			<path fill="#BDA3B5" d="M362.632,59.782c0.709,0.594,1.418,1.188,2.127,1.782C364.05,60.97,363.341,60.376,362.632,59.782"/>
			<path fill="#B11620" d="M358.613,80.701c0.942,0.432,1.884,0.864,2.825,1.296c1.003-0.595,1.334-1.257,1.221-2.339
				c-0.236-2.271,0.066-4.557-0.009-6.838c-0.069-2.101-0.341-4.204-0.523-6.306c-1.675-2.475-3.349-4.95-5.372-7.94
				c-1.19,0.024-3.019,0.062-4.848,0.099c-0.024,0.608-0.049,1.217-0.073,1.825c0.112,5.085,0.225,10.17,0.338,15.255
				c0.318,0.315,0.636,0.629,0.955,0.944c0.849,0.68,1.697,1.36,2.546,2.04C356.653,79.391,357.633,80.046,358.613,80.701"/>
			<path fill="#6E242B" d="M352.951,52.221c-0.099,0.065-0.196,0.133-0.291,0.202l-0.075,0.025c1.413,1.211,2.827,2.421,4.24,3.632
				c0.488,0.375,0.977,0.75,1.466,1.125c0.115-0.048,0.213-0.112,0.292-0.191c-0.534-0.517-1.067-1.034-1.601-1.551
				C355.638,54.382,354.295,53.301,352.951,52.221"/>
			<path fill="#B90E19" d="M358.618,57.59c-0.222,0.079-0.443,0.159-0.918,0.329c0.905,0.532,0.996,1.75,2.681,1.18
				C359.794,58.596,359.206,58.093,358.618,57.59"/>
			<path fill="#B99FB0" d="M356.982,55.462c0.534,0.517,1.067,1.034,1.601,1.551c0.124,0.028,0.235,0.014,0.336-0.043
				C358.273,56.468,357.628,55.965,356.982,55.462"/>
			<path fill="#B11620" d="M361.098,59.707c-0.425,0.395-0.879,0.797,0.34,0.857C361.325,60.278,361.212,59.992,361.098,59.707"/>
			<path fill="#E0959A" d="M355.673,78.736c2.321,2.021,4.641,4.042,6.962,6.063c1.214,0.825,2.428,1.651,3.641,2.476
				c-2.555-2.191-5.109-4.382-7.664-6.574C357.633,80.046,356.653,79.391,355.673,78.736"/>
			<path fill="#DDADAF" d="M352.172,75.753c-0.113-5.085-0.225-10.17-0.338-15.255c-0.318-0.013-0.635-0.026-0.953-0.038
				c-0.302,3.748-0.597,7.497-0.911,11.245c-0.054,0.648-0.192,1.291-0.291,1.936c0.335,0.311,0.67,0.621,1.005,0.932
				C351.18,74.966,351.676,75.359,352.172,75.753"/>
			<path fill="#B90E19" d="M356.825,56.079c-1.413-1.211-2.827-2.421-4.24-3.632c-0.346,1.953,2.077,2.575,3.318,3.76
				C355.992,56.293,356.508,56.128,356.825,56.079"/>
			<path fill="#E0959A" d="M351.741,58.384c-0.076-0.853-0.151-1.707-0.226-2.56c-0.261,0.011-0.522,0.021-0.784,0.032
				c0.08,0.982,0.16,1.964,0.24,2.947C351.228,58.663,351.485,58.524,351.741,58.384"/>
			<path fill="#E1B2B2" d="M351.741,58.384c-0.257,0.139-0.514,0.279-0.77,0.418c-0.03,0.552-0.06,1.105-0.089,1.657
				c0.317,0.013,0.635,0.025,0.952,0.038c0.024-0.608,0.049-1.217,0.073-1.825C351.853,58.576,351.798,58.48,351.741,58.384"/>
			<path fill="#BAA1B2" d="M364.845,110.275c0.169-0.499,0.454-0.99,0.491-1.498c0.482-6.66,0.936-13.323,1.371-19.986
				c0.029-0.438-0.157-0.89-0.243-1.335l-0.006-0.13l-0.161-0.05c-1.214-0.825-2.428-1.651-3.641-2.476
				c-0.071,0.655-0.184,1.308-0.208,1.965c-0.253,6.99-0.492,13.98-0.735,20.97C362.756,108.582,363.801,109.428,364.845,110.275"/>
			<path fill="#F4F0ED" d="M349.699,73.642c-0.166-0.081-0.331-0.161-0.496-0.242c-0.48-0.227-0.96-0.454-1.44-0.681
				c-0.173,0.425-0.461,0.843-0.499,1.278c-0.218,2.524-0.417,5.051-0.543,7.58c-0.113,2.278,0.252,4.621-0.278,6.827
				c-0.626,2.604-0.779,4.932-1.09,7.768c-0.173,1.572-0.748,3.936,0.196,3.594c0.146-0.806,0.12,1.621,0.267,0.815
				c0.009-0.508,0.624,0.543,0.638-0.29c0.611,0.524,0.196-0.28,0.522,0c0.24,0.206,0.863-0.38,1.103-0.174l0.755-0.348l0.813-0.522
				c0.163,0.091-0.963-1.619-0.801-1.528c-0.131-1.115-0.428-2.239-0.364-3.343c0.347-5.95,0.756-11.898,1.23-17.84
				c0.054-0.672,0.649-1.308,0.994-1.961C350.369,74.264,350.034,73.953,349.699,73.642"/>
			<path fill="#F4F0ED" d="M355.693,78.738c-0.849-0.68-1.697-1.36-2.546-2.04c-0.349,0.858-0.932,1.7-1.001,2.577
				c-0.165,2.1-0.089,4.216-0.11,6.325c-0.02,2.043,0.05,4.092-0.084,6.128c-0.114,1.728-0.464,3.442-0.753,5.466
				c0.017,0.496-2.627,3.008-2.599,3.851c0.236,0.263,1.796,0.666,2.031,0.929c2.261,1.83,5.868,1.851,8.128,3.681
				c0.63,0.503,1.26,1.007,1.89,1.511c0.354,0.19,0.708,0.38,1.062,0.57c0.243-6.99,0.482-13.98,0.735-20.97
				c0.024-0.657,0.136-1.31,0.208-1.965C360.334,82.78,358.014,80.759,355.693,78.738"/>
			<path fill="#FAF9F7" d="M346.975,100.408c0.469,0.408,1.098,0.056,1.567,0.464c0.338,0.139,0.649-0.951,0.987-0.813l1.219-1.045
				c-0.028-0.843,0.468-1.323,0.451-1.819c0.289-2.025,0.638-3.738,0.753-5.466c0.134-2.036,0.064-4.085,0.084-6.128
				c0.02-2.11-0.055-4.225,0.11-6.325c0.069-0.877,0.652-1.719,1.001-2.577c-0.318-0.315-0.636-0.629-0.955-0.944
				c-0.496-0.394-0.992-0.787-1.488-1.181c-0.344,0.653-0.94,1.288-0.994,1.961c-0.474,5.943-0.883,11.89-1.23,17.84
				c-0.064,1.104,0.233,2.228,0.364,3.343"/>
			<path fill="#F5F1EF" d="M401.585,129.744c-1.136,0.409-2.271,0.818-3.407,1.226c-1.547,0.596-3.094,1.193-4.903,1.89
				c-0.888-5.676-1.716-10.968-2.498-15.959c0.165-0.181,0.327-0.358,0.487-0.533c-0.476,0.335-0.975,0.644-1.504,0.92
				c-0.461,0.166-0.922,0.333-1.383,0.5c-0.469,0.399-0.951,0.78-1.543,1c-4.439,1.652-9.053,1.568-13.714,0.16
				c-0.375,0.095-0.75,0.19-1.125,0.285l-9.366,5.498c-0.26,0.198-0.52,0.396-0.78,0.595c4.695,2.177,9.39,4.353,14.085,6.53
				c-0.037,0.137-0.073,0.274-0.11,0.412c-2.848-0.671-5.697-1.343-9.034-2.129c0.386,0.704,0.512,0.933,0.637,1.162
				c3.133,1.81,6.866,2.235,10.54,2.748c4.362,0.608,8.628,0.033,12.865-0.525c2.807-0.37,5.602-0.836,8.326-1.44
				C400.52,131.782,401.967,131.228,401.585,129.744"/>
			<path fill="#BD1C26" d="M413.466,117.354c-0.107-0.88-0.243-1.758-0.366-2.637c-0.527-0.067-1.257,0.009-1.547-0.224
				c-1.868-1.502-3.674-3.052-5.41-4.641c-0.271-0.248-0.082-0.777-0.106-1.176c-0.669-0.583-1.338-1.167-2.007-1.75
				c-1.253,2.113-2.368,4.283-3.812,6.316c-0.842,1.185-2.281,2.074-4.143,2.462c0.995-1.489,2.194-2.745,2.697-4.156
				c0.867-2.435,1.3-4.966,1.916-7.457c-0.259-0.223-0.523-0.448-0.794-0.681c-0.667,0.979-1.466,1.852-2.372,2.604
				c-0.085,0.316-0.169,0.631-0.253,0.947l-0.73,1.738c-0.033,0.154-0.066,0.307-0.115,0.457c-0.194,0.599-0.565,1.262-0.828,1.785
				l-0.181,0.43l-0.144,0.258c-0.207,0.457-0.43,0.942-0.715,1.344c-0.899,1.352-1.997,2.483-3.291,3.396
				c-0.16,0.175-0.322,0.352-0.487,0.533c0.781,4.991,1.609,10.283,2.498,15.959c1.809-0.697,3.356-1.293,4.903-1.89
				c1.172-0.499,2.343-0.997,3.515-1.496c5.362-2.728,9.143-6.446,11.842-10.843C413.513,118.205,413.517,117.779,413.466,117.354"
				/>
			<path fill="#962229" d="M415.63,67.43l-1.347-1.077c-1.792-1.45-3.583-2.9-5.375-4.351c-0.116,0-0.233,0.002-0.349,0
				c-0.293-0.006-0.583-0.017-0.871-0.036c0.583,0.259,1.191,0.5,1.63,0.858c2.051,1.673,3.932,3.467,6.038,5.098
				c0.09,0.069,0.167,0.139,0.251,0.209C415.615,67.897,415.623,67.664,415.63,67.43"/>
			<path fill="#B62128" d="M354.21,120.876c1.231,1.518,2.98,2.808,4.523,4.182c0.567,0.505,1.376,0.924,0.557,1.647
				c-0.72-0.079-1.44-0.158-2.16-0.238c-0.48-0.47-0.93-0.961-1.445-1.408c-2.875-2.497-5.207-5.221-6.963-8.259
				c-2.73-4.725-3.562-9.668-4.001-14.679c0.092-0.905,0.184-1.811,0.294-2.896c0.856,0.438,1.415,0.723,1.974,1.009
				C347.128,107.518,349.043,114.504,354.21,120.876 M352.77,120.826c0.152-0.08,0.304-0.16,0.456-0.24
				c-0.525-0.535-1.05-1.069-1.575-1.604c-0.206,0.118-0.412,0.235-0.618,0.353C351.612,119.832,352.191,120.329,352.77,120.826"/>
			<path fill="#F3F0EE" d="M400.877,101.685c-0.284,0.605-0.613,1.181-0.983,1.725c0.271,0.233,0.535,0.459,0.794,0.681
				c0.166,0.092,0.332,0.184,0.497,0.275c0.487-0.686,0.974-1.371,1.501-2.113C401.916,102.012,401.463,101.869,400.877,101.685"/>
			<path fill="#F3F0EE" d="M402.251,83.229c0.227-0.499,0.562-0.989,0.794-1.488c-0.255-0.241-0.51-0.482-0.765-0.722
				C402.27,81.756,402.261,82.493,402.251,83.229"/>
			<path fill="#BAA1AF" d="M415.28,103.158c-0.421,3.735-0.843,7.47-1.263,11.205c0.403,0.341,0.806,0.682,1.208,1.023
				c0.002-0.007,0.005-0.015,0.007-0.022C415.263,111.295,415.275,107.227,415.28,103.158"/>
			<path fill="#951922" d="M366.61,109.906c-0.309-0.681-0.576-1.373-0.862-2.06c-0.871-0.324-1.742-0.648-2.614-0.973
				c-0.233,0.501-0.742,1.025-0.653,1.498c0.437,2.334,1.212,4.611,3.616,6.349c1.762,1.274,3.606,2.484,5.383,3.747
				c0.26,0.185,0.349,0.508,0.517,0.766c0.375-0.095,0.75-0.19,1.125-0.285c0.443-0.5,1.824-0.686,0.912-1.638
				C370.283,115.555,368.003,112.977,366.61,109.906"/>
			<path fill="#F8F7F5" d="M359.29,126.704c-0.72-0.079-1.44-0.158-2.16-0.238c0.862,0.874,1.725,1.748,2.389,2.421
				c1.875,0.667,3.515,1.294,5.202,1.833c0.86,0.275,1.803,0.392,2.709,0.58c-0.126-0.229-0.251-0.458-0.637-1.162
				c3.337,0.786,6.185,1.457,9.033,2.129c0.037-0.137,0.073-0.274,0.11-0.411c-4.695-2.177-9.39-4.353-14.085-6.53
				C360.997,125.786,360.144,126.245,359.29,126.704"/>
			<path fill="#BAA1AF" d="M386.66,118.409c-0.605,0.129-1.207,0.212-1.808,0.256c-3.521,0.687-7.141,0.049-10.819-1.355
				c0.913,0.952-0.468,1.139-0.912,1.638c4.66,1.407,9.275,1.492,13.714-0.16c0.592-0.22,1.074-0.601,1.543-1
				C387.805,117.995,387.232,118.202,386.66,118.409"/>
			<path fill="#8A2A36" d="M413.726,114.288c-1.231-0.965-2.462-1.931-3.693-2.896c-1.903-1.565-3.807-3.13-5.711-4.695
				c-0.106,0.07-0.204,0.147-0.293,0.23c0.669,0.583,1.338,1.167,2.007,1.75c2.354,2.014,4.708,4.027,7.063,6.041
				c0.124,0.879,0.26,1.757,0.366,2.637c0.051,0.424,0.048,0.851,0.069,1.277c0.564-1.082,1.127-2.164,1.691-3.245
				c-0.403-0.341-0.805-0.682-1.208-1.023C413.899,114.387,413.802,114.362,413.726,114.288"/>
			<path fill="#F5F1EF" d="M397.269,106.961c-0.154,0.138-0.307,0.276-0.457,0.414c-0.089,0.439-0.18,0.874-0.267,1.293
				c-0.002,0.01-0.005,0.02-0.007,0.03L397.269,106.961z"/>
			<path fill="#8A2A36" d="M401.693,129.474c-1.172,0.499-2.343,0.998-3.514,1.496c1.136-0.409,2.271-0.818,3.407-1.227
				C401.638,129.658,401.674,129.568,401.693,129.474"/>
			<path fill="#BC1C26" d="M371.479,118.468c-1.777-1.263-3.62-2.473-5.383-3.747c-2.403-1.738-3.178-4.014-3.616-6.349
				c-0.089-0.474,0.42-0.997,0.653-1.498l-1.438-0.742c-4.381-1.766-8.762-3.532-13.142-5.298c-0.098,0.394-0.387,0.822-0.264,1.177
				c0.911,2.626,1.725,5.282,2.91,7.846c2.362,5.109,5.457,9.955,10.458,14.004c1.591-0.854,2.701-2.221,4.666-2.678
				c0.142,0.123,0.283,0.246,0.425,0.369c-1.461,0.958-2.923,1.917-4.384,2.875c0.066,0.112,0.155,0.214,0.266,0.304l9.366-5.497
				C371.828,118.975,371.74,118.653,371.479,118.468"/>
			<path fill="#E3B3B5" d="M362.631,124.732c-0.111-0.09-0.2-0.192-0.266-0.304c-0.235-0.189-0.471-0.377-0.706-0.566
				c-5.001-4.049-8.096-8.895-10.458-14.004c-1.185-2.564-1.999-5.22-2.91-7.846c-0.123-0.355,0.166-0.783,0.264-1.177
				c-0.521-0.2-1.043-0.4-1.564-0.6c0.138,7.283,2.053,14.27,7.22,20.641c1.231,1.518,2.98,2.808,4.523,4.182
				c0.567,0.505,1.376,0.924,0.557,1.647c0.854-0.459,1.707-0.919,2.561-1.378C362.111,125.128,362.371,124.93,362.631,124.732"/>
			<path fill="#E1B2B2" d="M403.612,105.991c-0.809-0.541-1.618-1.083-2.426-1.624c-0.166-0.092-0.332-0.184-0.497-0.275
				c-0.615,2.491-1.049,5.022-1.916,7.457c-0.502,1.411-1.702,2.667-2.697,4.156c1.862-0.388,3.301-1.277,4.143-2.462
				c1.444-2.033,2.559-4.203,3.812-6.316c0.089-0.083,0.186-0.16,0.293-0.23C404.086,106.462,403.849,106.226,403.612,105.991"/>
			<path fill="#C7171E" d="M406.143,109.852c1.736,1.589,3.541,3.139,5.41,4.641c0.29,0.233,1.02,0.157,1.547,0.224
				c-2.354-2.013-4.708-4.027-7.063-6.041C406.06,109.075,405.872,109.604,406.143,109.852"/>
			<path fill="#F4F0ED" d="M415.86,60.987c-2.19,0.666-4.562,1.026-6.951,1.016c1.792,1.45,3.583,2.9,5.375,4.351l1.347,1.077
				C415.694,65.282,415.769,63.134,415.86,60.987"/>
			<path fill="#F3F0EE" d="M414.212,90.553c-0.983-0.819-1.965-1.637-2.948-2.456c-0.502-0.377-1.004-0.755-1.506-1.132
				c-0.957-0.624-1.913-1.249-2.87-1.873c-0.425,0.886-1.169,1.753-1.224,2.66c-0.368,6.109-0.214,12.257-2.052,18.239
				c0.237,0.235,0.474,0.47,0.711,0.706c1.904,1.565,3.807,3.13,5.711,4.695c1.231,0.965,2.462,1.931,3.693,2.896
				c0.076,0.074,0.173,0.099,0.291,0.075c0.42-3.735,0.842-7.47,1.263-11.205c0.005-3.863,0.006-7.727,0.018-11.59
				C414.936,91.23,414.574,90.892,414.212,90.553"/>
			<path fill="#BB1B24" d="M415.608,68.131c-0.084-0.069-0.161-0.139-0.251-0.208c-2.106-1.631-3.987-3.425-6.038-5.098
				c-0.439-0.358-1.048-0.599-1.63-0.858c-0.155-0.01-0.307-0.026-0.46-0.039c-0.079,0.729-0.18,1.457-0.219,2.188
				c-0.349,6.51-0.685,13.021-1.025,19.531c0.354,0.28,0.708,0.561,1.062,0.841c1.405,1.203,2.81,2.406,4.215,3.609
				c0.983,0.819,1.966,1.637,2.948,2.456c0.346,0.04,0.692,0.081,1.089,0.127C415.326,83.162,415.394,75.645,415.608,68.131"/>
			<path fill="#E1B2B2" d="M403.634,61.265c-0.057,1.914-0.151,3.826-0.294,5.736c-0.217,2.886-0.646,5.753-0.86,8.637
				c-0.133,1.799-0.174,3.592-0.2,5.382c0.255,0.241,0.51,0.482,0.765,0.723l0.151-0.049c0.93,0.652,1.86,1.304,2.79,1.955
				c0.34-6.511,0.676-13.021,1.025-19.531c0.039-0.731,0.14-1.459,0.219-2.188C405.974,61.819,404.773,61.592,403.634,61.265"/>
			<path fill="#C7171E" d="M351.033,119.336c0.579,0.497,1.158,0.994,1.737,1.49c0.152-0.08,0.304-0.16,0.456-0.24
				c-0.525-0.535-1.05-1.069-1.575-1.604C351.445,119.1,351.239,119.218,351.033,119.336"/>
			<path fill="#FAF9F7" d="M403.196,81.692l-0.151,0.049c-0.233,0.498-0.567,0.989-0.794,1.488
				c-0.034,2.507-0.097,5.008-0.393,7.507c0.244,2.08,0.368,4.177,0.216,6.317c-0.119,1.676-0.539,3.231-1.197,4.632
				c0.586,0.184,1.039,0.327,1.809,0.569c-0.527,0.742-1.014,1.428-1.501,2.113c0.809,0.542,1.618,1.083,2.426,1.624
				c1.838-5.982,1.685-12.13,2.052-18.239c0.054-0.907,0.799-1.774,1.224-2.66C405.657,83.959,404.427,82.826,403.196,81.692"/>
			<path fill="#BAA1AF" d="M413.726,114.288c-1.231-0.965-2.462-1.931-3.693-2.896C411.264,112.357,412.495,113.323,413.726,114.288
				"/>
			<path fill="#C7171E" d="M361.658,123.861c0.235,0.189,0.471,0.377,0.706,0.566c1.461-0.958,2.923-1.917,4.384-2.875
				c-0.142-0.123-0.283-0.246-0.425-0.369C364.359,121.641,363.25,123.007,361.658,123.861"/>
			<path fill="#BDA3B5" d="M407.048,84.489c-0.354-0.28-0.708-0.561-1.062-0.841c-0.93-0.652-1.86-1.304-2.79-1.955
				c1.23,1.133,2.461,2.267,3.692,3.4c0.957,0.624,1.913,1.248,2.87,1.873C408.854,86.14,407.951,85.314,407.048,84.489"/>
			<path fill="#B90E19" d="M407.048,84.489c0.903,0.825,1.806,1.651,2.71,2.476c0.502,0.378,1.004,0.755,1.506,1.133
				C409.858,86.895,408.453,85.692,407.048,84.489"/>
			<path fill="#B99FB0" d="M421.043,65.469c0.327-2.07,0.739-4.131,0.961-6.212c0.287-2.682,0.694-5.379,0.568-8.07
				c-0.277-5.939-7.854-9.446-13.949-6.522c-1.112,0.533-1.903,1.503-2.842,2.271c4.17,0.471,7.135,2.238,8.137,5.702
				c0.689,2.382,0.967,4.832,1.429,7.252c0.308,0.29,0.616,0.581,0.924,0.871c0.62,0.618,1.241,1.237,1.861,1.856
				C419.102,63.568,420.073,64.518,421.043,65.469"/>
			<path fill="#911720" d="M421.043,65.469c-0.97-0.951-1.941-1.902-2.912-2.852c-0.62-0.618-1.241-1.237-1.861-1.856
				c-0.308-0.29-0.616-0.581-0.924-0.871c-0.78-0.69-1.559-1.38-2.339-2.07c-0.095,0.053-0.198,0.064-0.31,0.031
				c-0.077,0.076-0.169,0.136-0.277,0.18c0.094,0.132,0.187,0.265,0.281,0.397c0.514,0.523,1.027,1.046,1.541,1.57
				c0.209,0.211,0.418,0.422,0.627,0.633c0.09,0.289,0.18,0.579,0.269,0.868c0.115,1.989,0.229,3.978,0.343,5.967
				c0.066,2.106,0.213,4.215,0.175,6.316c-0.042,2.28-0.429,4.553-0.323,6.829c0.051,1.085-0.284,1.735-1.231,2.293
				c1.238,1.415,2.463,2.839,3.74,4.23c0.094,0.102,0.559-0.022,0.851-0.041C419.478,79.884,420.261,72.677,421.043,65.469"/>
			<path fill="#AF121E" d="M414.871,60.631c-0.209-0.211-0.418-0.422-0.627-0.633c-1.57,0.509-1.594-0.71-2.397-1.274
				c0.443-0.153,0.649-0.224,0.856-0.295c-0.094-0.133-0.187-0.265-0.281-0.397c-0.429-0.392-0.858-0.784-1.287-1.176
				c-0.293,0.037-0.773,0.183-0.85,0.095c-1.079-1.228-3.267-1.937-2.856-3.874l0.07-0.022c-0.236-0.202-0.472-0.403-0.708-0.605
				c-0.227,0.153-0.454,0.306-0.682,0.459c0.02,0.565,0.039,1.13,0.056,1.619c-0.68-0.241-1.391-0.494-2.102-0.746
				c-0.505,3.931-1.009,7.861-1.514,11.792c-0.22,2.218-0.44,4.435-0.659,6.652c0.471,0.55,0.942,1.1,1.413,1.651
				c0.148,0.086,0.295,0.173,0.443,0.259c0.122-0.641,0.279-1.278,0.36-1.923c0.469-3.731,0.92-7.464,1.377-11.196
				c0.054-0.551,0.108-1.101,0.162-1.651l-0.077-2.951c0.24-0.001,0.479-0.003,0.719-0.004c0.028,0.855,0.056,1.71,0.084,2.565
				c0.047,0.098,0.093,0.196,0.138,0.294c1.676,0.028,3.352,0.057,4.442,0.075c1.707,3.058,3.12,5.59,4.533,8.121
				c-0.114-1.989-0.229-3.978-0.343-5.967C414.028,61.395,414.463,61.011,414.871,60.631"/>
			<path fill="#F3F0EE" d="M413.009,57.82c0.78,0.69,1.559,1.38,2.339,2.07c-0.462-2.42-0.74-4.87-1.429-7.252
				c-1.002-3.464-3.967-5.231-8.137-5.702c-0.426,0.617-0.852,1.234-1.278,1.851v-0.001c0.06,0.336,0.12,0.672,0.18,1.008
				c1.03,1.023,2.061,2.046,3.091,3.07l3.533,3.381C411.875,56.77,412.442,57.295,413.009,57.82"/>
			<path fill="#6E242B" d="M418.696,87.092c-0.292,0.019-0.758,0.143-0.851,0.041c-1.277-1.392-2.502-2.815-3.74-4.23
				c-0.841-0.465-1.682-0.93-2.523-1.395c2.232,2.28,4.465,4.56,6.697,6.839l0.145,0.055l-0.001,0.13
				C418.513,88.052,418.605,87.572,418.696,87.092"/>
			<path fill="#B11620" d="M404.063,53.782c0.711,0.252,1.422,0.505,2.102,0.746c-0.017-0.489-0.036-1.054-0.056-1.619
				c-0.582-0.154-1.164-0.307-1.746-0.461C404.262,52.893,404.163,53.337,404.063,53.782"/>
			<path fill="#B90E19" d="M404.362,52.448c0.582,0.154,1.164,0.307,1.746,0.461c0.227-0.153,0.455-0.306,0.682-0.459
				c-0.775-0.558-1.55-1.115-2.326-1.673c-0.048,0.34-0.096,0.68-0.144,1.019c0.02,0.222,0.039,0.444,0.059,0.666L404.362,52.448z"
				/>
			<path fill="#8A2A36" d="M404.464,50.777c0.775,0.558,1.55,1.115,2.326,1.673c0.236,0.202,0.472,0.403,0.708,0.605
				c0.09-0.066,0.182-0.129,0.276-0.191l-3.091-3.07C404.611,50.122,404.537,50.449,404.464,50.777"/>
			<path fill="#DDADAF" d="M401.89,72.226c-0.114,0.074-0.226,0.15-0.336,0.228c0.155,0.231,0.309,0.461,0.464,0.692
				c0.429,0.244,0.857,0.488,1.286,0.732C402.832,73.327,402.361,72.776,401.89,72.226"/>
			<path fill="#B11620" d="M404.379,52.462c-0.019-0.222-0.039-0.444-0.058-0.666C404.34,52.018,404.359,52.24,404.379,52.462"/>
			<path fill="#BDA3B5" d="M416.271,60.761c0.62,0.619,1.241,1.237,1.861,1.856C417.512,61.998,416.891,61.38,416.271,60.761"/>
			<path fill="#B11620" d="M411.581,81.507c0.841,0.465,1.682,0.93,2.523,1.395c0.946-0.558,1.282-1.207,1.231-2.292
				c-0.107-2.276,0.28-4.549,0.323-6.829c0.039-2.101-0.109-4.21-0.175-6.316c-1.413-2.531-2.826-5.063-4.533-8.121
				c-1.09-0.018-2.766-0.047-4.442-0.075c-0.051,0.607-0.103,1.213-0.155,1.82c-0.143,5.082-0.285,10.164-0.428,15.246
				c0.276,0.326,0.552,0.651,0.828,0.977c0.744,0.709,1.488,1.419,2.232,2.128C409.851,80.129,410.716,80.818,411.581,81.507"/>
			<path fill="#6E242B" d="M407.775,52.864c-0.094,0.062-0.186,0.125-0.276,0.191l-0.07,0.022c1.236,1.26,2.471,2.519,3.706,3.779
				c0.429,0.392,0.858,0.784,1.287,1.176c0.108-0.044,0.2-0.104,0.277-0.18c-0.464-0.536-0.927-1.071-1.391-1.606L407.775,52.864z"
				/>
			<path fill="#B90E19" d="M412.703,58.429c-0.207,0.071-0.413,0.143-0.856,0.295c0.803,0.564,0.827,1.783,2.397,1.274
				C413.73,59.475,413.217,58.952,412.703,58.429"/>
			<path fill="#B99FB0" d="M411.308,56.245c0.464,0.536,0.927,1.071,1.391,1.606c0.112,0.032,0.215,0.022,0.31-0.031
				C412.442,57.295,411.875,56.77,411.308,56.245"/>
			<path fill="#B11620" d="M414.871,60.631c-0.408,0.38-0.843,0.764,0.269,0.868C415.051,61.209,414.961,60.92,414.871,60.631"/>
			<path fill="#E0959A" d="M408.985,79.44c2.027,2.101,4.053,4.202,6.08,6.304c1.071,0.868,2.143,1.735,3.214,2.603
				c-2.233-2.28-4.465-4.559-6.697-6.839C410.716,80.818,409.85,80.129,408.985,79.44"/>
			<path fill="#DDADAF" d="M405.925,76.335c0.143-5.082,0.285-10.164,0.428-15.246c-0.29-0.024-0.58-0.048-0.87-0.072
				c-0.457,3.732-0.908,7.465-1.377,11.196c-0.081,0.645-0.238,1.282-0.36,1.923c0.292,0.322,0.583,0.645,0.875,0.967
				C405.055,75.514,405.49,75.924,405.925,76.335"/>
			<path fill="#B90E19" d="M411.135,56.856c-1.235-1.26-2.471-2.519-3.706-3.779c-0.411,1.937,1.777,2.646,2.856,3.874
				C410.362,57.039,410.842,56.893,411.135,56.856"/>
			<path fill="#E0959A" d="M406.37,58.975c-0.028-0.855-0.056-1.71-0.084-2.565c-0.24,0.001-0.479,0.003-0.719,0.004l0.077,2.951
				C405.886,59.235,406.128,59.105,406.37,58.975"/>
			<path fill="#E1B2B2" d="M406.37,58.975c-0.242,0.13-0.484,0.26-0.725,0.39c-0.054,0.551-0.108,1.101-0.162,1.652
				c0.29,0.024,0.58,0.048,0.87,0.072c0.052-0.607,0.103-1.213,0.155-1.82C406.463,59.171,406.417,59.073,406.37,58.975"/>
			<path fill="#951922" d="M394.208,142.466c0.408-0.24,0.815-0.479,1.223-0.719c-0.285-0.291-0.571-0.583-1.104-1.128
				C394.273,141.452,394.24,141.959,394.208,142.466"/>
			<path fill="#951922" d="M396.164,142.881c0.082-0.069,0.152-0.146,0.208-0.231l-0.132-0.15l-0.182-0.109
				c-0.11,0.152-0.22,0.304-0.33,0.456C395.874,142.859,396.019,142.87,396.164,142.881"/>
			<path fill="#BAA1B2" d="M415.857,111.263c0.179-0.492,0.464-0.973,0.521-1.478c0.763-6.634,1.501-13.27,2.22-19.909
				c0.047-0.437-0.101-0.894-0.158-1.342l0.001-0.13l-0.145-0.055c-1.071-0.868-2.142-1.735-3.213-2.603
				c-0.097,0.651-0.232,1.299-0.285,1.954c-0.57,6.971-1.126,13.943-1.686,20.915C414.027,109.498,414.942,110.38,415.857,111.263"
				/>
			<path fill="#962229" d="M415.857,111.263c-0.915-0.883-1.83-1.765-2.745-2.648c-0.315-0.202-0.63-0.404-0.945-0.607
				c-0.552-0.525-1.104-1.051-1.657-1.576c-1.981-1.908-3.962-3.817-5.943-5.725c-0.092,0.296-0.184,0.593-0.275,0.889
				c0.622,0.373,1.362,0.665,1.845,1.134c1.797,1.744,3.432,3.603,5.28,5.307c1.288,1.187,1.867,2.337,1.543,3.937
				c-0.439,2.164-0.556,4.384-0.763,6.584c-0.141,1.496-0.218,2.998-0.294,4.499c-0.135,2.678-0.246,5.358-0.362,7.917
				c-1.004-0.168-1.635-0.273-2.265-0.379c0.671,0.747,1.342,1.494,2.013,2.24c0.72,0.539,1.44,1.078,2.16,1.617
				c0.556-5.146,1.084-10.294,1.682-15.435c0.211-1.812,0.59-3.605,0.892-5.407c0.029-0.669,0.057-1.337,0.086-2.005
				C415.99,111.507,415.907,111.393,415.857,111.263"/>
			<path fill="#F4F0ED" d="M403.764,74.139c-0.147-0.086-0.295-0.173-0.443-0.259c-0.428-0.244-0.857-0.488-1.286-0.732
				c-0.178,0.419-0.463,0.825-0.518,1.259c-0.322,2.513-0.626,5.028-0.864,7.55c-0.214,2.271,0.008,4.623-0.585,6.807
				c-0.699,2.578-0.828,4.754-0.849,7.718c-0.008,1.105,0,0.566-0.519,3.597c0.173-0.8,0.346-1.6,0.519-2.4
				c0.033-0.507,0.065-1.015,0.119-1.846c0.534,0.545,0.819,0.836,1.104,1.128c0.209,0.214,0.419,0.429,0.628,0.643l0.181,0.109
				l0.132,0.15c0.144,0.096,0.289,0.193,0.433,0.289c-0.066-1.118-0.284-2.252-0.171-3.352c0.605-5.93,1.267-11.854,1.988-17.771
				c0.082-0.67,0.658-1.283,1.004-1.923C404.347,74.783,404.055,74.461,403.764,74.139"/>
			<path fill="#B51621" d="M401.071,97.603c-0.209-0.214-0.419-0.429-0.628-0.643c-0.408,0.239-0.815,0.479-1.223,0.719
				c-0.173,0.8-0.346,1.6-0.519,2.4c-0.674,5.988-1.348,11.976-2.022,17.964c0.626,0.771,1.251,1.543,1.877,2.314l2.62-22.264
				c-0.145-0.011-0.29-0.022-0.435-0.033C400.851,97.908,400.961,97.755,401.071,97.603"/>
			<path fill="#F4F0ED" d="M409.004,79.443c-0.744-0.709-1.488-1.419-2.232-2.128c-0.361,0.844-0.935,1.665-1.041,2.538
				c-0.253,2.091-0.286,4.207-0.406,6.312c-0.117,2.04-0.152,4.088-0.373,6.116c-0.188,1.721-0.591,3.42-0.953,5.432
				c-0.009,0.496-0.024,1.339-0.039,2.182c0.203,0.271,0.406,0.542,0.609,0.813c1.981,1.908,3.962,3.817,5.943,5.725
				c0.552,0.525,1.104,1.051,1.657,1.576c0.315,0.202,0.63,0.404,0.945,0.607c0.56-6.972,1.117-13.944,1.686-20.914
				c0.054-0.655,0.188-1.303,0.285-1.954C413.057,83.645,411.03,81.544,409.004,79.443"/>
			<path fill="#BB1B24" d="M406.695,128.038c0.86,0.853,1.72,1.705,2.58,2.558c0.631,0.105,1.261,0.211,2.265,0.379
				c0.116-2.559,0.227-5.239,0.362-7.917c0.076-1.501,0.153-3.004,0.294-4.499c0.208-2.2,0.324-4.42,0.763-6.585
				c0.325-1.6-0.255-2.749-1.543-3.937c-1.849-1.704-3.484-3.563-5.28-5.307c-0.483-0.469-1.223-0.761-1.845-1.134
				c-0.112,0.78-0.254,1.558-0.331,2.342c-0.634,6.488-1.256,12.978-1.882,19.468c0.31,0.293,0.621,0.585,0.931,0.878
				C404.239,125.535,405.467,126.787,406.695,128.038"/>
			<path fill="#BAA1B2" d="M412.167,108.008c-0.552-0.525-1.104-1.051-1.657-1.576C411.063,106.958,411.615,107.483,412.167,108.008
				"/>
			<path fill="#FAF9F7" d="M401.818,98.151c0.41,0.424,0.82,0.848,1.229,1.272c0.303,0.151,0.606,0.301,0.909,0.452l0.004,0.019
				c0.015-0.843,0.03-1.686,0.039-2.182c0.362-2.011,0.765-3.71,0.953-5.432c0.221-2.028,0.256-4.077,0.373-6.116
				c0.121-2.106,0.154-4.221,0.406-6.312c0.105-0.873,0.68-1.693,1.041-2.538c-0.276-0.326-0.552-0.651-0.828-0.977
				c-0.435-0.411-0.87-0.822-1.305-1.232c-0.347,0.639-0.923,1.253-1.004,1.922c-0.721,5.917-1.382,11.842-1.988,17.771
				C401.534,95.9,401.752,97.033,401.818,98.151"/>
			<path fill="#951922" d="M399.22,97.678c0.408-0.24,0.815-0.479,1.223-0.719c-0.285-0.291-0.571-0.583-1.104-1.128
				C399.285,96.664,399.253,97.171,399.22,97.678"/>
			<path fill="#F5F1EF" d="M383.139,217.102c0.044-0.114,0.139-0.22,0.213-0.331c-0.103,0.039-0.192,0.072-0.297,0.111
				c-0.539-5.7-1.041-11.014-1.515-16.026c0.813-0.888,1.553-1.696,2.27-2.479c-0.527,0.36-1.111,0.588-1.717,1.037
				c-0.209,0.325-0.502,0.609-0.959,0.761l-0.478,0.159c-0.15,0.194-0.297,0.39-0.454,0.578c-0.781,0.575-1.443,1.358-2.362,1.688
				c-4.143,1.491-8.363,1.241-12.56-0.331c-0.348,0.082-0.696,0.163-1.044,0.244c-2.946,1.718-5.892,3.437-8.838,5.154
				c-0.247,0.189-0.495,0.378-0.742,0.566c4.192,2.342,8.385,4.684,12.577,7.025c-0.04,0.136-0.08,0.272-0.12,0.407
				c-2.575-0.772-5.15-1.544-8.166-2.449c0.319,0.716,0.423,0.95,0.527,1.183c2.78,1.92,6.177,2.478,9.515,3.121
				c3.963,0.764,7.896,0.342,11.801-0.063c0.778-0.081,1.537-0.243,2.311-0.342C383.113,217.107,383.127,217.109,383.139,217.102z"
				/>
			<path fill="#951922" d="M401.176,98.093c0.082-0.069,0.152-0.146,0.208-0.231l-0.132-0.15l-0.182-0.109
				c-0.11,0.152-0.22,0.304-0.33,0.456C400.886,98.071,401.031,98.082,401.176,98.093"/>
			<path fill="#F4F0ED" d="M403.956,99.875c-0.303-0.151-0.606-0.301-0.909-0.452C403.35,99.574,403.653,99.725,403.956,99.875"/>
			<path fill="#BD1C26" d="M402.286,202.12c-0.055-0.882-0.137-1.764-0.208-2.646c-0.479-0.086-1.151-0.036-1.405-0.279
				c-1.638-1.567-3.215-3.179-4.728-4.828c-0.236-0.257-0.038-0.779-0.04-1.178c-0.584-0.606-1.168-1.213-1.752-1.819
				c-1.249,2.065-2.374,4.193-3.794,6.171c-0.828,1.153-2.188,1.989-3.911,2.31c0.983-1.451,2.141-2.662,2.669-4.054
				c0.911-2.4,1.43-4.913,2.114-7.378c-0.582-0.595-1.165-1.189-1.928-1.969c-0.098,0.356-0.181,0.654-0.267,0.967l0,0
				c0.012,0.219-0.014,0.433-0.069,0.644c0,0.001,0,0.002,0,0.002c-0.056,0.212-0.148,0.405-0.271,0.585
				c-0.059,0.212-0.119,0.432-0.177,0.641c-0.185,0.625-0.37,1.249-0.555,1.874l-1.91,4.337c-0.219,0.382-0.437,0.764-0.656,1.146
				c-1.217,1.329-2.433,2.658-3.855,4.211c0.474,5.012,0.976,10.327,1.515,16.026c1.689-0.631,3.134-1.172,4.579-1.711
				c1.096-0.456,2.193-0.912,3.289-1.368c5.04-2.532,8.68-6.11,11.363-10.404C402.288,202.972,402.312,202.546,402.286,202.12z"/>
			<path fill="#BAA1B2" d="M410.845,156.051c0.179-0.492,0.464-0.973,0.521-1.478c0.763-6.634,1.501-13.27,2.22-19.909
				c0.047-0.437-0.101-0.894-0.158-1.342l0.001-0.13l-0.145-0.055c-1.071-0.868-2.142-1.735-3.213-2.603
				c-0.097,0.651-0.232,1.299-0.285,1.954c-0.569,6.971-1.126,13.943-1.686,20.915C409.015,154.286,409.93,155.168,410.845,156.051"
				/>
			<path fill="#962229" d="M410.381,155.741c-0.915-0.883-1.83-1.765-2.745-2.648c-0.315-0.202-0.63-0.404-0.945-0.607
				c-0.552-0.525-1.104-1.051-1.657-1.576c-1.981-1.908-3.962-3.817-5.943-5.725c-0.092,0.296-0.184,0.593-0.275,0.889
				c0.622,0.373,1.362,0.665,1.845,1.134c1.797,1.744,3.432,3.603,5.28,5.307c1.288,1.187,1.867,2.337,1.543,3.937
				c-0.439,2.164-0.556,4.384-0.763,6.584c-0.141,1.496-0.218,2.998-0.294,4.499c-0.135,2.678-0.246,5.358-0.362,7.917
				c-1.004-0.168-1.635-0.273-2.265-0.379c0.671,0.747,1.342,1.494,2.013,2.24c0.72,0.539,1.44,1.078,2.16,1.617
				c0.556-5.146,1.084-10.294,1.682-15.435c0.211-1.812,0.59-3.605,0.892-5.407c0.029-0.669,0.057-1.337,0.086-2.005
				C410.513,155.986,410.43,155.872,410.381,155.741"/>
			<path fill="#B62128" d="M347.876,203.515c0.827,1.645,2.592,2.911,3.938,4.338c0.494,0.524,1.215,0.972,0.431,1.664
				c-0.655-0.105-1.31-0.21-1.965-0.314c-0.417-0.487-0.805-0.992-1.255-1.458c-2.511-2.596-4.514-5.4-5.975-8.497
				c-2.271-4.816-3.036-7.432-3.195-12.452c0.128-0.901,0.046-1.329,0.199-2.408c0.165-0.577,0.633-1.574,1.04-2.053
				c0.256-0.302,1.483-1.651,2.32-1.978C348.139,178.792,344.049,195.903,347.876,203.515"/>
			<path fill="#F3F0EE" d="M394.642,166.184c-0.308-0.346-0.616-0.693-0.923-1.04c-0.626-0.771-1.252-1.542-1.877-2.314
				c-0.391,0.758,0.116,2.097-0.211,2.895c0.018,0.186,0.044,0.372,0.037,0.56c0.007,0.401-0.125,0.704-0.299,0.964
				c0.106,0.307,0.158,0.645,0.059,1.039c-0.02,0.077-0.039,0.155-0.058,0.232c-0.024,0.096-0.076,0.158-0.114,0.238
				c0.002,0.164-0.036,0.322-0.072,0.48c0.047,0.103,0.079,0.227,0.063,0.424c-0.224,2.73-0.635,5.445-1.025,8.159
				c-0.324,2.263-0.648,4.529-1.14,6.764c-0.013,0.061-0.065,0.115-0.084,0.175c0.09,0.226,0.135,0.49,0.116,0.794
				c-0.028,0.444-0.1,0.874-0.171,1.305c0.113,0.336,0.112,0.7,0.047,1.051c-0.006,0.03-0.007,0.057-0.014,0.087
				c-0.082,0.36-0.259,0.678-0.532,0.927l0,0c0.083,0.12,0.165,0.241,0.248,0.361c0.238-0.862,0.476-1.723,0.785-2.838
				c0.764,0.779,1.346,1.374,1.928,1.969c0.147,0.098,0.295,0.195,0.442,0.293c0.479-0.667,0.958-1.334,1.476-2.057
				c-0.796-0.309-1.216-0.472-1.874-0.728c0.395-0.807,0.76-1.554,1.01-2.064c-0.145-0.961-0.423-1.739-0.348-2.484
				c0.433-4.316,0.908-8.628,1.474-12.929C393.687,167.665,394.277,166.938,394.642,166.184z"/>
			<path fill="#F4F0ED" d="M398.751,118.927c-0.147-0.086-0.295-0.173-0.443-0.259c-0.428-0.244-0.857-0.488-1.286-0.732
				c-0.178,0.419-0.463,0.825-0.518,1.259c-0.322,2.513-0.626,5.028-0.864,7.55c-0.214,2.271,0.008,4.623-0.585,6.807
				c-0.699,2.578-0.636,5.047-0.777,8.008c-0.058,1.219,0.992,0.465,2.38,1.567c0.173-0.8-2.625,0.14-2.452-0.661
				c0.033-0.507,0.065-1.015,0.119-1.846c0.534,0.545,0.819,0.836,1.104,1.128c0.209,0.214,0.419,0.429,0.628,0.644l0.181,0.109
				l0.132,0.15c0.144,0.096,0.289,0.193,0.433,0.289c-0.066-1.118-0.284-2.252-0.171-3.352c0.605-5.93,1.267-11.854,1.988-17.771
				c0.082-0.669,0.658-1.283,1.004-1.923C399.335,119.571,399.043,119.249,398.751,118.927"/>
			<path fill="#BAA1AF" d="M408.436,179.241c-0.72-0.539-1.44-1.078-2.16-1.617c-0.15,0.843-0.318,1.683-0.447,2.529
				c-0.969,6.333-1.931,12.667-2.894,19.001c0.352,0.355,0.704,0.71,1.057,1.065c1.106-3.257,2.539-6.458,3.229-9.786
				C407.982,186.763,408.06,182.976,408.436,179.241"/>
			<path fill="#B51621" d="M396.059,142.391c-0.209-0.214-0.419-0.429-0.628-0.643c-0.408,0.239-0.815,0.479-1.223,0.719
				c-0.173,0.8-0.346,1.6-0.519,2.4c-0.674,5.988-1.348,11.976-2.022,17.964c0.626,0.771,1.251,1.543,1.877,2.314
				c0.873-7.421,1.746-14.842,2.62-22.264c-0.145-0.011-0.29-0.022-0.435-0.033C395.839,142.695,395.949,142.543,396.059,142.391"/>
			<path fill="#951922" d="M359.067,190.917c-0.426-0.9-0.943-3.297-1.929-6.788c-0.088-0.311-0.374-0.924-0.606-1.377
				c-0.238,0.492-0.539,8.096-0.48,8.572c0.288,2.347,0.887,4.648,3.003,6.469c1.552,1.335,3.181,2.61,4.746,3.935
				c0.229,0.194,0.295,0.519,0.436,0.784c0.348-0.081,0.696-0.163,1.043-0.244c0.43-0.483,1.703-0.62,0.914-1.603
				c-3.348-1.887-5.31-4.544-6.437-7.66C359.507,192.313,359.296,191.613,359.067,190.917"/>
			<path fill="#F8F7F5" d="M354.655,208.233c-0.803,0.428-1.607,0.856-2.411,1.284c-0.655-0.105-1.31-0.21-1.965-0.315
				c0.473,0.572,0.928,1.122,1.357,1.641c1.162,0.417,1.984,1.21,3.211,1.845c0.774,0.401,1.693,0.444,2.469,0.865
				c0.328,0.178,0.65,0.361,0.966,0.552c0.397,0.098,0.799,0.188,1.191,0.293c-0.104-0.233-0.208-0.466-0.527-1.183
				c3.016,0.905,5.591,1.677,8.166,2.45c0.04-0.136,0.081-0.272,0.12-0.407C363.04,212.916,358.848,210.575,354.655,208.233z"/>
			<path fill="#BAA1AF" d="M366.193,200.665c0.789,0.984-0.484,1.121-0.914,1.603c4.198,1.573,8.418,1.822,12.561,0.331
				c0.919-0.331,1.581-1.113,2.362-1.688C375.585,203.493,370.905,202.856,366.193,200.665"/>
			<path fill="#8A2A36" d="M403.991,200.218c-0.352-0.355-0.704-0.71-1.057-1.065c-0.109,0.02-0.196-0.009-0.262-0.085
				c-1.08-1.008-2.16-2.016-3.24-3.025c-1.667-1.631-3.334-3.262-5-4.893c-0.101,0.066-0.194,0.139-0.279,0.219
				c0.584,0.606,1.168,1.213,1.752,1.819c2.058,2.095,4.115,4.19,6.173,6.286c0.071,0.882,0.153,1.764,0.208,2.646
				c0.027,0.426,0.003,0.852,0.001,1.278C402.855,202.338,403.423,201.278,403.991,200.218"/>
			<path fill="#8A2A36" d="M390.924,213.802c-1.097,0.456-2.193,0.912-3.289,1.368c1.059-0.368,2.118-0.735,3.178-1.103
				C390.865,213.984,390.902,213.896,390.924,213.802"/>
			<path fill="#BC1C26" d="M364.236,202.512c-0.141-0.265-0.207-0.59-0.436-0.784c-1.565-1.325-3.194-2.599-4.746-3.935
				c-2.116-1.821-2.715-4.122-3.003-6.469c-0.058-0.476,0.38-1.466,0.617-1.958c0.344-1.306,0.395-5.723-0.797-7.262
				c-1.776-2.04-3.02-2.927-6.279-3.54c-2.307-0.433-3.365,0.463-4.52,0.929c-0.446,0.18-1.055,0.473-1.775,0.913
				c-0.609,0.438-0.024,3.697,0.072,4.056c0.707,2.655,1.324,5.337,2.285,7.939c1.915,5.187,4.514,10.136,8.896,14.359
				c1.498-0.796,2.58-2.121,4.4-2.507c0.124,0.128,0.247,0.256,0.371,0.384c-1.384,0.904-2.768,1.809-4.152,2.714
				c0.055,0.115,0.131,0.219,0.229,0.313C358.344,205.949,361.29,204.231,364.236,202.512"/>
			<path fill="#E1B2B2" d="M394.153,191.37c0.085-0.08,0.178-0.153,0.279-0.219c-0.206-0.243-0.411-0.487-0.617-0.73
				c-0.714-0.57-1.428-1.139-2.143-1.709c-0.147-0.098-0.295-0.195-0.442-0.293c-0.684,2.465-1.202,4.978-2.114,7.378
				c-0.528,1.391-1.687,2.603-2.669,4.054c1.723-0.321,3.083-1.157,3.912-2.31C391.779,195.562,392.904,193.435,394.153,191.37"/>
			<path fill="#C7171E" d="M402.078,199.475c-2.058-2.095-4.115-4.19-6.173-6.286c0.003,0.399-0.196,0.921,0.04,1.178
				c1.512,1.649,3.09,3.261,4.728,4.828C400.927,199.438,401.599,199.389,402.078,199.475"/>
			<path fill="#F4F0ED" d="M403.991,124.231c-0.744-0.709-1.488-1.419-2.232-2.128c-0.361,0.844-0.935,1.665-1.041,2.538
				c-0.253,2.091-0.286,4.207-0.406,6.312c-0.117,2.04-0.152,4.088-0.373,6.116c-0.188,1.721-0.591,3.421-0.953,5.432
				c-0.009,0.496-0.024,1.339-0.039,2.182l0.609,0.813c1.981,1.908,3.962,3.817,5.943,5.725c0.552,0.525,1.104,1.051,1.657,1.576
				c0.315,0.202,0.63,0.404,0.945,0.607c0.56-6.972,1.117-13.944,1.686-20.914c0.054-0.655,0.188-1.303,0.285-1.954
				C408.044,128.433,406.018,126.332,403.991,124.231"/>
			<path fill="#F3F0EE" d="M393.815,190.421c0.206,0.243,0.411,0.487,0.617,0.73c1.667,1.631,3.333,3.262,5,4.893
				c1.08,1.008,2.16,2.016,3.24,3.025c0.066,0.076,0.154,0.105,0.262,0.085c0.964-6.334,1.925-12.668,2.894-19.001
				c0.13-0.845,0.297-1.686,0.447-2.529c-0.671-0.747-1.342-1.494-2.013-2.24c-0.86-0.853-1.72-1.705-2.58-2.558
				c-0.441-0.395-0.882-0.79-1.323-1.185c-0.846-0.658-1.691-1.315-2.537-1.973c-0.432,0.869-1.155,1.709-1.249,2.612
				C395.943,178.368,395.786,184.513,393.815,190.421"/>
			<path fill="#BB1B24" d="M401.683,172.826c0.86,0.853,1.72,1.705,2.58,2.558c0.631,0.105,1.261,0.211,2.265,0.379
				c0.116-2.559,0.227-5.239,0.362-7.917c0.076-1.501,0.153-3.004,0.294-4.499c0.208-2.2,0.324-4.42,0.763-6.585
				c0.325-1.6-0.255-2.749-1.543-3.937c-1.849-1.704-3.484-3.563-5.28-5.307c-0.483-0.469-1.223-0.761-1.845-1.134
				c-0.112,0.78-0.254,1.558-0.331,2.342c-0.634,6.488-1.256,12.978-1.882,19.468c0.31,0.293,0.621,0.585,0.931,0.878
				L401.683,172.826z"/>
			<path fill="#E1B2B2" d="M397.068,168.193c0.626-6.489,1.248-12.979,1.882-19.468c0.077-0.784,0.219-1.561,0.331-2.341
				c0.092-0.296,0.184-0.593,0.275-0.889l-0.609-0.813l-0.004-0.019c-0.303-0.151-0.606-0.301-0.909-0.452
				c-0.41-0.424-0.82-0.848-1.229-1.272c-0.144-0.096-0.289-0.193-0.433-0.289c-0.057,0.085-0.126,0.162-0.208,0.231
				c-0.873,7.421-1.746,14.842-2.619,22.264c0.308,0.347,0.616,0.693,0.924,1.04l0.14-0.044
				C395.428,166.825,396.248,167.509,397.068,168.193"/>
			<path fill="#BAA1B2" d="M407.155,152.796c-0.552-0.525-1.104-1.051-1.657-1.576C406.051,151.745,406.603,152.271,407.155,152.796
				"/>
			<path fill="#FAF9F7" d="M393.815,190.421c1.971-5.907,2.128-12.053,2.76-18.14c0.094-0.904,0.817-1.743,1.249-2.612
				c-1.072-1.176-2.143-2.352-3.215-3.528l-0.14,0.044c-0.365,0.754-0.956,1.481-1.059,2.267c-0.566,4.301-1.041,8.613-1.474,12.928
				c-0.075,0.744,0.203,1.523,0.348,2.484c-0.249,0.51-0.615,1.257-1.01,2.064c0.658,0.256,1.077,0.419,1.874,0.728
				c-0.518,0.722-0.997,1.389-1.476,2.057C392.386,189.281,393.1,189.851,393.815,190.421"/>
			<path fill="#FAF9F7" d="M396.805,142.939c0.41,0.424,0.82,0.848,1.229,1.272c0.303,0.151,0.606,0.301,0.909,0.452l0.004,0.019
				c0.015-0.843,0.03-1.686,0.039-2.182c0.362-2.011,0.765-3.71,0.953-5.432c0.221-2.028,0.256-4.077,0.373-6.116
				c0.12-2.106,0.154-4.221,0.406-6.312c0.105-0.873,0.68-1.693,1.041-2.538c-0.276-0.326-0.552-0.651-0.828-0.976
				c-0.435-0.411-0.87-0.822-1.305-1.233c-0.347,0.639-0.923,1.253-1.004,1.922c-0.721,5.917-1.382,11.842-1.988,17.771
				C396.522,140.688,396.74,141.821,396.805,142.939"/>
			<path fill="#BAA1AF" d="M402.672,199.068c-1.08-1.008-2.16-2.016-3.24-3.025C400.512,197.052,401.592,198.06,402.672,199.068"/>
			<path fill="#C7171E" d="M354.549,206.763c0.206,0.197,0.413,0.394,0.619,0.591c1.384-0.905,2.768-1.809,4.152-2.714
				c-0.124-0.128-0.247-0.256-0.371-0.384C357.129,204.642,356.047,205.967,354.549,206.763"/>
			<path fill="#BDA3B5" d="M394.609,166.141c1.072,1.176,2.143,2.352,3.215,3.528c0.846,0.658,1.691,1.315,2.537,1.973
				c-0.787-0.857-1.574-1.713-2.361-2.57c-0.31-0.293-0.621-0.586-0.931-0.878C396.248,167.509,395.428,166.825,394.609,166.141"/>
			<path fill="#B90E19" d="M397.999,169.072c0.787,0.857,1.574,1.713,2.361,2.57c0.441,0.395,0.882,0.79,1.323,1.185
				L397.999,169.072z"/>
			<path fill="#F4F0ED" d="M398.943,144.663c-0.303-0.151-0.606-0.301-0.909-0.452C398.337,144.362,398.641,144.513,398.943,144.663
				"/>
			<path fill="#951922" d="M356.051,191.325c0,0-0.401-9.096-1.559-10.448c-1.158-1.352-2.996-1.065-2.996-1.065
				s3.258,0.259,4.06,2.657c0.802,2.399,2.243,4.083,2.243,4.083l-0.437,4.521L356.051,191.325z"/>
			<path fill="#951922" d="M357.25,195.565c0,0-2.113-4.374-2.592-7.978s-3.073-5.778-4.977-5.864
				c-1.904-0.086-5.96-0.335-9.627,2.666c0,0,0.665-3.017,3.119-4.611c2.453-1.594,5.886-1.49,7.636-1.142
				c1.75,0.349,5.634,2.113,6.462,6.104C358.405,190.203,357.25,195.565,357.25,195.565"/>
			<path fill="#E3B3B5" d="M355.398,207.667c-0.097-0.094-0.174-0.199-0.229-0.313c-0.206-0.197-0.413-0.394-0.619-0.59
				c-4.382-4.223-6.787-9.218-8.896-14.359c-0.511-1.246-0.665-0.803-1.372-3.458c-0.096-0.359-0.451-1.368-0.484-1.884
				c-0.01-0.944-0.73-4.46-0.743-4.656c-0.071-1.051-0.642-1.386-0.642-1.386c-0.111,0.386-0.159,1.452-0.148,1.624
				c-0.226,7.278,1.19,14.323,5.611,20.871c1.053,1.56,2.592,2.911,3.938,4.338c0.494,0.524,1.215,0.972,0.431,1.664
				c0.804-0.428,1.607-0.856,2.411-1.284C354.903,208.044,355.15,207.855,355.398,207.667"/>
			<path fill="#E1B2B2" d="M402.08,123.405c0.626-6.489,1.248-12.979,1.882-19.468c0.077-0.784,0.219-1.561,0.331-2.341
				c0.092-0.296,0.184-0.593,0.275-0.889c-0.203-0.271-0.406-0.542-0.609-0.813l-0.004-0.019c-0.303-0.151-0.606-0.301-0.909-0.452
				c-0.41-0.424-0.82-0.848-1.229-1.272c-0.144-0.097-0.289-0.193-0.433-0.289c-0.057,0.085-0.126,0.162-0.208,0.231l-2.619,22.264
				c0.308,0.347,0.616,0.693,0.924,1.04l0.14-0.044C400.441,122.037,401.26,122.721,402.08,123.405"/>
			<path fill="#BD1C26" d="M394.76,132.288c0,0,5.168-3.272,9.533-2.814c4.365,0.459,7.587,2.525,7.587,2.525l-2.425-11.216
				l-12.693-3.473l0.837-3.7h-1.435l-1.956,11.716L394.76,132.288z"/>
			<path fill="#E1B2B2" d="M398.848,117.881l-1.294,13.089c0,0,0.383-0.383,2.814-1.105c0,0,1.058-6.835,1.712-8.682
				c0.654-1.848,0.485-2.809,0.485-2.809L398.848,117.881z"/>
			<path fill="#BD1C26" d="M396.175,109.778c0,0,2.222-6.998,2.313-7.81c0.091-0.811,0.693,2.123,0.693,2.123l-1.753,7.3
				L396.175,109.778z"/>
		</g>
		<g>
			<g>
				<path fill="#FFFFFF" d="M78.766,42.666c2.317,1.16,3.678,2.988,4.079,5.483c0.401,2.497-0.247,4.771-1.939,6.82
					c-1.16,1.605-2.654,2.497-4.48,2.675c-1.828,0.18-3.678-0.178-5.55-1.07c-2.14-0.98-4.392-1.739-6.753-2.273
					c-2.363-0.535-4.837-0.803-7.422-0.803c-4.814,0-9.117,0.759-12.905,2.273c-3.791,1.517-7.021,3.678-9.695,6.486
					c-2.675,2.809-4.704,6.131-6.085,9.963c-1.383,3.834-2.073,8.07-2.073,12.705c0,5.439,0.779,10.163,2.34,14.175
					c1.559,4.012,3.722,7.355,6.486,10.03c2.762,2.674,6.018,4.66,9.762,5.951c3.745,1.294,7.8,1.939,12.169,1.939
					c2.407,0,4.814-0.222,7.222-0.669c2.407-0.445,4.724-1.247,6.954-2.408c1.872-0.89,3.722-1.204,5.55-0.936
					c1.826,0.268,3.364,1.204,4.614,2.809c1.782,2.229,2.428,4.526,1.939,6.888c-0.491,2.363-1.851,4.078-4.079,5.148
					c-2.319,1.159-4.704,2.118-7.155,2.875c-2.453,0.759-4.927,1.337-7.422,1.738c-2.497,0.401-5.038,0.602-7.623,0.602
					c-6.419,0-12.503-1.025-18.254-3.075s-10.878-5.082-15.379-9.094c-4.503-4.012-8.047-9.027-10.631-15.045
					C9.85,99.835,8.558,92.861,8.558,84.925c0-6.864,1.181-13.193,3.544-18.99c2.361-5.794,5.704-10.809,10.03-15.044
					c4.323-4.233,9.428-7.533,15.312-9.896c5.884-2.361,12.303-3.544,19.257-3.544c3.922,0,7.756,0.447,11.501,1.337
					C71.946,39.68,75.467,40.974,78.766,42.666z"/>
				<path fill="#FFFFFF" d="M154.323,58.848c2.317,0,4.233,0.758,5.75,2.273c1.515,1.517,2.273,3.477,2.273,5.884v56.568
					c0,2.319-0.758,4.258-2.273,5.817c-1.517,1.561-3.433,2.34-5.75,2.34c-2.32,0-4.236-0.779-5.75-2.34
					c-1.517-1.56-2.273-3.498-2.273-5.817v-6.553l2.942,1.203c0,1.16-0.625,2.564-1.872,4.213c-1.25,1.65-2.942,3.276-5.082,4.881
					c-2.14,1.604-4.66,2.965-7.556,4.079c-2.898,1.113-6.041,1.671-9.428,1.671c-6.151,0-11.724-1.581-16.716-4.747
					c-4.994-3.163-8.939-7.532-11.835-13.105c-2.898-5.571-4.346-11.969-4.346-19.19c0-7.31,1.448-13.751,4.346-19.324
					c2.896-5.57,6.797-9.94,11.701-13.105c4.902-3.164,10.341-4.747,16.315-4.747c3.832,0,7.355,0.581,10.564,1.738
					c3.209,1.16,5.995,2.631,8.358,4.413c2.361,1.785,4.189,3.59,5.483,5.416c1.292,1.828,1.939,3.366,1.939,4.614l-4.814,1.738
					v-9.762c0-2.317,0.756-4.256,2.273-5.817C150.087,59.629,152.003,58.848,154.323,58.848z M127.31,118.357
					c3.922,0,7.355-0.979,10.297-2.942c2.942-1.96,5.236-4.635,6.887-8.024c1.648-3.387,2.474-7.175,2.474-11.367
					c0-4.279-0.825-8.112-2.474-11.501c-1.651-3.387-3.945-6.062-6.887-8.024c-2.942-1.96-6.375-2.942-10.297-2.942
					c-3.834,0-7.221,0.982-10.163,2.942c-2.942,1.962-5.239,4.637-6.887,8.024c-1.651,3.389-2.474,7.222-2.474,11.501
					c0,4.191,0.823,7.979,2.474,11.367c1.648,3.389,3.945,6.064,6.887,8.024C120.088,117.378,123.476,118.357,127.31,118.357z"/>
				<path fill="#FFFFFF" d="M217.977,58.848c6.597,0,11.611,1.383,15.044,4.146c3.431,2.764,5.794,6.442,7.088,11.033
					c1.292,4.593,1.939,9.695,1.939,15.312v34.235c0,2.319-0.758,4.258-2.273,5.817c-1.517,1.561-3.433,2.34-5.75,2.34
					c-2.319,0-4.235-0.779-5.75-2.34c-1.517-1.56-2.273-3.498-2.273-5.817V89.338c0-2.942-0.38-5.594-1.137-7.957
					c-0.759-2.361-2.119-4.256-4.079-5.684c-1.962-1.425-4.771-2.14-8.425-2.14c-3.567,0-6.576,0.715-9.027,2.14
					c-2.453,1.427-4.325,3.322-5.616,5.684c-1.293,2.363-1.939,5.015-1.939,7.957v34.235c0,2.319-0.758,4.258-2.273,5.817
					c-1.517,1.561-3.433,2.34-5.75,2.34c-2.319,0-4.235-0.779-5.75-2.34c-1.517-1.56-2.273-3.498-2.273-5.817V68.342
					c0-2.317,0.756-4.256,2.273-5.817c1.515-1.559,3.431-2.34,5.75-2.34c2.317,0,4.233,0.782,5.75,2.34
					c1.515,1.561,2.273,3.5,2.273,5.817v5.75l-2.006-0.401c0.802-1.515,1.96-3.143,3.477-4.881c1.515-1.738,3.297-3.364,5.349-4.881
					c2.05-1.515,4.367-2.742,6.954-3.678C212.137,59.315,214.945,58.848,217.977,58.848z"/>
				<path fill="#FFFFFF" d="M318.006,32.77c2.317,0,4.233,0.759,5.75,2.273c1.515,1.517,2.273,3.477,2.273,5.884v82.646
					c0,2.319-0.758,4.258-2.273,5.817c-1.517,1.561-3.433,2.34-5.75,2.34c-2.32,0-4.236-0.779-5.75-2.34
					c-1.517-1.56-2.273-3.498-2.273-5.817v-6.553l2.942,1.203c0,1.16-0.625,2.564-1.872,4.213c-1.25,1.65-2.942,3.276-5.082,4.881
					c-2.14,1.604-4.66,2.965-7.556,4.079c-2.898,1.113-6.041,1.671-9.428,1.671c-6.151,0-11.724-1.581-16.716-4.747
					c-4.994-3.163-8.939-7.532-11.835-13.105c-2.898-5.571-4.346-11.969-4.346-19.19c0-7.31,1.448-13.751,4.346-19.324
					c2.896-5.57,6.797-9.94,11.701-13.105c4.902-3.164,10.341-4.747,16.315-4.747c3.832,0,7.355,0.581,10.564,1.738
					c3.209,1.16,5.995,2.631,8.358,4.413c2.361,1.785,4.189,3.59,5.483,5.416c1.292,1.828,1.939,3.366,1.939,4.614l-4.814,1.738
					V40.928c0-2.317,0.756-4.256,2.273-5.817C313.77,33.552,315.686,32.77,318.006,32.77z M290.992,118.357
					c3.922,0,7.355-0.979,10.297-2.942c2.942-1.96,5.236-4.635,6.887-8.024c1.648-3.387,2.474-7.175,2.474-11.367
					c0-4.279-0.825-8.112-2.474-11.501c-1.651-3.387-3.945-6.062-6.887-8.024c-2.942-1.96-6.375-2.942-10.297-2.942
					c-3.834,0-7.221,0.982-10.163,2.942c-2.942,1.962-5.239,4.637-6.887,8.024c-1.651,3.389-2.474,7.222-2.474,11.501
					c0,4.191,0.823,7.979,2.474,11.367c1.648,3.389,3.945,6.064,6.887,8.024C283.771,117.378,287.158,118.357,290.992,118.357z"/>
			</g>
			<g>
				<path fill="none" stroke="#201602" stroke-width="10" d="M78.766,42.666c2.317,1.16,3.678,2.988,4.079,5.483
					c0.401,2.497-0.247,4.771-1.939,6.82c-1.16,1.605-2.654,2.497-4.48,2.675c-1.828,0.18-3.678-0.178-5.55-1.07
					c-2.14-0.98-4.392-1.739-6.753-2.273c-2.363-0.535-4.837-0.803-7.422-0.803c-4.814,0-9.117,0.759-12.905,2.273
					c-3.791,1.517-7.021,3.678-9.695,6.486c-2.675,2.809-4.704,6.131-6.085,9.963c-1.383,3.834-2.073,8.07-2.073,12.705
					c0,5.439,0.779,10.163,2.34,14.175c1.559,4.012,3.722,7.355,6.486,10.03c2.762,2.674,6.018,4.66,9.762,5.951
					c3.745,1.294,7.8,1.939,12.169,1.939c2.407,0,4.814-0.222,7.222-0.669c2.407-0.445,4.724-1.247,6.954-2.408
					c1.872-0.89,3.722-1.204,5.55-0.936c1.826,0.268,3.364,1.204,4.614,2.809c1.782,2.229,2.428,4.526,1.939,6.888
					c-0.491,2.363-1.851,4.078-4.079,5.148c-2.319,1.159-4.704,2.118-7.155,2.875c-2.453,0.759-4.927,1.337-7.422,1.738
					c-2.497,0.401-5.038,0.602-7.623,0.602c-6.419,0-12.503-1.025-18.254-3.075s-10.878-5.082-15.379-9.094
					c-4.503-4.012-8.047-9.027-10.631-15.045C9.85,99.835,8.558,92.861,8.558,84.925c0-6.864,1.181-13.193,3.544-18.99
					c2.361-5.794,5.704-10.809,10.03-15.044c4.323-4.233,9.428-7.533,15.312-9.896c5.884-2.361,12.303-3.544,19.257-3.544
					c3.922,0,7.756,0.447,11.501,1.337C71.946,39.68,75.467,40.974,78.766,42.666z"/>
				<path fill="none" stroke="#201602" stroke-width="10" d="M154.323,58.848c2.317,0,4.233,0.758,5.75,2.273
					c1.515,1.517,2.273,3.477,2.273,5.884v56.568c0,2.319-0.758,4.258-2.273,5.817c-1.517,1.561-3.433,2.34-5.75,2.34
					c-2.32,0-4.236-0.779-5.75-2.34c-1.517-1.56-2.273-3.498-2.273-5.817v-6.553l2.942,1.203c0,1.16-0.625,2.564-1.872,4.213
					c-1.25,1.65-2.942,3.276-5.082,4.881c-2.14,1.604-4.66,2.965-7.556,4.079c-2.898,1.113-6.041,1.671-9.428,1.671
					c-6.151,0-11.724-1.581-16.716-4.747c-4.994-3.163-8.939-7.532-11.835-13.105c-2.898-5.571-4.346-11.969-4.346-19.19
					c0-7.31,1.448-13.751,4.346-19.324c2.896-5.57,6.797-9.94,11.701-13.105c4.902-3.164,10.341-4.747,16.315-4.747
					c3.832,0,7.355,0.581,10.564,1.738c3.209,1.16,5.995,2.631,8.358,4.413c2.361,1.785,4.189,3.59,5.483,5.416
					c1.292,1.828,1.939,3.366,1.939,4.614l-4.814,1.738v-9.762c0-2.317,0.756-4.256,2.273-5.817
					C150.087,59.629,152.003,58.848,154.323,58.848z M127.31,118.357c3.922,0,7.355-0.979,10.297-2.942
					c2.942-1.96,5.236-4.635,6.887-8.024c1.648-3.387,2.474-7.175,2.474-11.367c0-4.279-0.825-8.112-2.474-11.501
					c-1.651-3.387-3.945-6.062-6.887-8.024c-2.942-1.96-6.375-2.942-10.297-2.942c-3.834,0-7.221,0.982-10.163,2.942
					c-2.942,1.962-5.239,4.637-6.887,8.024c-1.651,3.389-2.474,7.222-2.474,11.501c0,4.191,0.823,7.979,2.474,11.367
					c1.648,3.389,3.945,6.064,6.887,8.024C120.088,117.378,123.476,118.357,127.31,118.357z"/>
				<path fill="none" stroke="#201602" stroke-width="10" d="M217.977,58.848c6.597,0,11.611,1.383,15.044,4.146
					c3.431,2.764,5.794,6.442,7.088,11.033c1.292,4.593,1.939,9.695,1.939,15.312v34.235c0,2.319-0.758,4.258-2.273,5.817
					c-1.517,1.561-3.433,2.34-5.75,2.34c-2.319,0-4.235-0.779-5.75-2.34c-1.517-1.56-2.273-3.498-2.273-5.817V89.338
					c0-2.942-0.38-5.594-1.137-7.957c-0.759-2.361-2.119-4.256-4.079-5.684c-1.962-1.425-4.771-2.14-8.425-2.14
					c-3.567,0-6.576,0.715-9.027,2.14c-2.453,1.427-4.325,3.322-5.616,5.684c-1.293,2.363-1.939,5.015-1.939,7.957v34.235
					c0,2.319-0.758,4.258-2.273,5.817c-1.517,1.561-3.433,2.34-5.75,2.34c-2.319,0-4.235-0.779-5.75-2.34
					c-1.517-1.56-2.273-3.498-2.273-5.817V68.342c0-2.317,0.756-4.256,2.273-5.817c1.515-1.559,3.431-2.34,5.75-2.34
					c2.317,0,4.233,0.782,5.75,2.34c1.515,1.561,2.273,3.5,2.273,5.817v5.75l-2.006-0.401c0.802-1.515,1.96-3.143,3.477-4.881
					c1.515-1.738,3.297-3.364,5.349-4.881c2.05-1.515,4.367-2.742,6.954-3.678C212.137,59.315,214.945,58.848,217.977,58.848z"/>
				<path fill="none" stroke="#201602" stroke-width="10" d="M318.006,32.77c2.317,0,4.233,0.759,5.75,2.273
					c1.515,1.517,2.273,3.477,2.273,5.884v82.646c0,2.319-0.758,4.258-2.273,5.817c-1.517,1.561-3.433,2.34-5.75,2.34
					c-2.32,0-4.236-0.779-5.75-2.34c-1.517-1.56-2.273-3.498-2.273-5.817v-6.553l2.942,1.203c0,1.16-0.625,2.564-1.872,4.213
					c-1.25,1.65-2.942,3.276-5.082,4.881c-2.14,1.604-4.66,2.965-7.556,4.079c-2.898,1.113-6.041,1.671-9.428,1.671
					c-6.151,0-11.724-1.581-16.716-4.747c-4.994-3.163-8.939-7.532-11.835-13.105c-2.898-5.571-4.346-11.969-4.346-19.19
					c0-7.31,1.448-13.751,4.346-19.324c2.896-5.57,6.797-9.94,11.701-13.105c4.902-3.164,10.341-4.747,16.315-4.747
					c3.832,0,7.355,0.581,10.564,1.738c3.209,1.16,5.995,2.631,8.358,4.413c2.361,1.785,4.189,3.59,5.483,5.416
					c1.292,1.828,1.939,3.366,1.939,4.614l-4.814,1.738V40.928c0-2.317,0.756-4.256,2.273-5.817
					C313.77,33.552,315.686,32.77,318.006,32.77z M290.992,118.357c3.922,0,7.355-0.979,10.297-2.942
					c2.942-1.96,5.236-4.635,6.887-8.024c1.648-3.387,2.474-7.175,2.474-11.367c0-4.279-0.825-8.112-2.474-11.501
					c-1.651-3.387-3.945-6.062-6.887-8.024c-2.942-1.96-6.375-2.942-10.297-2.942c-3.834,0-7.221,0.982-10.163,2.942
					c-2.942,1.962-5.239,4.637-6.887,8.024c-1.651,3.389-2.474,7.222-2.474,11.501c0,4.191,0.823,7.979,2.474,11.367
					c1.648,3.389,3.945,6.064,6.887,8.024C283.771,117.378,287.158,118.357,290.992,118.357z"/>
			</g>
			<g>
				<path fill="#FFFFFF" d="M78.766,42.666c2.317,1.16,3.678,2.988,4.079,5.483c0.401,2.497-0.247,4.771-1.939,6.82
					c-1.16,1.605-2.654,2.497-4.48,2.675c-1.828,0.18-3.678-0.178-5.55-1.07c-2.14-0.98-4.392-1.739-6.753-2.273
					c-2.363-0.535-4.837-0.803-7.422-0.803c-4.814,0-9.117,0.759-12.905,2.273c-3.791,1.517-7.021,3.678-9.695,6.486
					c-2.675,2.809-4.704,6.131-6.085,9.963c-1.383,3.834-2.073,8.07-2.073,12.705c0,5.439,0.779,10.163,2.34,14.175
					c1.559,4.012,3.722,7.355,6.486,10.03c2.762,2.674,6.018,4.66,9.762,5.951c3.745,1.294,7.8,1.939,12.169,1.939
					c2.407,0,4.814-0.222,7.222-0.669c2.407-0.445,4.724-1.247,6.954-2.408c1.872-0.89,3.722-1.204,5.55-0.936
					c1.826,0.268,3.364,1.204,4.614,2.809c1.782,2.229,2.428,4.526,1.939,6.888c-0.491,2.363-1.851,4.078-4.079,5.148
					c-2.319,1.159-4.704,2.118-7.155,2.875c-2.453,0.759-4.927,1.337-7.422,1.738c-2.497,0.401-5.038,0.602-7.623,0.602
					c-6.419,0-12.503-1.025-18.254-3.075s-10.878-5.082-15.379-9.094c-4.503-4.012-8.047-9.027-10.631-15.045
					C9.85,99.835,8.558,92.861,8.558,84.925c0-6.864,1.181-13.193,3.544-18.99c2.361-5.794,5.704-10.809,10.03-15.044
					c4.323-4.233,9.428-7.533,15.312-9.896c5.884-2.361,12.303-3.544,19.257-3.544c3.922,0,7.756,0.447,11.501,1.337
					C71.946,39.68,75.467,40.974,78.766,42.666z"/>
				<path fill="#FFFFFF" d="M154.323,58.848c2.317,0,4.233,0.758,5.75,2.273c1.515,1.517,2.273,3.477,2.273,5.884v56.568
					c0,2.319-0.758,4.258-2.273,5.817c-1.517,1.561-3.433,2.34-5.75,2.34c-2.32,0-4.236-0.779-5.75-2.34
					c-1.517-1.56-2.273-3.498-2.273-5.817v-6.553l2.942,1.203c0,1.16-0.625,2.564-1.872,4.213c-1.25,1.65-2.942,3.276-5.082,4.881
					c-2.14,1.604-4.66,2.965-7.556,4.079c-2.898,1.113-6.041,1.671-9.428,1.671c-6.151,0-11.724-1.581-16.716-4.747
					c-4.994-3.163-8.939-7.532-11.835-13.105c-2.898-5.571-4.346-11.969-4.346-19.19c0-7.31,1.448-13.751,4.346-19.324
					c2.896-5.57,6.797-9.94,11.701-13.105c4.902-3.164,10.341-4.747,16.315-4.747c3.832,0,7.355,0.581,10.564,1.738
					c3.209,1.16,5.995,2.631,8.358,4.413c2.361,1.785,4.189,3.59,5.483,5.416c1.292,1.828,1.939,3.366,1.939,4.614l-4.814,1.738
					v-9.762c0-2.317,0.756-4.256,2.273-5.817C150.087,59.629,152.003,58.848,154.323,58.848z M127.31,118.357
					c3.922,0,7.355-0.979,10.297-2.942c2.942-1.96,5.236-4.635,6.887-8.024c1.648-3.387,2.474-7.175,2.474-11.367
					c0-4.279-0.825-8.112-2.474-11.501c-1.651-3.387-3.945-6.062-6.887-8.024c-2.942-1.96-6.375-2.942-10.297-2.942
					c-3.834,0-7.221,0.982-10.163,2.942c-2.942,1.962-5.239,4.637-6.887,8.024c-1.651,3.389-2.474,7.222-2.474,11.501
					c0,4.191,0.823,7.979,2.474,11.367c1.648,3.389,3.945,6.064,6.887,8.024C120.088,117.378,123.476,118.357,127.31,118.357z"/>
				<path fill="#FFFFFF" d="M217.977,58.848c6.597,0,11.611,1.383,15.044,4.146c3.431,2.764,5.794,6.442,7.088,11.033
					c1.292,4.593,1.939,9.695,1.939,15.312v34.235c0,2.319-0.758,4.258-2.273,5.817c-1.517,1.561-3.433,2.34-5.75,2.34
					c-2.319,0-4.235-0.779-5.75-2.34c-1.517-1.56-2.273-3.498-2.273-5.817V89.338c0-2.942-0.38-5.594-1.137-7.957
					c-0.759-2.361-2.119-4.256-4.079-5.684c-1.962-1.425-4.771-2.14-8.425-2.14c-3.567,0-6.576,0.715-9.027,2.14
					c-2.453,1.427-4.325,3.322-5.616,5.684c-1.293,2.363-1.939,5.015-1.939,7.957v34.235c0,2.319-0.758,4.258-2.273,5.817
					c-1.517,1.561-3.433,2.34-5.75,2.34c-2.319,0-4.235-0.779-5.75-2.34c-1.517-1.56-2.273-3.498-2.273-5.817V68.342
					c0-2.317,0.756-4.256,2.273-5.817c1.515-1.559,3.431-2.34,5.75-2.34c2.317,0,4.233,0.782,5.75,2.34
					c1.515,1.561,2.273,3.5,2.273,5.817v5.75l-2.006-0.401c0.802-1.515,1.96-3.143,3.477-4.881c1.515-1.738,3.297-3.364,5.349-4.881
					c2.05-1.515,4.367-2.742,6.954-3.678C212.137,59.315,214.945,58.848,217.977,58.848z"/>
				<path fill="#FFFFFF" d="M318.006,32.77c2.317,0,4.233,0.759,5.75,2.273c1.515,1.517,2.273,3.477,2.273,5.884v82.646
					c0,2.319-0.758,4.258-2.273,5.817c-1.517,1.561-3.433,2.34-5.75,2.34c-2.32,0-4.236-0.779-5.75-2.34
					c-1.517-1.56-2.273-3.498-2.273-5.817v-6.553l2.942,1.203c0,1.16-0.625,2.564-1.872,4.213c-1.25,1.65-2.942,3.276-5.082,4.881
					c-2.14,1.604-4.66,2.965-7.556,4.079c-2.898,1.113-6.041,1.671-9.428,1.671c-6.151,0-11.724-1.581-16.716-4.747
					c-4.994-3.163-8.939-7.532-11.835-13.105c-2.898-5.571-4.346-11.969-4.346-19.19c0-7.31,1.448-13.751,4.346-19.324
					c2.896-5.57,6.797-9.94,11.701-13.105c4.902-3.164,10.341-4.747,16.315-4.747c3.832,0,7.355,0.581,10.564,1.738
					c3.209,1.16,5.995,2.631,8.358,4.413c2.361,1.785,4.189,3.59,5.483,5.416c1.292,1.828,1.939,3.366,1.939,4.614l-4.814,1.738
					V40.928c0-2.317,0.756-4.256,2.273-5.817C313.77,33.552,315.686,32.77,318.006,32.77z M290.992,118.357
					c3.922,0,7.355-0.979,10.297-2.942c2.942-1.96,5.236-4.635,6.887-8.024c1.648-3.387,2.474-7.175,2.474-11.367
					c0-4.279-0.825-8.112-2.474-11.501c-1.651-3.387-3.945-6.062-6.887-8.024c-2.942-1.96-6.375-2.942-10.297-2.942
					c-3.834,0-7.221,0.982-10.163,2.942c-2.942,1.962-5.239,4.637-6.887,8.024c-1.651,3.389-2.474,7.222-2.474,11.501
					c0,4.191,0.823,7.979,2.474,11.367c1.648,3.389,3.945,6.064,6.887,8.024C283.771,117.378,287.158,118.357,290.992,118.357z"/>
			</g>
		</g>
	</g>
</g>
<g>
</g>
<g>
</g>
<g>
</g>
<g>
</g>
<g>
</g>
<g>
</g>
</svg>
