<?xml version="1.0" encoding="utf-8"?>
<!-- Generator: Adobe Illustrator 17.0.0, SVG Export Plug-In . SVG Version: 6.00 Build 0)  -->
<!DOCTYPE svg PUBLIC "-//W3C//DTD SVG 1.1//EN" "http://www.w3.org/Graphics/SVG/1.1/DTD/svg11.dtd">
<svg version="1.1" id="Слой_1" xmlns="http://www.w3.org/2000/svg" xmlns:xlink="http://www.w3.org/1999/xlink" x="0px" y="0px"
	 width="841.89px" height="595.28px" viewBox="0 0 841.89 595.28" enable-background="new 0 0 841.89 595.28" xml:space="preserve">
<g>
	<g>
		<g>
			<g>
				<path fill="#FFFFFF" d="M68.744,443.183c-8.923,0-16.954-1.126-24.09-3.37c-7.14-2.244-13.957-6.191-20.458-11.841
					c-1.658-1.411-2.934-3.015-3.824-4.813c-0.893-1.796-1.338-3.592-1.338-5.391c0-2.952,1.052-5.551,3.155-7.798
					c2.103-2.245,4.747-3.37,7.935-3.37c2.42,0,4.589,0.771,6.5,2.311c4.843,3.98,9.655,6.998,14.435,9.05
					c4.78,2.055,10.674,3.08,17.686,3.08c4.714,0,9.048-0.737,13.001-2.214c3.949-1.475,7.137-3.466,9.56-5.969
					c2.42-2.503,3.632-5.358,3.632-8.568c0-3.851-1.147-7.124-3.441-9.819c-2.294-2.695-5.801-4.973-10.516-6.835
					c-4.717-1.859-10.707-3.303-17.972-4.332c-6.883-1.026-12.938-2.6-18.164-4.717c-5.228-2.118-9.592-4.813-13.097-8.087
					c-3.507-3.273-6.151-7.124-7.934-11.553c-1.787-4.428-2.677-9.401-2.677-14.922c0-8.342,2.133-15.466,6.405-21.371
					c4.269-5.902,10.038-10.397,17.303-13.478c7.266-3.081,15.295-4.621,24.09-4.621c8.284,0,15.965,1.251,23.039,3.754
					c7.074,2.503,12.84,5.681,17.303,9.531c3.695,2.954,5.544,6.354,5.544,10.204c0,2.825-1.084,5.392-3.25,7.702
					c-2.168,2.31-4.717,3.465-7.647,3.465c-1.912,0-3.633-0.577-5.162-1.732c-2.041-1.796-4.78-3.496-8.221-5.103
					c-3.442-1.604-7.074-2.951-10.898-4.043c-3.824-1.089-7.394-1.637-10.707-1.637c-5.482,0-10.104,0.707-13.861,2.118
					c-3.761,1.414-6.596,3.339-8.508,5.776c-1.912,2.439-2.868,5.265-2.868,8.472c0,3.851,1.114,7.027,3.346,9.53
					c2.229,2.503,5.449,4.494,9.655,5.969c4.206,1.478,9.24,2.792,15.104,3.947c7.647,1.414,14.369,3.08,20.17,5.006
					c5.799,1.925,10.611,4.398,14.435,7.413c3.824,3.017,6.692,6.805,8.604,11.359c1.912,4.558,2.868,10.108,2.868,16.654
					c0,8.346-2.294,15.532-6.883,21.564c-4.589,6.035-10.611,10.656-18.068,13.863S77.41,443.183,68.744,443.183z"/>
				<path fill="#FFFFFF" d="M139.1,340.174h45.313c3.059,0,5.607,1.029,7.648,3.081c2.037,2.055,3.059,4.621,3.059,7.701
					c0,2.954-1.021,5.424-3.059,7.413c-2.041,1.991-4.589,2.984-7.648,2.984H139.1c-3.059,0-5.61-1.026-7.648-3.081
					c-2.04-2.052-3.059-4.621-3.059-7.701c0-2.951,1.019-5.421,3.059-7.413C133.489,341.17,136.041,340.174,139.1,340.174z
					 M159.557,316.106c3.313,0,6.022,1.125,8.125,3.37c2.104,2.247,3.155,5.039,3.155,8.375v85.68c0,1.799,0.35,3.273,1.052,4.429
					c0.699,1.155,1.655,1.991,2.868,2.503c1.21,0.515,2.516,0.77,3.919,0.77c1.53,0,2.931-0.288,4.207-0.866
					c1.272-0.577,2.739-0.866,4.397-0.866c1.784,0,3.409,0.836,4.875,2.503c1.464,1.67,2.199,3.98,2.199,6.932
					c0,3.595-1.945,6.546-5.831,8.856c-3.89,2.311-8.063,3.466-12.523,3.466c-2.677,0-5.64-0.223-8.89-0.674
					c-3.25-0.448-6.31-1.54-9.177-3.273c-2.868-1.732-5.258-4.396-7.17-7.99c-1.912-3.592-2.868-8.535-2.868-14.825v-86.643
					c0-3.336,1.114-6.128,3.346-8.375C153.469,317.231,156.241,316.106,159.557,316.106z"/>
			</g>
			<g>
				<path fill="none" stroke="#201602" stroke-width="10" d="M68.744,443.183c-8.923,0-16.954-1.126-24.09-3.37
					c-7.14-2.244-13.957-6.191-20.458-11.841c-1.658-1.411-2.934-3.015-3.824-4.813c-0.893-1.796-1.338-3.592-1.338-5.391
					c0-2.952,1.052-5.551,3.155-7.798c2.103-2.245,4.747-3.37,7.935-3.37c2.42,0,4.589,0.771,6.5,2.311
					c4.843,3.98,9.655,6.998,14.435,9.05c4.78,2.055,10.674,3.08,17.686,3.08c4.714,0,9.048-0.737,13.001-2.214
					c3.949-1.475,7.137-3.466,9.56-5.969c2.42-2.503,3.632-5.358,3.632-8.568c0-3.851-1.147-7.124-3.441-9.819
					c-2.294-2.695-5.801-4.973-10.516-6.835c-4.717-1.859-10.707-3.303-17.972-4.332c-6.883-1.026-12.938-2.6-18.164-4.717
					c-5.228-2.118-9.592-4.813-13.097-8.087c-3.507-3.273-6.151-7.124-7.934-11.553c-1.787-4.428-2.677-9.401-2.677-14.922
					c0-8.342,2.133-15.466,6.405-21.371c4.269-5.902,10.038-10.397,17.303-13.478c7.266-3.081,15.295-4.621,24.09-4.621
					c8.284,0,15.965,1.251,23.039,3.754c7.074,2.503,12.84,5.681,17.303,9.531c3.695,2.954,5.544,6.354,5.544,10.204
					c0,2.825-1.084,5.392-3.25,7.702c-2.168,2.31-4.717,3.465-7.647,3.465c-1.912,0-3.633-0.577-5.162-1.732
					c-2.041-1.796-4.78-3.496-8.221-5.103c-3.442-1.604-7.074-2.951-10.898-4.043c-3.824-1.089-7.394-1.637-10.707-1.637
					c-5.482,0-10.104,0.707-13.861,2.118c-3.761,1.414-6.596,3.339-8.508,5.776c-1.912,2.439-2.868,5.265-2.868,8.472
					c0,3.851,1.114,7.027,3.346,9.53c2.229,2.503,5.449,4.494,9.655,5.969c4.206,1.478,9.24,2.792,15.104,3.947
					c7.647,1.414,14.369,3.08,20.17,5.006c5.799,1.925,10.611,4.398,14.435,7.413c3.824,3.017,6.692,6.805,8.604,11.359
					c1.912,4.558,2.868,10.108,2.868,16.654c0,8.346-2.294,15.532-6.883,21.564c-4.589,6.035-10.611,10.656-18.068,13.863
					S77.41,443.183,68.744,443.183z"/>
				<path fill="none" stroke="#201602" stroke-width="10" d="M139.1,340.174h45.313c3.059,0,5.607,1.029,7.648,3.081
					c2.037,2.055,3.059,4.621,3.059,7.701c0,2.954-1.021,5.424-3.059,7.413c-2.041,1.991-4.589,2.984-7.648,2.984H139.1
					c-3.059,0-5.61-1.026-7.648-3.081c-2.04-2.052-3.059-4.621-3.059-7.701c0-2.951,1.019-5.421,3.059-7.413
					C133.489,341.17,136.041,340.174,139.1,340.174z M159.557,316.106c3.313,0,6.022,1.125,8.125,3.37
					c2.104,2.247,3.155,5.039,3.155,8.375v85.68c0,1.799,0.35,3.273,1.052,4.429c0.699,1.155,1.655,1.991,2.868,2.503
					c1.21,0.515,2.516,0.77,3.919,0.77c1.53,0,2.931-0.288,4.207-0.866c1.272-0.577,2.739-0.866,4.397-0.866
					c1.784,0,3.409,0.836,4.875,2.503c1.464,1.67,2.199,3.98,2.199,6.932c0,3.595-1.945,6.546-5.831,8.856
					c-3.89,2.311-8.063,3.466-12.523,3.466c-2.677,0-5.64-0.223-8.89-0.674c-3.25-0.448-6.31-1.54-9.177-3.273
					c-2.868-1.732-5.258-4.396-7.17-7.99c-1.912-3.592-2.868-8.535-2.868-14.825v-86.643c0-3.336,1.114-6.128,3.346-8.375
					C153.469,317.231,156.241,316.106,159.557,316.106z"/>
			</g>
			<g>
				<path fill="#D5BE97" d="M68.744,443.183c-8.923,0-16.954-1.126-24.09-3.37c-7.14-2.244-13.957-6.191-20.458-11.841
					c-1.658-1.411-2.934-3.015-3.824-4.813c-0.893-1.796-1.338-3.592-1.338-5.391c0-2.952,1.052-5.551,3.155-7.798
					c2.103-2.245,4.747-3.37,7.935-3.37c2.42,0,4.589,0.771,6.5,2.311c4.843,3.98,9.655,6.998,14.435,9.05
					c4.78,2.055,10.674,3.08,17.686,3.08c4.714,0,9.048-0.737,13.001-2.214c3.949-1.475,7.137-3.466,9.56-5.969
					c2.42-2.503,3.632-5.358,3.632-8.568c0-3.851-1.147-7.124-3.441-9.819c-2.294-2.695-5.801-4.973-10.516-6.835
					c-4.717-1.859-10.707-3.303-17.972-4.332c-6.883-1.026-12.938-2.6-18.164-4.717c-5.228-2.118-9.592-4.813-13.097-8.087
					c-3.507-3.273-6.151-7.124-7.934-11.553c-1.787-4.428-2.677-9.401-2.677-14.922c0-8.342,2.133-15.466,6.405-21.371
					c4.269-5.902,10.038-10.397,17.303-13.478c7.266-3.081,15.295-4.621,24.09-4.621c8.284,0,15.965,1.251,23.039,3.754
					c7.074,2.503,12.84,5.681,17.303,9.531c3.695,2.954,5.544,6.354,5.544,10.204c0,2.825-1.084,5.392-3.25,7.702
					c-2.168,2.31-4.717,3.465-7.647,3.465c-1.912,0-3.633-0.577-5.162-1.732c-2.041-1.796-4.78-3.496-8.221-5.103
					c-3.442-1.604-7.074-2.951-10.898-4.043c-3.824-1.089-7.394-1.637-10.707-1.637c-5.482,0-10.104,0.707-13.861,2.118
					c-3.761,1.414-6.596,3.339-8.508,5.776c-1.912,2.439-2.868,5.265-2.868,8.472c0,3.851,1.114,7.027,3.346,9.53
					c2.229,2.503,5.449,4.494,9.655,5.969c4.206,1.478,9.24,2.792,15.104,3.947c7.647,1.414,14.369,3.08,20.17,5.006
					c5.799,1.925,10.611,4.398,14.435,7.413c3.824,3.017,6.692,6.805,8.604,11.359c1.912,4.558,2.868,10.108,2.868,16.654
					c0,8.346-2.294,15.532-6.883,21.564c-4.589,6.035-10.611,10.656-18.068,13.863S77.41,443.183,68.744,443.183z"/>
				<path fill="#D5BE97" d="M139.1,340.174h45.313c3.059,0,5.607,1.029,7.648,3.081c2.037,2.055,3.059,4.621,3.059,7.701
					c0,2.954-1.021,5.424-3.059,7.413c-2.041,1.991-4.589,2.984-7.648,2.984H139.1c-3.059,0-5.61-1.026-7.648-3.081
					c-2.04-2.052-3.059-4.621-3.059-7.701c0-2.951,1.019-5.421,3.059-7.413C133.489,341.17,136.041,340.174,139.1,340.174z
					 M159.557,316.106c3.313,0,6.022,1.125,8.125,3.37c2.104,2.247,3.155,5.039,3.155,8.375v85.68c0,1.799,0.35,3.273,1.052,4.429
					c0.699,1.155,1.655,1.991,2.868,2.503c1.21,0.515,2.516,0.77,3.919,0.77c1.53,0,2.931-0.288,4.207-0.866
					c1.272-0.577,2.739-0.866,4.397-0.866c1.784,0,3.409,0.836,4.875,2.503c1.464,1.67,2.199,3.98,2.199,6.932
					c0,3.595-1.945,6.546-5.831,8.856c-3.89,2.311-8.063,3.466-12.523,3.466c-2.677,0-5.64-0.223-8.89-0.674
					c-3.25-0.448-6.31-1.54-9.177-3.273c-2.868-1.732-5.258-4.396-7.17-7.99c-1.912-3.592-2.868-8.535-2.868-14.825v-86.643
					c0-3.336,1.114-6.128,3.346-8.375C153.469,317.231,156.241,316.106,159.557,316.106z"/>
			</g>
		</g>
		<g>
			<path fill="#FFFFFF" d="M361.442,543.342c1.223,2.025,3.855,2.669,5.865,1.437c2.01-1.233,2.65-3.882,1.427-5.906
				l-61.348-101.502c-1.163,0.817-2.353,1.604-3.574,2.353s-2.462,1.451-3.717,2.116L361.442,543.342z"/>
			<path fill="#DC453F" d="M210.18,367.599c-3.817,15.8-1.295,32.15,7.1,46.04c8.394,13.89,21.658,23.656,37.347,27.5
				c12.087,2.961,24.498,2.13,35.867-2.272l-12.386-20.493c-0.957-1.583-0.458-3.648,1.114-4.612l-3.465-5.733
				c-1.572,0.963-3.622,0.461-4.58-1.122l-2.31-3.822c-3.134-5.186-1.495-11.973,3.655-15.13c5.15-3.156,11.889-1.505,15.024,3.681
				l21.627,35.782c9.105-8.147,15.539-18.867,18.48-31.039c3.817-15.8,1.296-32.151-7.1-46.04
				c-8.394-13.89-21.658-23.656-37.348-27.5c-15.689-3.844-31.925-1.305-45.718,7.15C223.695,338.443,213.998,351.8,210.18,367.599z
				 M276.916,328.454c15.823,2.409,29.654,11.658,37.944,25.375c0.957,1.583,0.458,3.648-1.114,4.612
				c-0.786,0.482-1.692,0.597-2.52,0.394c-0.829-0.203-1.581-0.724-2.059-1.516c-7.261-12.014-19.38-20.116-33.247-22.228
				c-1.817-0.281-3.072-1.987-2.797-3.82C273.398,329.438,275.097,328.177,276.916,328.454z M240.954,335.723
				c6.691-4.101,14.011-6.634,21.756-7.529c1.828-0.211,3.481,1.11,3.691,2.952c0.21,1.842-1.102,3.505-2.931,3.717
				c-6.78,0.783-13.19,3.002-19.051,6.594c-0.786,0.482-1.692,0.597-2.52,0.394c-0.829-0.203-1.581-0.724-2.059-1.516
				C238.883,338.751,239.381,336.686,240.954,335.723z"/>
			<path fill="#EBB3B0" d="M279.224,413.764c1.572-0.963,3.622-0.461,4.58,1.122l12.82,21.211c1.259-0.656,2.501-1.356,3.724-2.106
				c1.222-0.749,2.411-1.539,3.568-2.363l-22.061-36.5c-1.223-2.025-3.855-2.669-5.864-1.437c-2.01,1.233-2.65,3.882-1.427,5.906
				l2.31,3.822c0.957,1.583,0.458,3.648-1.114,4.612L279.224,413.764z"/>
			<path fill="#FFFFFF" d="M240.954,335.723c-1.573,0.963-2.071,3.028-1.114,4.611c0.479,0.792,1.231,1.313,2.059,1.516
				c0.829,0.203,1.734,0.088,2.52-0.394c5.861-3.592,12.271-5.811,19.051-6.594c1.828-0.212,3.141-1.876,2.931-3.717
				c-0.21-1.841-1.863-3.163-3.691-2.952C254.965,329.089,247.645,331.622,240.954,335.723z"/>
			<path fill="#FFFFFF" d="M273.123,331.27c-0.275,1.833,0.98,3.54,2.797,3.82c13.867,2.112,25.986,10.214,33.247,22.228
				c0.479,0.792,1.231,1.313,2.059,1.516c0.829,0.203,1.734,0.088,2.52-0.394c1.572-0.964,2.071-3.028,1.114-4.612
				c-8.29-13.716-22.121-22.966-37.944-25.375C275.097,328.177,273.398,329.438,273.123,331.27z"/>
			<path fill="#3D2A20" d="M203.704,366.014c-4.238,17.542-1.438,35.695,7.883,51.117c9.321,15.421,24.046,26.264,41.466,30.531
				c13.824,3.387,28.03,2.306,40.959-2.975l61.736,102.145c1.567,2.593,4.036,4.302,6.756,4.968c2.72,0.666,5.692,0.29,8.267-1.288
				c5.15-3.157,6.789-9.944,3.655-15.13l-61.735-102.146c10.597-9.14,18.076-21.35,21.439-35.271
				c4.238-17.542,1.438-35.696-7.883-51.117c-9.321-15.421-24.047-26.264-41.466-30.532c-17.419-4.268-35.446-1.449-50.759,7.938
				S207.942,348.472,203.704,366.014z M217.281,413.64c-8.396-13.89-10.917-30.24-7.1-46.04c3.817-15.8,13.515-29.157,27.308-37.611
				c13.792-8.455,30.029-10.993,45.718-7.15c15.69,3.844,28.953,13.61,37.348,27.5c8.395,13.889,10.917,30.24,7.1,46.04
				c-2.94,12.172-9.375,22.891-18.48,31.039l-21.627-35.782c-3.135-5.185-9.874-6.836-15.024-3.681
				c-5.15,3.157-6.79,9.944-3.655,15.13l2.31,3.822c0.957,1.583,3.007,2.085,4.58,1.122c1.572-0.964,2.071-3.028,1.114-4.612
				l-2.31-3.822c-1.224-2.024-0.584-4.674,1.427-5.906c2.01-1.232,4.641-0.588,5.864,1.437l22.061,36.5
				c-1.157,0.825-2.345,1.614-3.568,2.363s-2.465,1.45-3.724,2.106l-12.82-21.211c-0.957-1.583-3.007-2.085-4.58-1.122
				c-1.572,0.964-2.071,3.028-1.114,4.612l12.386,20.493c-11.369,4.402-23.78,5.233-35.867,2.272
				C238.939,437.296,225.675,427.53,217.281,413.64z M361.441,543.342L300.095,441.84c1.254-0.665,2.495-1.367,3.717-2.116
				s2.411-1.536,3.574-2.353l61.347,101.502c1.224,2.024,0.584,4.674-1.427,5.906C365.297,546.011,362.665,545.367,361.441,543.342z
				"/>
		</g>
		<g>
			<g>
				<path fill="#FFFFFF" d="M372.083,440.491c-3.316,0-6.055-1.122-8.221-3.369c-2.169-2.244-3.25-5.036-3.25-8.376v-79.519
					c0-3.336,1.081-6.128,3.25-8.375c2.166-2.244,4.905-3.369,8.221-3.369c3.313,0,6.053,1.125,8.221,3.369
					c2.166,2.247,3.25,5.039,3.25,8.375v18.099l-1.338-12.899c1.401-3.081,3.217-5.807,5.449-8.184
					c2.229-2.373,4.747-4.362,7.552-5.969c2.802-1.604,5.799-2.791,8.986-3.562c3.185-0.771,6.372-1.155,9.56-1.155
					c3.824,0,7.041,1.092,9.655,3.273c2.611,2.184,3.92,4.75,3.92,7.701c0,4.236-1.084,7.286-3.25,9.146
					c-2.169,1.862-4.526,2.792-7.075,2.792c-2.423,0-4.622-0.448-6.596-1.348c-1.978-0.896-4.239-1.348-6.787-1.348
					c-2.294,0-4.622,0.547-6.979,1.637c-2.36,1.092-4.526,2.791-6.5,5.102c-1.978,2.311-3.57,5.169-4.78,8.568
					c-1.213,3.402-1.816,7.413-1.816,12.033v45.632c0,3.34-1.084,6.132-3.25,8.376C378.136,439.369,375.396,440.491,372.083,440.491
					z"/>
				<path fill="#FFFFFF" d="M487.564,442.417c-10.836,0-20.237-2.277-28.201-6.836c-7.968-4.555-14.086-10.749-18.354-18.579
					c-4.272-7.828-6.405-16.686-6.405-26.57c0-11.553,2.324-21.402,6.979-29.556c4.651-8.149,10.737-14.407,18.259-18.772
					c7.52-4.361,15.487-6.546,23.899-6.546c6.5,0,12.648,1.348,18.45,4.043c5.798,2.696,10.928,6.388,15.391,11.071
					c4.46,4.688,7.997,10.108,10.611,16.27c2.611,6.161,3.919,12.708,3.919,19.639c-0.128,3.081-1.338,5.584-3.632,7.51
					c-2.295,1.925-4.972,2.888-8.03,2.888h-73.035l-5.736-19.254h70.168l-4.206,3.851v-5.198c-0.258-3.722-1.563-7.058-3.92-10.012
					c-2.36-2.952-5.291-5.295-8.795-7.028c-3.507-1.732-7.235-2.599-11.185-2.599c-3.824,0-7.394,0.514-10.707,1.54
					c-3.315,1.028-6.184,2.762-8.604,5.198c-2.423,2.44-4.335,5.713-5.735,9.819c-1.404,4.109-2.104,9.309-2.104,15.596
					c0,6.932,1.434,12.804,4.302,17.617s6.563,8.472,11.089,10.975c4.523,2.504,9.336,3.755,14.436,3.755
					c4.714,0,8.475-0.385,11.28-1.155c2.802-0.771,5.066-1.699,6.787-2.792c1.721-1.089,3.28-2.021,4.685-2.792
					c2.294-1.155,4.46-1.732,6.5-1.732c2.803,0,5.13,0.963,6.979,2.888c1.847,1.926,2.772,4.173,2.772,6.739
					c0,3.466-1.786,6.612-5.354,9.435c-3.315,2.825-7.967,5.295-13.957,7.412C500.117,441.357,493.937,442.417,487.564,442.417z"/>
			</g>
			<g>
				<path fill="none" stroke="#201602" stroke-width="10" d="M372.083,440.491c-3.316,0-6.055-1.122-8.221-3.369
					c-2.169-2.244-3.25-5.036-3.25-8.376v-79.519c0-3.336,1.081-6.128,3.25-8.375c2.166-2.244,4.905-3.369,8.221-3.369
					c3.313,0,6.053,1.125,8.221,3.369c2.166,2.247,3.25,5.039,3.25,8.375v18.099l-1.338-12.899c1.401-3.081,3.217-5.807,5.449-8.184
					c2.229-2.373,4.747-4.362,7.552-5.969c2.802-1.604,5.799-2.791,8.986-3.562c3.185-0.771,6.372-1.155,9.56-1.155
					c3.824,0,7.041,1.092,9.655,3.273c2.611,2.184,3.92,4.75,3.92,7.701c0,4.236-1.084,7.286-3.25,9.146
					c-2.169,1.862-4.526,2.792-7.075,2.792c-2.423,0-4.622-0.448-6.596-1.348c-1.978-0.896-4.239-1.348-6.787-1.348
					c-2.294,0-4.622,0.547-6.979,1.637c-2.36,1.092-4.526,2.791-6.5,5.102c-1.978,2.311-3.57,5.169-4.78,8.568
					c-1.213,3.402-1.816,7.413-1.816,12.033v45.632c0,3.34-1.084,6.132-3.25,8.376C378.136,439.369,375.396,440.491,372.083,440.491
					z"/>
				<path fill="none" stroke="#201602" stroke-width="10" d="M487.564,442.417c-10.836,0-20.237-2.277-28.201-6.836
					c-7.968-4.555-14.086-10.749-18.354-18.579c-4.272-7.828-6.405-16.686-6.405-26.57c0-11.553,2.324-21.402,6.979-29.556
					c4.651-8.149,10.737-14.407,18.259-18.772c7.52-4.361,15.487-6.546,23.899-6.546c6.5,0,12.648,1.348,18.45,4.043
					c5.798,2.696,10.928,6.388,15.391,11.071c4.46,4.688,7.997,10.108,10.611,16.27c2.611,6.161,3.919,12.708,3.919,19.639
					c-0.128,3.081-1.338,5.584-3.632,7.51c-2.295,1.925-4.972,2.888-8.03,2.888h-73.035l-5.736-19.254h70.168l-4.206,3.851v-5.198
					c-0.258-3.722-1.563-7.058-3.92-10.012c-2.36-2.952-5.291-5.295-8.795-7.028c-3.507-1.732-7.235-2.599-11.185-2.599
					c-3.824,0-7.394,0.514-10.707,1.54c-3.315,1.028-6.184,2.762-8.604,5.198c-2.423,2.44-4.335,5.713-5.735,9.819
					c-1.404,4.109-2.104,9.309-2.104,15.596c0,6.932,1.434,12.804,4.302,17.617s6.563,8.472,11.089,10.975
					c4.523,2.504,9.336,3.755,14.436,3.755c4.714,0,8.475-0.385,11.28-1.155c2.802-0.771,5.066-1.699,6.787-2.792
					c1.721-1.089,3.28-2.021,4.685-2.792c2.294-1.155,4.46-1.732,6.5-1.732c2.803,0,5.13,0.963,6.979,2.888
					c1.847,1.926,2.772,4.173,2.772,6.739c0,3.466-1.786,6.612-5.354,9.435c-3.315,2.825-7.967,5.295-13.957,7.412
					C500.117,441.357,493.937,442.417,487.564,442.417z"/>
			</g>
			<g>
				<path fill="#D5BE97" d="M372.083,440.491c-3.316,0-6.055-1.122-8.221-3.369c-2.169-2.244-3.25-5.036-3.25-8.376v-79.519
					c0-3.336,1.081-6.128,3.25-8.375c2.166-2.244,4.905-3.369,8.221-3.369c3.313,0,6.053,1.125,8.221,3.369
					c2.166,2.247,3.25,5.039,3.25,8.375v18.099l-1.338-12.899c1.401-3.081,3.217-5.807,5.449-8.184
					c2.229-2.373,4.747-4.362,7.552-5.969c2.802-1.604,5.799-2.791,8.986-3.562c3.185-0.771,6.372-1.155,9.56-1.155
					c3.824,0,7.041,1.092,9.655,3.273c2.611,2.184,3.92,4.75,3.92,7.701c0,4.236-1.084,7.286-3.25,9.146
					c-2.169,1.862-4.526,2.792-7.075,2.792c-2.423,0-4.622-0.448-6.596-1.348c-1.978-0.896-4.239-1.348-6.787-1.348
					c-2.294,0-4.622,0.547-6.979,1.637c-2.36,1.092-4.526,2.791-6.5,5.102c-1.978,2.311-3.57,5.169-4.78,8.568
					c-1.213,3.402-1.816,7.413-1.816,12.033v45.632c0,3.34-1.084,6.132-3.25,8.376C378.136,439.369,375.396,440.491,372.083,440.491
					z"/>
				<path fill="#D5BE97" d="M487.564,442.417c-10.836,0-20.237-2.277-28.201-6.836c-7.968-4.555-14.086-10.749-18.354-18.579
					c-4.272-7.828-6.405-16.686-6.405-26.57c0-11.553,2.324-21.402,6.979-29.556c4.651-8.149,10.737-14.407,18.259-18.772
					c7.52-4.361,15.487-6.546,23.899-6.546c6.5,0,12.648,1.348,18.45,4.043c5.798,2.696,10.928,6.388,15.391,11.071
					c4.46,4.688,7.997,10.108,10.611,16.27c2.611,6.161,3.919,12.708,3.919,19.639c-0.128,3.081-1.338,5.584-3.632,7.51
					c-2.295,1.925-4.972,2.888-8.03,2.888h-73.035l-5.736-19.254h70.168l-4.206,3.851v-5.198c-0.258-3.722-1.563-7.058-3.92-10.012
					c-2.36-2.952-5.291-5.295-8.795-7.028c-3.507-1.732-7.235-2.599-11.185-2.599c-3.824,0-7.394,0.514-10.707,1.54
					c-3.315,1.028-6.184,2.762-8.604,5.198c-2.423,2.44-4.335,5.713-5.735,9.819c-1.404,4.109-2.104,9.309-2.104,15.596
					c0,6.932,1.434,12.804,4.302,17.617s6.563,8.472,11.089,10.975c4.523,2.504,9.336,3.755,14.436,3.755
					c4.714,0,8.475-0.385,11.28-1.155c2.802-0.771,5.066-1.699,6.787-2.792c1.721-1.089,3.28-2.021,4.685-2.792
					c2.294-1.155,4.46-1.732,6.5-1.732c2.803,0,5.13,0.963,6.979,2.888c1.847,1.926,2.772,4.173,2.772,6.739
					c0,3.466-1.786,6.612-5.354,9.435c-3.315,2.825-7.967,5.295-13.957,7.412C500.117,441.357,493.937,442.417,487.564,442.417z"/>
			</g>
		</g>
	</g>
	<g>
		<g>
			<path fill="#C7171E" d="M701.786,416.709c1.114,0.936,2.227,1.873,3.34,2.809c0.27-0.178,0.54-0.357,0.811-0.535
				c-1.018-1.019-2.037-2.038-3.055-3.056C702.516,416.188,702.151,416.448,701.786,416.709"/>
			<path fill="#B54C59" d="M692.435,379.291l1.579-0.914c0,0-0.186-2.48-1.657-3.024
				C692.358,375.353,692.039,376.829,692.435,379.291"/>
			<path fill="#B99FB0" d="M733.137,132.446c0.497-4.205,1.178-8.398,1.445-12.616c0.344-5.437,0.949-10.914,0.389-16.337
				c-1.235-11.966-18.176-18.447-31.197-12.063c-2.376,1.164-4.003,3.184-5.976,4.808c9.17,0.621,15.841,3.954,18.399,10.867
				c1.759,4.754,2.627,9.679,3.892,14.527c0.704,0.562,1.408,1.123,2.112,1.685c1.422,1.2,2.844,2.4,4.266,3.599
				C728.691,128.761,730.914,130.604,733.137,132.446"/>
			<path fill="#911720" d="M733.137,132.446c-2.223-1.843-4.447-3.685-6.669-5.528c-1.422-1.2-2.844-2.399-4.266-3.599
				c-0.704-0.562-1.408-1.123-2.112-1.685c-1.778-1.331-3.556-2.662-5.334-3.993c-0.202,0.114-0.427,0.144-0.674,0.087
				c-0.16,0.159-0.356,0.288-0.587,0.386c0.219,0.26,0.438,0.52,0.657,0.78c1.179,1.016,2.357,2.031,3.536,3.046
				c0.479,0.409,0.959,0.818,1.439,1.228c0.227,0.577,0.454,1.154,0.681,1.73c0.461,4.007,0.921,8.013,1.382,12.019
				c0.366,4.245,0.913,8.491,1.05,12.736c0.15,4.607-0.457,9.225,0.017,13.811c0.226,2.186-0.439,3.524-2.449,4.725
				c2.857,2.759,5.687,5.535,8.626,8.244c0.215,0.199,1.22-0.089,1.858-0.15C731.239,161.67,732.189,147.058,733.137,132.446"/>
			<path fill="#AF121E" d="M719.127,123.167c-0.48-0.409-0.959-0.818-1.439-1.228c-3.379,1.152-3.562-1.307-5.377-2.383
				c0.952-0.343,1.397-0.504,1.841-0.664c-0.219-0.26-0.438-0.52-0.657-0.78c-0.98-0.757-1.959-1.515-2.939-2.272
				c-0.636,0.098-1.67,0.43-1.849,0.259c-2.489-2.393-7.35-3.651-6.656-7.594l0.15-0.05c-0.538-0.388-1.076-0.777-1.614-1.165
				c-0.481,0.326-0.961,0.653-1.442,0.98c0.102,1.14,0.205,2.279,0.294,3.264c-1.513-0.434-3.094-0.886-4.676-1.34
				c-0.688,7.975-1.375,15.95-2.063,23.924c-0.246,4.493-0.492,8.987-0.738,13.48c1.089,1.074,2.177,2.148,3.265,3.221
				c0.331,0.163,0.663,0.325,0.995,0.488c0.199-1.303,0.475-2.601,0.583-3.91c0.631-7.569,1.223-15.141,1.828-22.711
				c0.06-1.116,0.119-2.231,0.179-3.347c-0.16-1.984-0.32-3.967-0.481-5.951c0.524-0.021,1.048-0.043,1.571-0.065
				c0.151,1.724,0.303,3.447,0.454,5.171c0.113,0.194,0.224,0.388,0.333,0.583c3.668-0.075,7.336-0.15,9.723-0.199
				c4.057,6.039,7.415,11.038,10.773,16.036c-0.46-4.006-0.921-8.013-1.382-12.019C717.364,124.777,718.274,123.966,719.127,123.167
				"/>
			<path fill="#F3F0EE" d="M714.756,117.641c1.778,1.331,3.556,2.662,5.333,3.993c-1.266-4.849-2.133-9.773-3.892-14.527
				c-2.558-6.914-9.228-10.246-18.399-10.868c-0.866,1.28-1.732,2.559-2.597,3.839v-0.003c0.166,0.674,0.333,1.347,0.5,2.021
				c2.362,1.984,4.723,3.969,7.085,5.953c2.695,2.182,5.39,4.365,8.085,6.547C712.166,115.611,713.461,116.626,714.756,117.641"/>
			<path fill="#6E242B" d="M730.291,176.282c-0.638,0.062-1.642,0.349-1.857,0.15c-2.939-2.708-5.769-5.485-8.626-8.244
				c-1.889-0.872-3.778-1.745-5.666-2.618c5.123,4.426,10.247,8.851,15.37,13.277l0.323,0.1l0.012,0.263
				C729.994,178.234,730.143,177.258,730.291,176.282"/>
			<path fill="#B11620" d="M694.765,110.195c1.581,0.453,3.163,0.906,4.675,1.34c-0.088-0.985-0.191-2.124-0.294-3.264
				c-1.289-0.264-2.578-0.528-3.867-0.792C695.108,108.384,694.936,109.29,694.765,110.195"/>
			<path fill="#B90E19" d="M695.279,107.479c1.289,0.264,2.578,0.528,3.867,0.792c0.481-0.326,0.962-0.653,1.442-0.98
				c-1.754-1.064-3.509-2.129-5.263-3.194c-0.069,0.69-0.138,1.38-0.207,2.07c0.066,0.446,0.132,0.893,0.198,1.339L695.279,107.479z
				"/>
			<path fill="#8A2A36" d="M695.325,104.097c1.754,1.064,3.509,2.129,5.263,3.194c0.538,0.388,1.076,0.776,1.613,1.165
				c0.19-0.139,0.385-0.275,0.584-0.407c-2.362-1.984-4.723-3.968-7.085-5.953C695.575,102.763,695.45,103.43,695.325,104.097"/>
			<path fill="#DDADAF" d="M691.964,147.6c-0.241,0.159-0.478,0.321-0.712,0.486c0.363,0.453,0.725,0.906,1.088,1.359
				c0.963,0.458,1.926,0.917,2.889,1.375C694.141,149.747,693.053,148.674,691.964,147.6"/>
			<path fill="#B11620" d="M695.316,107.506c-0.066-0.447-0.132-0.893-0.198-1.34C695.184,106.613,695.25,107.059,695.316,107.506"
				/>
			<path fill="#BDA3B5" d="M722.202,123.319c1.422,1.2,2.844,2.399,4.266,3.599C725.046,125.719,723.624,124.519,722.202,123.319"/>
			<path fill="#B11620" d="M714.141,165.57c1.889,0.873,3.778,1.745,5.666,2.618c2.011-1.201,2.676-2.539,2.449-4.725
				c-0.474-4.586,0.132-9.205-0.017-13.811c-0.138-4.244-0.684-8.49-1.05-12.736c-3.359-4.999-6.717-9.997-10.774-16.037
				c-2.387,0.049-6.055,0.124-9.723,0.2c-0.049,1.229-0.098,2.457-0.146,3.686c0.225,10.271,0.451,20.541,0.677,30.811
				c0.638,0.636,1.276,1.271,1.915,1.907c1.702,1.373,3.404,2.746,5.106,4.119C710.21,162.925,712.176,164.248,714.141,165.57"/>
			<path fill="#6E242B" d="M702.786,108.049c-0.2,0.132-0.394,0.268-0.584,0.407l-0.15,0.05c2.834,2.445,5.669,4.89,8.504,7.336
				c0.98,0.757,1.959,1.515,2.94,2.272c0.231-0.097,0.426-0.226,0.586-0.385c-1.07-1.044-2.14-2.089-3.211-3.133
				C708.176,112.413,705.481,110.231,702.786,108.049"/>
			<path fill="#B90E19" d="M714.152,118.893c-0.445,0.16-0.889,0.321-1.841,0.664c1.815,1.075,1.998,3.535,5.377,2.383
				C716.51,120.924,715.331,119.909,714.152,118.893"/>
			<path fill="#B99FB0" d="M710.871,114.595c1.07,1.044,2.14,2.089,3.211,3.133c0.248,0.056,0.472,0.027,0.675-0.087
				C713.461,116.626,712.166,115.61,710.871,114.595"/>
			<path fill="#B11620" d="M719.127,123.167c-0.853,0.799-1.763,1.609,0.681,1.73C719.581,124.321,719.354,123.744,719.127,123.167"
				/>
			<path fill="#E0959A" d="M708.245,161.602c4.654,4.082,9.308,8.163,13.963,12.245c2.434,1.667,4.869,3.334,7.303,5.001
				c-5.123-4.426-10.247-8.851-15.37-13.277C712.176,164.248,710.211,162.925,708.245,161.602"/>
			<path fill="#DDADAF" d="M701.224,155.577c-0.226-10.271-0.452-20.541-0.677-30.811c-0.637-0.026-1.274-0.052-1.911-0.077
				c-0.605,7.571-1.196,15.142-1.827,22.711c-0.109,1.309-0.385,2.607-0.584,3.91c0.672,0.628,1.344,1.255,2.015,1.883
				C699.234,153.987,700.229,154.782,701.224,155.577"/>
			<path fill="#B90E19" d="M710.556,115.841c-2.835-2.445-5.669-4.89-8.504-7.336c-0.694,3.944,4.166,5.201,6.656,7.594
				C708.886,116.272,709.92,115.939,710.556,115.841"/>
			<path fill="#E0959A" d="M700.36,120.496c-0.151-1.724-0.303-3.447-0.454-5.171c-0.524,0.021-1.048,0.043-1.571,0.065
				c0.16,1.984,0.32,3.967,0.481,5.951C699.33,121.06,699.845,120.778,700.36,120.496"/>
			<path fill="#E1B2B2" d="M700.36,120.496c-0.515,0.282-1.03,0.563-1.545,0.845c-0.06,1.116-0.119,2.231-0.179,3.347
				c0.637,0.026,1.273,0.051,1.91,0.077c0.049-1.229,0.098-2.457,0.147-3.686C700.584,120.884,700.473,120.69,700.36,120.496"/>
			<path fill="#BAA1B2" d="M726.641,225.301c0.34-1.008,0.911-2,0.984-3.025c0.967-13.452,1.877-26.908,2.749-40.366
				c0.057-0.885-0.315-1.797-0.488-2.697l-0.012-0.262l-0.323-0.1c-2.434-1.667-4.869-3.334-7.303-5.001
				c-0.143,1.322-0.369,2.641-0.417,3.968c-0.508,14.117-0.987,28.236-1.475,42.354
				C722.452,221.882,724.546,223.592,726.641,225.301"/>
			<path fill="#F4F0ED" d="M696.265,151.313c-0.332-0.163-0.664-0.325-0.995-0.488c-0.963-0.458-1.926-0.917-2.889-1.375
				c-0.346,0.859-0.925,1.702-1,2.582c-0.437,5.098-0.837,10.201-1.09,15.31c-0.227,4.601,0.506,9.333-0.558,13.788
				c-1.256,5.259-1.562,9.961-2.187,15.69c-0.346,3.176-1.5,7.951,0.393,7.259c0.294-1.629,0.241,3.274,0.535,1.646
				c0.018-1.027,1.252,1.097,1.281-0.586c1.225,1.058,0.393-0.566,1.048,0c0.481,0.417,1.731-0.768,2.212-0.352l1.513-0.703
				l1.63-1.055c0.326,0.184-1.932-3.27-1.606-3.087c-0.262-2.252-0.859-4.523-0.73-6.753c0.697-12.018,1.516-24.03,2.467-36.032
				c0.107-1.358,1.302-2.642,1.993-3.96C697.608,152.568,696.937,151.941,696.265,151.313"/>
			<path fill="#F4F0ED" d="M708.285,161.606c-1.702-1.373-3.404-2.746-5.106-4.119c-0.701,1.733-1.869,3.434-2.008,5.205
				c-0.331,4.241-0.179,8.514-0.22,12.775c-0.039,4.127,0.101,8.264-0.169,12.377c-0.229,3.49-0.93,6.951-1.509,11.04
				c0.033,1.002-5.268,6.076-5.212,7.778c0.473,0.531,3.602,1.345,4.074,1.876c4.534,3.696,11.768,3.738,16.302,7.434
				c1.263,1.017,2.527,2.034,3.79,3.051c0.71,0.383,1.42,0.767,2.131,1.15c0.487-14.118,0.967-28.237,1.474-42.354
				c0.048-1.327,0.274-2.646,0.417-3.968C717.594,169.77,712.94,165.688,708.285,161.606"/>
			<path fill="#FAF9F7" d="M690.801,205.372c0.941,0.824,2.202,0.114,3.143,0.938c0.678,0.28,1.301-1.921,1.979-1.641l2.445-2.11
				c-0.056-1.702,0.938-2.673,0.905-3.675c0.579-4.089,1.28-7.551,1.509-11.04c0.269-4.113,0.129-8.25,0.169-12.377
				c0.041-4.261-0.111-8.534,0.22-12.775c0.138-1.771,1.307-3.472,2.008-5.205c-0.638-0.636-1.276-1.271-1.915-1.906
				c-0.995-0.795-1.99-1.59-2.984-2.385c-0.691,1.318-1.886,2.602-1.993,3.96c-0.951,12.002-1.77,24.014-2.467,36.032
				c-0.129,2.23,0.468,4.501,0.73,6.753"/>
			<path fill="#F5F1EF" d="M800.327,264.624c-2.277,0.826-4.555,1.651-6.833,2.477c-3.103,1.204-6.206,2.409-9.834,3.817
				c-1.781-11.463-3.442-22.152-5.009-32.233c0.331-0.365,0.655-0.722,0.976-1.076c-0.954,0.677-1.956,1.3-3.016,1.859
				c-0.924,0.336-1.849,0.673-2.773,1.009c-0.941,0.807-1.907,1.575-3.094,2.021c-8.902,3.336-18.157,3.166-27.504,0.323
				c-0.752,0.192-1.504,0.384-2.256,0.576L722.2,254.5c-0.521,0.401-1.043,0.801-1.564,1.201
				c9.416,4.396,18.833,8.793,28.249,13.189c-0.074,0.277-0.147,0.554-0.22,0.831c-5.713-1.356-11.426-2.712-18.118-4.3
				c0.774,1.421,1.026,1.884,1.278,2.346c6.283,3.656,13.77,4.515,21.139,5.55c8.748,1.229,17.305,0.066,25.801-1.061
				c5.63-0.747,11.236-1.688,16.698-2.908C798.191,268.741,801.094,267.621,800.327,264.624"/>
			<path fill="#BD1C26" d="M824.154,239.599c-0.214-1.776-0.487-3.55-0.735-5.325c-1.056-0.135-2.521,0.018-3.102-0.453
				c-3.747-3.034-7.368-6.164-10.85-9.373c-0.543-0.501-0.165-1.569-0.213-2.375c-1.342-1.178-2.683-2.356-4.024-3.535
				c-2.513,4.267-4.748,8.651-7.645,12.757c-1.689,2.394-4.574,4.188-8.309,4.973c1.996-3.007,4.401-5.544,5.409-8.394
				c1.739-4.918,2.608-10.03,3.842-15.061c-0.52-0.449-1.048-0.905-1.593-1.376c-1.338,1.977-2.941,3.741-4.757,5.259
				c-0.169,0.637-0.338,1.275-0.508,1.912l-1.465,3.509c-0.065,0.311-0.133,0.619-0.231,0.922c-0.39,1.21-1.133,2.549-1.66,3.606
				l-0.363,0.869l-0.289,0.521c-0.415,0.922-0.862,1.902-1.434,2.715c-1.803,2.731-4.006,5.014-6.601,6.859
				c-0.321,0.354-0.645,0.712-0.976,1.077c1.566,10.08,3.228,20.77,5.009,32.233c3.628-1.408,6.731-2.612,9.833-3.817
				c2.35-1.007,4.699-2.015,7.049-3.022c10.754-5.51,18.337-13.02,23.75-21.9C824.25,241.319,824.258,240.457,824.154,239.599"/>
			<path fill="#962229" d="M828.496,138.767l-2.701-2.175c-3.593-2.929-7.186-5.858-10.779-8.787
				c-0.233-0.001-0.467,0.004-0.7-0.001c-0.588-0.011-1.17-0.035-1.746-0.072c1.169,0.523,2.389,1.009,3.27,1.733
				c4.114,3.378,7.886,7.002,12.109,10.296c0.18,0.14,0.335,0.281,0.503,0.421C828.465,139.71,828.482,139.238,828.496,138.767"/>
			<path fill="#B62128" d="M705.311,246.712c2.469,3.066,5.977,5.671,9.072,8.446c1.137,1.019,2.76,1.866,1.118,3.326
				c-1.444-0.16-2.888-0.32-4.332-0.48c-0.963-0.95-1.864-1.94-2.898-2.844c-5.767-5.043-10.444-10.545-13.966-16.681
				c-5.476-9.542-7.145-19.526-8.024-29.647c0.185-1.829,0.369-3.658,0.59-5.849c1.717,0.884,2.838,1.461,3.96,2.038
				C691.107,219.733,694.948,233.843,705.311,246.712 M702.423,246.612c0.305-0.161,0.609-0.323,0.914-0.484
				c-1.053-1.08-2.106-2.16-3.159-3.239c-0.413,0.238-0.826,0.476-1.239,0.713C700.101,244.605,701.262,245.608,702.423,246.612"/>
			<path fill="#F3F0EE" d="M798.906,207.952c-0.57,1.222-1.229,2.386-1.972,3.484c0.544,0.471,1.072,0.926,1.593,1.376
				c0.332,0.185,0.665,0.371,0.998,0.556c0.976-1.385,1.953-2.77,3.01-4.268C800.99,208.612,800.082,208.324,798.906,207.952"/>
			<path fill="#F3F0EE" d="M801.663,170.677c0.456-1.007,1.126-1.998,1.593-3.005c-0.512-0.486-1.023-0.973-1.534-1.459
				C801.701,167.702,801.683,169.19,801.663,170.677"/>
			<path fill="#BAA1AF" d="M827.793,210.927c-0.844,7.544-1.69,15.087-2.534,22.631c0.808,0.689,1.616,1.377,2.424,2.066
				c0.005-0.015,0.01-0.029,0.014-0.044C827.76,227.363,827.782,219.145,827.793,210.927"/>
			<path fill="#951922" d="M730.182,224.557c-0.62-1.376-1.155-2.773-1.73-4.16c-1.747-0.655-3.495-1.31-5.242-1.965
				c-0.468,1.011-1.488,2.069-1.31,3.026c0.877,4.715,2.431,9.313,7.251,12.822c3.534,2.573,7.232,5.017,10.796,7.568
				c0.522,0.374,0.7,1.025,1.037,1.548c0.752-0.192,1.504-0.384,2.257-0.576c0.889-1.009,3.659-1.385,1.829-3.309
				C737.547,235.967,732.975,230.759,730.182,224.557"/>
			<path fill="#F8F7F5" d="M715.5,258.484c-1.444-0.16-2.888-0.32-4.332-0.48c1.73,1.765,3.459,3.53,4.792,4.89
				c3.759,1.347,7.049,2.614,10.432,3.703c1.724,0.555,3.617,0.791,5.433,1.171c-0.252-0.463-0.504-0.925-1.278-2.346
				c6.692,1.588,12.405,2.943,18.117,4.299c0.074-0.277,0.147-0.554,0.22-0.831c-9.416-4.396-18.833-8.793-28.249-13.189
				C718.924,256.629,717.213,257.557,715.5,258.484"/>
			<path fill="#BAA1AF" d="M770.392,241.73c-1.213,0.261-2.421,0.429-3.626,0.518c-7.063,1.388-14.323,0.099-21.698-2.737
				c1.83,1.924-0.939,2.3-1.829,3.309c9.347,2.843,18.602,3.013,27.504-0.324c1.187-0.445,2.154-1.214,3.094-2.021
				C772.689,240.894,771.541,241.312,770.392,241.73"/>
			<path fill="#8A2A36" d="M824.677,233.407c-2.469-1.95-4.937-3.9-7.406-5.85c-3.817-3.161-7.635-6.321-11.453-9.482
				c-0.213,0.142-0.409,0.296-0.587,0.464c1.341,1.178,2.683,2.356,4.024,3.534c4.722,4.067,9.443,8.134,14.165,12.201
				c0.249,1.775,0.521,3.549,0.735,5.325c0.103,0.857,0.095,1.72,0.138,2.579c1.131-2.185,2.261-4.37,3.391-6.555
				c-0.807-0.689-1.615-1.377-2.423-2.066C825.024,233.606,824.83,233.556,824.677,233.407"/>
			<path fill="#F5F1EF" d="M791.67,218.608c-0.31,0.278-0.616,0.557-0.916,0.837c-0.178,0.886-0.36,1.766-0.536,2.612
				c-0.004,0.021-0.009,0.04-0.013,0.06L791.67,218.608z"/>
			<path fill="#8A2A36" d="M800.543,264.079c-2.35,1.007-4.699,2.015-7.049,3.022c2.277-0.826,4.555-1.651,6.833-2.477
				C800.433,264.451,800.505,264.269,800.543,264.079"/>
			<path fill="#BC1C26" d="M739.947,241.849c-3.563-2.551-7.261-4.994-10.796-7.568c-4.82-3.509-6.374-8.108-7.252-12.822
				c-0.178-0.957,0.842-2.015,1.31-3.026l-2.883-1.499c-8.786-3.567-17.572-7.133-26.359-10.7c-0.197,0.796-0.776,1.659-0.529,2.377
				c1.828,5.305,3.459,10.668,5.836,15.846c4.737,10.32,10.945,20.106,20.975,28.285c3.192-1.726,5.417-4.485,9.358-5.409
				c0.284,0.249,0.568,0.497,0.852,0.746c-2.931,1.935-5.862,3.871-8.793,5.806c0.133,0.227,0.311,0.432,0.534,0.615l18.784-11.103
				C740.647,242.873,740.469,242.222,739.947,241.849"/>
			<path fill="#E3B3B5" d="M722.2,254.5c-0.223-0.183-0.401-0.388-0.534-0.615c-0.472-0.381-0.944-0.762-1.416-1.143
				c-10.03-8.179-16.238-17.965-20.975-28.284c-2.377-5.179-4.009-10.542-5.836-15.847c-0.247-0.717,0.332-1.581,0.529-2.377
				c-1.046-0.403-2.091-0.807-3.137-1.211c0.276,14.71,4.117,28.82,14.48,41.689c2.469,3.066,5.977,5.671,9.072,8.446
				c1.137,1.019,2.76,1.866,1.118,3.326c1.712-0.928,3.424-1.856,5.136-2.784C721.158,255.301,721.679,254.9,722.2,254.5"/>
			<path fill="#E1B2B2" d="M804.391,216.65c-1.622-1.093-3.244-2.187-4.867-3.281c-0.332-0.185-0.665-0.371-0.998-0.556
				c-1.234,5.031-2.103,10.144-3.842,15.062c-1.007,2.85-3.413,5.387-5.409,8.394c3.735-0.784,6.621-2.579,8.309-4.973
				c2.896-4.105,5.132-8.49,7.645-12.757c0.178-0.168,0.374-0.323,0.587-0.464C805.342,217.6,804.867,217.125,804.391,216.65"/>
			<path fill="#C7171E" d="M809.468,224.448c3.482,3.21,7.103,6.339,10.85,9.374c0.582,0.471,2.046,0.318,3.102,0.453
				c-4.722-4.067-9.443-8.134-14.165-12.201C809.302,222.879,808.925,223.947,809.468,224.448"/>
			<path fill="#F4F0ED" d="M828.957,125.753c-4.392,1.344-9.15,2.072-13.941,2.052c3.593,2.929,7.186,5.858,10.779,8.787
				l2.701,2.175C828.624,134.428,828.774,130.09,828.957,125.753"/>
			<path fill="#F3F0EE" d="M825.65,185.469c-1.971-1.653-3.942-3.306-5.913-4.96c-1.007-0.762-2.013-1.525-3.02-2.287
				c-1.919-1.261-3.837-2.522-5.756-3.783c-0.853,1.789-2.346,3.541-2.455,5.372c-0.738,12.338-0.43,24.757-4.116,36.837
				c0.476,0.475,0.951,0.95,1.427,1.426c3.818,3.161,7.635,6.321,11.453,9.482c2.469,1.95,4.937,3.9,7.406,5.85
				c0.153,0.149,0.347,0.199,0.583,0.151c0.843-7.544,1.689-15.087,2.534-22.631c0.01-7.803,0.012-15.605,0.035-23.408
				C827.103,186.835,826.376,186.152,825.65,185.469"/>
			<path fill="#BB1B24" d="M828.452,140.182c-0.168-0.14-0.324-0.281-0.503-0.421c-4.223-3.294-7.995-6.918-12.11-10.296
				c-0.881-0.723-2.101-1.21-3.27-1.732c-0.31-0.02-0.615-0.052-0.922-0.079c-0.159,1.472-0.36,2.943-0.439,4.42
				c-0.7,13.149-1.374,26.298-2.056,39.448c0.71,0.566,1.42,1.133,2.13,1.699c2.818,2.43,5.636,4.859,8.454,7.288
				c1.971,1.653,3.942,3.307,5.913,4.96c0.694,0.082,1.388,0.163,2.185,0.256C827.886,170.541,828.021,155.359,828.452,140.182"/>
			<path fill="#E1B2B2" d="M804.437,126.314c-0.114,3.865-0.303,7.727-0.59,11.585c-0.434,5.829-1.296,11.619-1.724,17.444
				c-0.267,3.633-0.35,7.255-0.401,10.869c0.511,0.486,1.023,0.973,1.534,1.459l0.302-0.099c1.865,1.316,3.73,2.633,5.595,3.949
				c0.682-13.15,1.356-26.299,2.056-39.448c0.079-1.477,0.28-2.947,0.439-4.42C809.128,127.434,806.72,126.975,804.437,126.314"/>
			<path fill="#C7171E" d="M698.94,243.602c1.161,1.003,2.322,2.007,3.484,3.01c0.305-0.161,0.609-0.323,0.914-0.484
				c-1.053-1.08-2.106-2.159-3.159-3.239C699.765,243.126,699.353,243.364,698.94,243.602"/>
			<path fill="#FAF9F7" d="M803.558,167.573l-0.302,0.099c-0.467,1.006-1.138,1.997-1.593,3.005
				c-0.069,5.064-0.194,10.115-0.788,15.162c0.49,4.202,0.738,8.437,0.432,12.759c-0.239,3.385-1.081,6.526-2.402,9.354
				c1.176,0.373,2.084,0.66,3.628,1.149c-1.057,1.499-2.034,2.883-3.01,4.268c1.622,1.094,3.245,2.187,4.867,3.281
				c3.686-12.081,3.378-24.5,4.116-36.838c0.109-1.831,1.602-3.584,2.455-5.372C808.494,172.151,806.026,169.862,803.558,167.573"/>
			<path fill="#BAA1AF" d="M824.677,233.407c-2.469-1.95-4.937-3.9-7.406-5.85C819.74,229.507,822.208,231.457,824.677,233.407"/>
			<path fill="#C7171E" d="M720.25,252.742c0.472,0.381,0.945,0.762,1.417,1.143c2.931-1.935,5.862-3.871,8.793-5.806
				c-0.284-0.249-0.568-0.497-0.852-0.746C725.666,248.258,723.441,251.017,720.25,252.742"/>
			<path fill="#BDA3B5" d="M811.283,173.221c-0.71-0.566-1.42-1.133-2.13-1.699c-1.865-1.317-3.73-2.633-5.595-3.949
				c2.468,2.289,4.936,4.578,7.404,6.867c1.919,1.261,3.837,2.521,5.756,3.782C814.906,176.555,813.095,174.888,811.283,173.221"/>
			<path fill="#B90E19" d="M811.283,173.221c1.812,1.667,3.623,3.334,5.435,5.001c1.007,0.763,2.013,1.525,3.02,2.287
				C816.919,178.08,814.101,175.651,811.283,173.221"/>
			<path fill="#B99FB0" d="M839.352,134.806c0.656-4.18,1.482-8.344,1.928-12.546c0.576-5.416,1.392-10.865,1.14-16.299
				c-0.556-11.994-15.752-19.078-27.977-13.173c-2.23,1.077-3.817,3.035-5.701,4.587c8.364,0.951,14.31,4.52,16.32,11.516
				c1.382,4.811,1.94,9.76,2.866,14.647c0.618,0.587,1.235,1.173,1.852,1.76c1.244,1.249,2.488,2.499,3.732,3.748
				C835.459,130.965,837.406,132.885,839.352,134.806"/>
			<path fill="#911720" d="M839.352,134.806c-1.946-1.92-3.893-3.841-5.84-5.761c-1.244-1.249-2.488-2.499-3.732-3.748
				c-0.618-0.587-1.235-1.173-1.852-1.76c-1.564-1.393-3.127-2.786-4.691-4.18c-0.19,0.107-0.397,0.129-0.621,0.063
				c-0.154,0.153-0.339,0.275-0.555,0.364c0.188,0.267,0.376,0.535,0.564,0.802c1.03,1.057,2.06,2.114,3.09,3.17
				c0.419,0.426,0.839,0.852,1.258,1.278c0.18,0.584,0.36,1.168,0.54,1.753c0.23,4.017,0.459,8.034,0.688,12.052
				c0.132,4.253,0.428,8.512,0.351,12.756c-0.085,4.606-0.861,9.196-0.647,13.793c0.102,2.191-0.57,3.504-2.469,4.63
				c2.483,2.859,4.94,5.733,7.5,8.544c0.188,0.206,1.121-0.045,1.707-0.083C836.213,163.921,837.783,149.363,839.352,134.806"/>
			<path fill="#AF121E" d="M826.973,125.034c-0.419-0.426-0.839-0.852-1.258-1.278c-3.148,1.029-3.197-1.434-4.807-2.573
				c0.888-0.308,1.302-0.452,1.717-0.596c-0.188-0.268-0.376-0.535-0.564-0.802c-0.861-0.792-1.721-1.583-2.582-2.375
				c-0.587,0.075-1.55,0.37-1.705,0.192c-2.163-2.48-6.552-3.911-5.728-7.824l0.14-0.045c-0.474-0.407-0.947-0.814-1.421-1.221
				c-0.456,0.309-0.911,0.618-1.367,0.926c0.039,1.141,0.079,2.283,0.112,3.27c-1.364-0.488-2.79-0.997-4.215-1.507
				c-1.012,7.939-2.024,15.878-3.036,23.817c-0.441,4.479-0.882,8.957-1.322,13.436c0.945,1.111,1.889,2.223,2.834,3.334
				c0.296,0.174,0.592,0.349,0.888,0.523c0.244-1.294,0.559-2.58,0.722-3.884c0.941-7.535,1.845-15.075,2.763-22.613
				c0.108-1.112,0.216-2.224,0.324-3.336l-0.154-5.96c0.481-0.003,0.961-0.006,1.441-0.008c0.056,1.727,0.112,3.454,0.168,5.181
				c0.094,0.198,0.187,0.395,0.277,0.594c3.361,0.057,6.722,0.115,8.909,0.152c3.424,6.177,6.258,11.29,9.092,16.403
				c-0.229-4.017-0.458-8.035-0.688-12.052C825.282,126.578,826.154,125.801,826.973,125.034"/>
			<path fill="#F3F0EE" d="M823.238,119.358c1.563,1.393,3.127,2.787,4.691,4.18c-0.926-4.887-1.484-9.837-2.866-14.647
				c-2.01-6.996-7.956-10.565-16.32-11.516c-0.854,1.247-1.708,2.493-2.562,3.739v-0.002c0.12,0.678,0.24,1.357,0.361,2.036
				c2.066,2.067,4.133,4.133,6.199,6.2l7.087,6.83C820.964,117.237,822.101,118.298,823.238,119.358"/>
			<path fill="#6E242B" d="M834.644,178.478c-0.587,0.038-1.52,0.289-1.708,0.083c-2.56-2.811-5.017-5.685-7.5-8.544
				c-1.687-0.939-3.374-1.879-5.061-2.818c4.477,4.604,8.955,9.209,13.432,13.813l0.291,0.111l-0.002,0.262
				C834.278,180.416,834.461,179.448,834.644,178.478"/>
			<path fill="#B11620" d="M805.296,111.201c1.426,0.51,2.852,1.019,4.216,1.506c-0.034-0.987-0.073-2.128-0.112-3.27
				c-1.168-0.31-2.335-0.62-3.502-0.93C805.697,109.405,805.496,110.303,805.296,111.201"/>
			<path fill="#B90E19" d="M805.897,108.508c1.167,0.31,2.335,0.62,3.502,0.93c0.456-0.309,0.912-0.618,1.367-0.926
				c-1.555-1.126-3.109-2.253-4.665-3.379c-0.096,0.686-0.193,1.373-0.289,2.059c0.039,0.448,0.078,0.897,0.118,1.345
				L805.897,108.508z"/>
			<path fill="#8A2A36" d="M806.102,105.132c1.555,1.126,3.109,2.253,4.665,3.379c0.473,0.407,0.947,0.814,1.42,1.221
				c0.181-0.132,0.365-0.261,0.554-0.385l-6.2-6.2C806.395,103.809,806.248,104.47,806.102,105.132"/>
			<path fill="#DDADAF" d="M800.938,148.453c-0.228,0.15-0.453,0.303-0.675,0.46c0.31,0.466,0.62,0.931,0.93,1.397
				c0.86,0.492,1.719,0.985,2.578,1.478C802.827,150.676,801.882,149.565,800.938,148.453"/>
			<path fill="#B11620" d="M805.929,108.536c-0.039-0.448-0.078-0.897-0.117-1.345C805.851,107.639,805.891,108.088,805.929,108.536
				"/>
			<path fill="#BDA3B5" d="M829.781,125.297c1.244,1.25,2.488,2.499,3.732,3.748C832.269,127.796,831.025,126.547,829.781,125.297"
				/>
			<path fill="#B11620" d="M820.375,167.199c1.687,0.94,3.374,1.879,5.061,2.819c1.898-1.126,2.571-2.439,2.469-4.63
				c-0.214-4.597,0.563-9.187,0.647-13.793c0.078-4.243-0.219-8.503-0.35-12.756c-2.834-5.113-5.668-10.226-9.092-16.403
				c-2.187-0.037-5.548-0.095-8.909-0.152c-0.103,1.225-0.207,2.45-0.311,3.675c-0.286,10.265-0.572,20.529-0.858,30.793
				c0.554,0.657,1.108,1.315,1.662,1.972c1.492,1.433,2.984,2.866,4.476,4.298C816.904,164.415,818.64,165.807,820.375,167.199"/>
			<path fill="#6E242B" d="M812.741,109.347c-0.189,0.124-0.374,0.253-0.554,0.386l-0.14,0.045c2.478,2.544,4.955,5.088,7.433,7.632
				c0.86,0.792,1.721,1.583,2.581,2.375c0.216-0.089,0.401-0.21,0.556-0.364c-0.93-1.082-1.859-2.163-2.789-3.245L812.741,109.347z"
				/>
			<path fill="#B90E19" d="M822.625,120.587c-0.415,0.144-0.829,0.288-1.717,0.596c1.61,1.139,1.659,3.602,4.807,2.573
				C824.685,122.7,823.655,121.643,822.625,120.587"/>
			<path fill="#B99FB0" d="M819.827,116.177c0.93,1.082,1.859,2.163,2.789,3.244c0.224,0.065,0.431,0.044,0.621-0.063
				C822.101,118.298,820.964,117.237,819.827,116.177"/>
			<path fill="#B11620" d="M826.973,125.034c-0.819,0.767-1.691,1.543,0.54,1.752C827.333,126.202,827.153,125.619,826.973,125.034"
				/>
			<path fill="#E0959A" d="M815.169,163.023c4.065,4.244,8.129,8.488,12.193,12.732c2.148,1.752,4.297,3.505,6.445,5.257
				c-4.478-4.604-8.955-9.208-13.432-13.813C818.64,165.807,816.904,164.415,815.169,163.023"/>
			<path fill="#DDADAF" d="M809.031,156.753c0.286-10.265,0.572-20.529,0.858-30.793c-0.582-0.048-1.163-0.097-1.745-0.146
				c-0.917,7.538-1.822,15.078-2.763,22.614c-0.162,1.304-0.477,2.589-0.722,3.883c0.585,0.651,1.169,1.302,1.754,1.953
				C807.286,155.093,808.159,155.923,809.031,156.753"/>
			<path fill="#B90E19" d="M819.479,117.409c-2.477-2.544-4.955-5.088-7.432-7.632c-0.825,3.913,3.565,5.344,5.728,7.824
				C817.93,117.779,818.892,117.484,819.479,117.409"/>
			<path fill="#E0959A" d="M809.923,121.69c-0.056-1.727-0.112-3.454-0.168-5.181c-0.481,0.003-0.961,0.006-1.442,0.008l0.155,5.96
				C808.953,122.215,809.438,121.952,809.923,121.69"/>
			<path fill="#E1B2B2" d="M809.923,121.69c-0.485,0.263-0.97,0.525-1.455,0.788c-0.108,1.112-0.216,2.224-0.325,3.336
				c0.582,0.048,1.163,0.097,1.745,0.146c0.104-1.225,0.207-2.45,0.311-3.675C810.109,122.085,810.017,121.888,809.923,121.69"/>
			<path fill="#951922" d="M785.531,290.319c0.818-0.484,1.635-0.967,2.452-1.451c-0.572-0.588-1.145-1.177-2.214-2.278
				C785.661,288.27,785.596,289.295,785.531,290.319"/>
			<path fill="#951922" d="M789.454,291.157c0.165-0.14,0.304-0.296,0.418-0.467l-0.265-0.302l-0.364-0.22
				c-0.22,0.307-0.441,0.615-0.662,0.922C788.872,291.112,789.163,291.134,789.454,291.157"/>
			<path fill="#BAA1B2" d="M828.951,227.297c0.359-0.994,0.93-1.964,1.046-2.985c1.531-13.398,3.009-26.803,4.453-40.21
				c0.095-0.883-0.202-1.806-0.318-2.711l0.002-0.262l-0.291-0.112c-2.148-1.753-4.297-3.505-6.445-5.257
				c-0.194,1.316-0.464,2.625-0.572,3.947c-1.142,14.079-2.258,28.161-3.382,42.242
				C825.281,223.732,827.115,225.515,828.951,227.297"/>
			<path fill="#962229" d="M828.951,227.297c-1.835-1.782-3.67-3.565-5.505-5.348c-0.632-0.408-1.264-0.817-1.895-1.226
				c-1.107-1.061-2.215-2.122-3.322-3.183c-3.973-3.855-7.945-7.709-11.918-11.564c-0.184,0.599-0.369,1.198-0.552,1.796
				c1.247,0.754,2.731,1.344,3.7,2.291c3.603,3.522,6.882,7.277,10.59,10.718c2.583,2.398,3.745,4.719,3.094,7.951
				c-0.881,4.371-1.114,8.854-1.531,13.298c-0.283,3.021-0.438,6.055-0.589,9.088c-0.27,5.409-0.494,10.821-0.726,15.99
				c-2.014-0.339-3.278-0.552-4.543-0.765c1.345,1.508,2.691,3.017,4.036,4.525c1.444,1.088,2.889,2.177,4.333,3.266
				c1.114-10.393,2.175-20.792,3.372-31.175c0.423-3.66,1.182-7.282,1.788-10.922c0.057-1.35,0.114-2.701,0.172-4.05
				C829.217,227.79,829.05,227.56,828.951,227.297"/>
			<path fill="#F4F0ED" d="M804.696,152.316c-0.296-0.174-0.592-0.349-0.888-0.523c-0.859-0.492-1.719-0.985-2.578-1.478
				c-0.358,0.846-0.928,1.667-1.039,2.542c-0.645,5.075-1.256,10.156-1.733,15.249c-0.429,4.586,0.015,9.338-1.172,13.749
				c-1.401,5.206-1.661,9.601-1.702,15.588c-0.016,2.231,0,1.143-1.041,7.264c0.347-1.616,0.694-3.232,1.041-4.848
				c0.065-1.024,0.131-2.049,0.238-3.729c1.07,1.101,1.642,1.689,2.214,2.278c0.42,0.433,0.84,0.866,1.26,1.299l0.364,0.22
				l0.265,0.302c0.289,0.195,0.579,0.39,0.868,0.585c-0.132-2.259-0.569-4.548-0.344-6.77c1.214-11.976,2.54-23.942,3.986-35.893
				c0.164-1.353,1.319-2.591,2.014-3.883C805.865,153.618,805.281,152.967,804.696,152.316"/>
			<path fill="#B51621" d="M799.296,199.708c-0.42-0.433-0.84-0.866-1.26-1.299c-0.818,0.484-1.635,0.967-2.452,1.451
				c-0.347,1.616-0.694,3.232-1.04,4.848c-1.352,12.094-2.703,24.188-4.055,36.283c1.255,1.558,2.51,3.115,3.765,4.673l5.254-44.967
				c-0.291-0.022-0.582-0.045-0.873-0.067C798.854,200.323,799.075,200.016,799.296,199.708"/>
			<path fill="#F4F0ED" d="M815.205,163.029c-1.492-1.433-2.984-2.865-4.476-4.298c-0.725,1.706-1.876,3.362-2.088,5.126
				c-0.507,4.223-0.573,8.496-0.815,12.749c-0.234,4.119-0.304,8.256-0.748,12.353c-0.377,3.477-1.185,6.908-1.911,10.971
				c-0.018,1.002-0.048,2.704-0.078,4.406c0.407,0.547,0.813,1.094,1.22,1.641c3.973,3.855,7.946,7.709,11.919,11.563
				c1.107,1.061,2.215,2.122,3.322,3.184c0.632,0.408,1.263,0.817,1.895,1.225c1.124-14.081,2.24-28.163,3.382-42.242
				c0.107-1.323,0.377-2.632,0.572-3.947C823.334,171.516,819.27,167.273,815.205,163.029"/>
			<path fill="#BB1B24" d="M810.576,261.178c1.725,1.722,3.45,3.444,5.175,5.166c1.265,0.213,2.529,0.426,4.543,0.765
				c0.232-5.169,0.456-10.581,0.726-15.99c0.151-3.033,0.306-6.067,0.589-9.088c0.417-4.444,0.651-8.928,1.531-13.299
				c0.651-3.232-0.511-5.553-3.094-7.951c-3.708-3.441-6.987-7.196-10.59-10.719c-0.969-0.947-2.452-1.537-3.7-2.291
				c-0.225,1.576-0.51,3.146-0.664,4.729c-1.272,13.105-2.52,26.212-3.774,39.319c0.623,0.591,1.245,1.182,1.868,1.774
				C805.65,256.123,808.113,258.651,810.576,261.178"/>
			<path fill="#BAA1B2" d="M821.55,220.724c-1.107-1.061-2.215-2.122-3.322-3.184C819.335,218.601,820.443,219.663,821.55,220.724"
				/>
			<path fill="#FAF9F7" d="M800.793,200.815c0.822,0.857,1.644,1.713,2.465,2.57c0.607,0.304,1.215,0.609,1.823,0.913l0.007,0.039
				c0.03-1.702,0.061-3.405,0.078-4.406c0.726-4.062,1.534-7.494,1.911-10.971c0.444-4.097,0.514-8.234,0.748-12.353
				c0.242-4.253,0.308-8.526,0.815-12.749c0.212-1.763,1.363-3.42,2.088-5.126c-0.554-0.657-1.107-1.315-1.661-1.972
				c-0.873-0.83-1.745-1.66-2.617-2.489c-0.695,1.292-1.851,2.53-2.014,3.882c-1.446,11.951-2.772,23.917-3.987,35.893
				C800.224,196.267,800.662,198.556,800.793,200.815"/>
			<path fill="#951922" d="M795.583,199.86c0.818-0.484,1.635-0.967,2.452-1.451c-0.572-0.588-1.145-1.177-2.214-2.278
				C795.714,197.811,795.648,198.836,795.583,199.86"/>
			<path fill="#F5F1EF" d="M763.331,441.062c0.089-0.229,0.279-0.445,0.427-0.668c-0.207,0.078-0.385,0.145-0.595,0.224
				c-1.08-11.512-2.088-22.246-3.038-32.369c1.631-1.793,3.114-3.425,4.553-5.007c-1.057,0.727-2.227,1.187-3.444,2.094
				c-0.419,0.656-1.008,1.23-1.924,1.537l-0.958,0.321c-0.301,0.392-0.597,0.787-0.91,1.167c-1.566,1.161-2.895,2.742-4.737,3.41
				c-8.309,3.011-16.772,2.507-25.191-0.669c-0.698,0.165-1.396,0.329-2.094,0.494c-5.909,3.471-11.817,6.941-17.726,10.41
				c-0.496,0.381-0.993,0.762-1.489,1.143c8.408,4.729,16.816,9.46,25.224,14.189c-0.081,0.274-0.161,0.549-0.241,0.822
				c-5.164-1.56-10.329-3.119-16.377-4.947c0.64,1.447,0.849,1.918,1.057,2.389c5.576,3.878,12.388,5.005,19.083,6.304
				c7.948,1.543,15.837,0.691,23.668-0.128c1.56-0.163,3.082-0.491,4.636-0.691C763.278,441.073,763.308,441.076,763.331,441.062z"
				/>
			<path fill="#951922" d="M799.507,200.697c0.165-0.14,0.304-0.296,0.418-0.467l-0.265-0.302l-0.364-0.22
				c-0.22,0.307-0.441,0.615-0.662,0.922C798.925,200.653,799.216,200.675,799.507,200.697"/>
			<path fill="#F4F0ED" d="M805.081,204.297c-0.607-0.304-1.215-0.609-1.823-0.913C803.866,203.688,804.474,203.993,805.081,204.297
				"/>
			<path fill="#BD1C26" d="M801.732,410.804c-0.11-1.781-0.275-3.563-0.417-5.344c-0.96-0.173-2.308-0.073-2.818-0.564
				c-3.284-3.165-6.448-6.422-9.482-9.752c-0.472-0.52-0.076-1.573-0.081-2.379c-1.171-1.225-2.343-2.45-3.514-3.674
				c-2.505,4.17-4.761,8.468-7.609,12.463c-1.661,2.329-4.389,4.017-7.844,4.666c1.971-2.931,4.294-5.377,5.353-8.188
				c1.828-4.848,2.868-9.922,4.239-14.902c-1.168-1.201-2.336-2.402-3.867-3.977c-0.197,0.719-0.363,1.322-0.536,1.953l0,0
				c0.023,0.442-0.028,0.874-0.138,1.3c0,0.001,0,0.004-0.001,0.005c-0.112,0.429-0.297,0.818-0.544,1.181
				c-0.118,0.428-0.239,0.873-0.355,1.294c-0.371,1.262-0.742,2.523-1.114,3.785l-3.831,8.759c-0.439,0.771-0.877,1.543-1.316,2.314
				c-2.441,2.684-4.88,5.368-7.733,8.506c0.95,10.123,1.958,20.857,3.039,32.369c3.388-1.275,6.286-2.366,9.184-3.456
				c2.199-0.921,4.398-1.842,6.597-2.764c10.108-5.114,17.41-12.34,22.79-21.012C801.737,412.525,801.785,411.664,801.732,410.804z"
				/>
			<path fill="#BAA1B2" d="M818.898,317.756c0.359-0.994,0.93-1.964,1.046-2.985c1.531-13.398,3.009-26.803,4.453-40.21
				c0.095-0.883-0.202-1.806-0.318-2.711l0.002-0.262l-0.291-0.112c-2.148-1.752-4.297-3.505-6.445-5.257
				c-0.194,1.316-0.464,2.625-0.572,3.947c-1.142,14.079-2.258,28.161-3.382,42.242
				C815.228,314.191,817.063,315.974,818.898,317.756"/>
			<path fill="#962229" d="M817.967,317.131c-1.835-1.782-3.67-3.565-5.505-5.348c-0.632-0.408-1.263-0.817-1.895-1.226
				c-1.107-1.061-2.215-2.122-3.322-3.183c-3.973-3.854-7.945-7.709-11.918-11.564c-0.184,0.599-0.369,1.198-0.552,1.796
				c1.247,0.754,2.731,1.344,3.7,2.291c3.603,3.522,6.882,7.277,10.59,10.718c2.583,2.398,3.745,4.719,3.094,7.951
				c-0.881,4.371-1.114,8.854-1.531,13.298c-0.283,3.021-0.438,6.055-0.589,9.088c-0.27,5.409-0.494,10.821-0.726,15.99
				c-2.014-0.339-3.278-0.552-4.543-0.765c1.345,1.508,2.691,3.017,4.036,4.525c1.444,1.088,2.889,2.177,4.333,3.266
				c1.114-10.393,2.175-20.792,3.372-31.175c0.423-3.66,1.182-7.282,1.788-10.921c0.057-1.35,0.114-2.701,0.172-4.05
				C818.233,317.624,818.066,317.394,817.967,317.131"/>
			<path fill="#B62128" d="M692.607,413.62c1.658,3.322,5.198,5.879,7.899,8.762c0.991,1.059,2.436,1.963,0.863,3.361
				c-1.314-0.212-2.628-0.423-3.942-0.635c-0.836-0.984-1.614-2.004-2.516-2.944c-5.037-5.244-9.054-10.907-11.983-17.161
				c-4.555-9.727-6.089-15.01-6.408-25.149c0.257-1.819,0.092-2.683,0.399-4.863c0.332-1.166,1.27-3.18,2.087-4.147
				c0.514-0.609,2.975-3.335,4.654-3.996C693.135,363.687,684.933,398.248,692.607,413.62"/>
			<path fill="#F3F0EE" d="M786.402,338.223c-0.617-0.7-1.235-1.4-1.852-2.1c-1.256-1.558-2.511-3.115-3.765-4.673
				c-0.784,1.53,0.232,4.234-0.423,5.848c0.035,0.376,0.087,0.751,0.075,1.13c0.013,0.811-0.25,1.421-0.601,1.948
				c0.212,0.621,0.316,1.302,0.119,2.098c-0.039,0.156-0.078,0.312-0.116,0.469c-0.048,0.194-0.153,0.32-0.229,0.481
				c0.003,0.331-0.073,0.649-0.144,0.97c0.094,0.209,0.159,0.459,0.127,0.857c-0.449,5.514-1.274,10.998-2.055,16.479
				c-0.65,4.57-1.3,9.147-2.286,13.66c-0.027,0.124-0.131,0.233-0.169,0.354c0.181,0.457,0.271,0.989,0.233,1.603
				c-0.056,0.897-0.201,1.766-0.342,2.636c0.227,0.68,0.225,1.414,0.095,2.122c-0.013,0.061-0.014,0.115-0.029,0.176
				c-0.165,0.726-0.52,1.369-1.068,1.873l0,0c0.166,0.243,0.332,0.486,0.497,0.729c0.477-1.74,0.955-3.479,1.574-5.732
				c1.531,1.574,2.699,2.776,3.867,3.977c0.296,0.197,0.592,0.394,0.887,0.592c0.96-1.348,1.921-2.695,2.96-4.154
				c-1.597-0.625-2.438-0.954-3.759-1.47c0.792-1.629,1.525-3.139,2.025-4.168c-0.291-1.94-0.848-3.513-0.698-5.016
				c0.868-8.716,1.82-17.426,2.956-26.112C784.486,341.214,785.67,339.746,786.402,338.223z"/>
			<path fill="#F4F0ED" d="M794.644,242.776c-0.296-0.174-0.592-0.349-0.888-0.523c-0.859-0.492-1.719-0.985-2.578-1.478
				c-0.358,0.846-0.928,1.667-1.039,2.542c-0.645,5.075-1.256,10.156-1.733,15.249c-0.429,4.586,0.015,9.338-1.172,13.749
				c-1.401,5.206-1.275,10.193-1.558,16.173c-0.116,2.462,1.99,0.939,4.773,3.165c0.347-1.616-5.264,0.282-4.917-1.334
				c0.065-1.024,0.131-2.049,0.238-3.729c1.07,1.101,1.642,1.689,2.214,2.278c0.42,0.433,0.84,0.866,1.26,1.3l0.364,0.22
				l0.265,0.302c0.289,0.195,0.579,0.39,0.868,0.585c-0.131-2.259-0.569-4.548-0.344-6.77c1.214-11.976,2.54-23.942,3.986-35.893
				c0.164-1.352,1.319-2.591,2.014-3.883C795.813,244.077,795.228,243.426,794.644,242.776"/>
			<path fill="#BAA1AF" d="M814.067,364.594c-1.444-1.089-2.888-2.177-4.332-3.266c-0.301,1.702-0.637,3.399-0.896,5.107
				c-1.944,12.791-3.872,25.584-5.805,38.376c0.707,0.717,1.413,1.434,2.119,2.15c2.218-6.578,5.092-13.043,6.477-19.765
				C813.156,379.786,813.313,372.139,814.067,364.594"/>
			<path fill="#B51621" d="M789.243,290.167c-0.42-0.433-0.84-0.866-1.26-1.299c-0.818,0.483-1.635,0.967-2.452,1.451
				c-0.347,1.616-0.694,3.232-1.04,4.848c-1.352,12.094-2.703,24.188-4.055,36.283c1.255,1.558,2.51,3.116,3.765,4.673
				c1.752-14.989,3.503-29.978,5.254-44.967c-0.291-0.022-0.582-0.045-0.873-0.067C788.802,290.782,789.023,290.475,789.243,290.167
				"/>
			<path fill="#951922" d="M715.052,388.177c-0.854-1.817-1.892-6.659-3.87-13.709c-0.176-0.628-0.751-1.865-1.215-2.781
				c-0.477,0.993-1.081,16.351-0.963,17.313c0.577,4.739,1.779,9.388,6.023,13.066c3.112,2.697,6.38,5.271,9.519,7.947
				c0.46,0.392,0.591,1.049,0.875,1.583c0.697-0.165,1.395-0.329,2.093-0.494c0.863-0.975,3.416-1.251,1.833-3.239
				c-6.716-3.811-10.651-9.177-12.91-15.471C715.934,390.996,715.511,389.582,715.052,388.177"/>
			<path fill="#F8F7F5" d="M706.204,423.149c-1.611,0.865-3.223,1.729-4.835,2.594c-1.314-0.212-2.628-0.424-3.942-0.636
				c0.948,1.155,1.861,2.266,2.722,3.314c2.33,0.842,3.979,2.443,6.439,3.727c1.552,0.809,3.396,0.897,4.951,1.747
				c0.658,0.359,1.303,0.729,1.938,1.115c0.796,0.198,1.602,0.379,2.39,0.592c-0.209-0.471-0.417-0.942-1.058-2.389
				c6.05,1.827,11.214,3.387,16.377,4.947c0.081-0.274,0.161-0.549,0.241-0.822C723.021,432.609,714.612,427.879,706.204,423.149z"
				/>
			<path fill="#BAA1AF" d="M729.345,407.864c1.583,1.987-0.97,2.263-1.833,3.239c8.42,3.176,16.883,3.68,25.191,0.669
				c1.843-0.668,3.172-2.249,4.737-3.41C748.182,413.576,738.795,412.289,729.345,407.864"/>
			<path fill="#8A2A36" d="M805.153,406.962c-0.707-0.717-1.413-1.434-2.119-2.151c-0.218,0.04-0.393-0.018-0.526-0.172
				c-2.166-2.036-4.333-4.073-6.499-6.109c-3.343-3.294-6.686-6.588-10.029-9.882c-0.202,0.133-0.389,0.281-0.56,0.442
				c1.171,1.225,2.343,2.45,3.514,3.675c4.127,4.232,8.254,8.463,12.38,12.695c0.142,1.782,0.306,3.563,0.417,5.344
				c0.053,0.86,0.005,1.72,0.003,2.581C802.874,411.244,804.013,409.103,805.153,406.962"/>
			<path fill="#8A2A36" d="M778.944,434.398c-2.199,0.921-4.398,1.842-6.597,2.763c2.125-0.742,4.249-1.485,6.374-2.227
				C778.826,434.766,778.901,434.587,778.944,434.398"/>
			<path fill="#BC1C26" d="M725.419,411.596c-0.283-0.534-0.415-1.191-0.875-1.583c-3.139-2.676-6.407-5.25-9.519-7.947
				c-4.244-3.678-5.446-8.326-6.023-13.066c-0.117-0.962,0.762-2.961,1.238-3.954c0.69-2.639,0.793-11.559-1.599-14.666
				c-3.562-4.119-6.057-5.913-12.593-7.149c-4.627-0.875-6.749,0.935-9.065,1.876c-0.895,0.364-2.116,0.955-3.56,1.844
				c-1.22,0.884-0.047,7.467,0.144,8.193c1.419,5.363,2.655,10.778,4.582,16.035c3.841,10.476,9.053,20.472,17.842,29.002
				c3.005-1.608,5.173-4.283,8.825-5.064c0.248,0.258,0.496,0.517,0.744,0.776c-2.776,1.827-5.551,3.654-8.327,5.481
				c0.111,0.232,0.263,0.442,0.459,0.633C713.602,418.536,719.511,415.066,725.419,411.596"/>
			<path fill="#E1B2B2" d="M785.42,389.09c0.171-0.161,0.357-0.309,0.56-0.442c-0.413-0.491-0.825-0.983-1.237-1.475
				c-1.432-1.151-2.865-2.301-4.297-3.452c-0.295-0.197-0.591-0.394-0.887-0.592c-1.371,4.98-2.412,10.054-4.239,14.902
				c-1.059,2.81-3.383,5.257-5.354,8.187c3.456-0.648,6.184-2.336,7.845-4.666C780.659,397.559,782.915,393.261,785.42,389.09"/>
			<path fill="#C7171E" d="M801.315,405.46c-4.127-4.232-8.254-8.463-12.38-12.695c0.005,0.806-0.392,1.859,0.081,2.379
				c3.033,3.331,6.197,6.587,9.482,9.752C799.007,405.387,800.354,405.287,801.315,405.46"/>
			<path fill="#F4F0ED" d="M805.153,253.488c-1.492-1.433-2.984-2.865-4.476-4.298c-0.725,1.706-1.876,3.362-2.088,5.126
				c-0.507,4.223-0.573,8.496-0.815,12.749c-0.234,4.119-0.304,8.256-0.748,12.353c-0.377,3.477-1.185,6.908-1.911,10.971
				c-0.018,1.002-0.048,2.704-0.078,4.406l1.22,1.641c3.973,3.855,7.946,7.709,11.919,11.563c1.107,1.061,2.215,2.122,3.322,3.184
				c0.632,0.408,1.263,0.817,1.895,1.225c1.124-14.081,2.24-28.163,3.382-42.242c0.107-1.323,0.377-2.632,0.572-3.947
				C813.281,261.976,809.217,257.732,805.153,253.488"/>
			<path fill="#F3F0EE" d="M784.742,387.174c0.413,0.491,0.825,0.983,1.238,1.475c3.343,3.294,6.686,6.588,10.028,9.882
				c2.166,2.037,4.333,4.073,6.499,6.109c0.133,0.154,0.309,0.212,0.526,0.172c1.933-12.793,3.861-25.585,5.805-38.376
				c0.26-1.707,0.596-3.405,0.896-5.107c-1.345-1.508-2.691-3.017-4.036-4.525c-1.725-1.722-3.45-3.444-5.175-5.166
				c-0.885-0.798-1.77-1.595-2.654-2.393c-1.696-1.328-3.391-2.656-5.087-3.985c-0.866,1.755-2.317,3.451-2.505,5.276
				C789.01,362.83,788.696,375.242,784.742,387.174"/>
			<path fill="#BB1B24" d="M800.524,351.638c1.725,1.722,3.45,3.444,5.175,5.166c1.265,0.213,2.529,0.426,4.543,0.765
				c0.232-5.169,0.456-10.581,0.726-15.99c0.151-3.033,0.307-6.067,0.589-9.088c0.417-4.444,0.65-8.928,1.531-13.299
				c0.651-3.232-0.511-5.553-3.094-7.951c-3.708-3.441-6.987-7.196-10.59-10.719c-0.969-0.947-2.452-1.537-3.7-2.291
				c-0.225,1.576-0.51,3.146-0.664,4.729c-1.272,13.105-2.52,26.212-3.774,39.319c0.623,0.591,1.245,1.182,1.868,1.774
				L800.524,351.638z"/>
			<path fill="#E1B2B2" d="M791.266,342.28c1.255-13.107,2.502-26.214,3.774-39.319c0.154-1.583,0.439-3.153,0.664-4.729
				c0.184-0.599,0.368-1.197,0.552-1.796l-1.221-1.641l-0.007-0.039c-0.607-0.304-1.215-0.609-1.823-0.913
				c-0.822-0.856-1.644-1.713-2.465-2.569c-0.289-0.195-0.579-0.39-0.868-0.585c-0.114,0.172-0.253,0.327-0.418,0.467
				c-1.751,14.989-3.503,29.978-5.254,44.966c0.618,0.7,1.235,1.4,1.852,2.1l0.281-0.088
				C787.979,339.517,789.622,340.898,791.266,342.28"/>
			<path fill="#BAA1B2" d="M811.498,311.183c-1.107-1.061-2.215-2.122-3.322-3.184C809.283,309.06,810.39,310.122,811.498,311.183"
				/>
			<path fill="#FAF9F7" d="M784.742,387.174c3.953-11.931,4.268-24.344,5.535-36.638c0.188-1.825,1.639-3.521,2.505-5.276
				c-2.149-2.375-4.298-4.75-6.447-7.125l-0.281,0.088c-0.733,1.523-1.916,2.991-2.124,4.578
				c-1.136,8.686-2.088,17.395-2.956,26.112c-0.15,1.503,0.407,3.076,0.698,5.016c-0.5,1.03-1.233,2.539-2.025,4.168
				c1.32,0.517,2.161,0.845,3.759,1.471c-1.039,1.458-2,2.806-2.96,4.154C781.878,384.872,783.31,386.023,784.742,387.174"/>
			<path fill="#FAF9F7" d="M790.741,291.274c0.822,0.857,1.644,1.713,2.465,2.57c0.607,0.304,1.215,0.608,1.823,0.913l0.007,0.039
				c0.03-1.702,0.061-3.405,0.078-4.406c0.726-4.062,1.534-7.494,1.911-10.971c0.444-4.097,0.514-8.234,0.748-12.353
				c0.242-4.253,0.308-8.526,0.815-12.749c0.212-1.763,1.363-3.42,2.088-5.126c-0.554-0.657-1.107-1.315-1.661-1.972
				c-0.873-0.83-1.745-1.66-2.617-2.489c-0.695,1.292-1.851,2.53-2.014,3.882c-1.446,11.951-2.772,23.917-3.987,35.893
				C790.172,286.727,790.609,289.015,790.741,291.274"/>
			<path fill="#BAA1AF" d="M802.507,404.64c-2.166-2.036-4.333-4.073-6.499-6.109C798.175,400.567,800.341,402.604,802.507,404.64"
				/>
			<path fill="#C7171E" d="M705.992,420.181c0.414,0.398,0.828,0.795,1.242,1.193c2.776-1.827,5.552-3.654,8.327-5.481
				c-0.248-0.259-0.496-0.517-0.744-0.776C711.165,415.898,708.996,418.573,705.992,420.181"/>
			<path fill="#BDA3B5" d="M786.335,338.135c2.149,2.375,4.298,4.75,6.447,7.125c1.696,1.328,3.391,2.657,5.087,3.985
				c-1.578-1.73-3.156-3.46-4.735-5.19c-0.623-0.591-1.245-1.183-1.868-1.774C789.622,340.898,787.979,339.517,786.335,338.135"/>
			<path fill="#B90E19" d="M793.135,344.054c1.578,1.73,3.156,3.46,4.735,5.19c0.885,0.798,1.77,1.595,2.654,2.393L793.135,344.054z
				"/>
			<path fill="#F4F0ED" d="M795.029,294.757c-0.607-0.304-1.215-0.609-1.823-0.913C793.813,294.148,794.421,294.452,795.029,294.757
				"/>
			<path fill="#951922" d="M709.003,389c0,0-0.803-18.372-3.127-21.102c-2.323-2.73-6.009-2.152-6.009-2.152
				s6.535,0.522,8.143,5.367c1.608,4.845,4.498,8.246,4.498,8.246l-0.877,9.131L709.003,389z"/>
			<path fill="#951922" d="M711.407,397.565c0,0-4.237-8.834-5.198-16.114s-6.163-11.669-9.982-11.844
				c-3.818-0.174-11.953-0.677-19.309,5.384c0,0,1.334-6.093,6.255-9.312c4.921-3.219,11.804-3.01,15.315-2.306
				c3.51,0.704,11.299,4.268,12.961,12.329C713.725,386.734,711.407,397.565,711.407,397.565"/>
			<path fill="#E3B3B5" d="M707.693,422.006c-0.195-0.191-0.349-0.401-0.459-0.633c-0.414-0.397-0.828-0.795-1.242-1.192
				c-8.789-8.53-13.612-18.618-17.842-29.002c-1.025-2.516-1.334-1.621-2.753-6.985c-0.192-0.725-0.904-2.763-0.97-3.806
				c-0.02-1.907-1.464-9.008-1.49-9.403c-0.143-2.122-1.288-2.799-1.288-2.799c-0.223,0.78-0.319,2.934-0.296,3.28
				c-0.453,14.7,2.386,28.929,11.254,42.154c2.113,3.15,5.199,5.879,7.899,8.762c0.992,1.059,2.437,1.963,0.864,3.361
				c1.612-0.864,3.223-1.729,4.835-2.594C706.701,422.768,707.197,422.387,707.693,422.006"/>
			<path fill="#E1B2B2" d="M801.319,251.821c1.255-13.107,2.503-26.214,3.774-39.319c0.154-1.583,0.439-3.153,0.664-4.729
				c0.184-0.599,0.368-1.197,0.552-1.796c-0.407-0.547-0.814-1.094-1.221-1.641l-0.007-0.039c-0.607-0.304-1.215-0.609-1.823-0.913
				c-0.822-0.856-1.644-1.713-2.465-2.57c-0.289-0.195-0.579-0.39-0.868-0.585c-0.114,0.172-0.253,0.327-0.418,0.467l-5.254,44.966
				c0.618,0.7,1.235,1.4,1.852,2.1l0.281-0.088C798.031,249.058,799.675,250.439,801.319,251.821"/>
			<path fill="#BD1C26" d="M786.638,269.762c0,0,10.365-6.609,19.119-5.683s15.217,5.099,15.217,5.099l-4.864-22.653l-25.457-7.014
				l1.679-7.473h-2.878l-3.924,23.662L786.638,269.762z"/>
			<path fill="#E1B2B2" d="M794.837,240.664l-2.595,26.437c0,0,0.769-0.774,5.644-2.232c0,0,2.122-13.804,3.433-17.536
				c1.311-3.732,0.972-5.673,0.972-5.673L794.837,240.664z"/>
			<path fill="#BD1C26" d="M789.477,224.298c0,0,4.456-14.134,4.639-15.773c0.183-1.639,1.389,4.288,1.389,4.288l-3.516,14.744
				L789.477,224.298z"/>
		</g>
		<g>
			<g>
				<path fill="#FFFFFF" d="M152.879,88.75c4.647,2.342,7.375,6.035,8.18,11.074c0.805,5.043-0.495,9.635-3.889,13.775
					c-2.326,3.241-5.322,5.043-8.985,5.402c-3.667,0.363-7.375-0.359-11.131-2.161c-4.291-1.979-8.809-3.511-13.544-4.591
					c-4.74-1.081-9.701-1.621-14.885-1.621c-9.656,0-18.284,1.532-25.882,4.591c-7.602,3.064-14.081,7.428-19.445,13.1
					c-5.364,5.672-9.434,12.382-12.204,20.122c-2.774,7.744-4.157,16.298-4.157,25.659c0,10.985,1.563,20.527,4.694,28.63
					c3.126,8.103,7.463,14.855,13.008,20.257c5.541,5.402,12.069,9.411,19.579,12.02c7.51,2.612,15.644,3.917,24.407,3.917
					c4.828,0,9.655-0.448,14.483-1.351c4.828-0.899,9.476-2.52,13.947-4.862c3.755-1.798,7.464-2.431,11.131-1.891
					c3.663,0.54,6.747,2.431,9.253,5.672c3.575,4.503,4.87,9.141,3.889,13.91c-0.985,4.773-3.713,8.238-8.18,10.398
					c-4.652,2.342-9.434,4.28-14.349,5.807c-4.92,1.532-9.882,2.701-14.886,3.511c-5.008,0.811-10.104,1.216-15.288,1.216
					c-12.874,0-25.078-2.072-36.61-6.212c-11.533-4.14-21.817-10.264-30.844-18.367c-9.031-8.103-16.138-18.231-21.322-30.386
					c-5.188-12.154-7.778-26.242-7.778-42.27c0-13.864,2.368-26.647,7.107-38.354c4.735-11.703,11.44-21.831,20.115-30.386
					c8.671-8.55,18.909-15.214,30.71-19.987c11.801-4.769,24.675-7.157,38.622-7.157c7.866,0,15.556,0.903,23.066,2.701
					C139.201,82.72,146.262,85.332,152.879,88.75z"/>
				<path fill="#FFFFFF" d="M304.417,121.432c4.647,0,8.49,1.532,11.533,4.592c3.038,3.064,4.56,7.022,4.56,11.884v114.25
					c0,4.685-1.521,8.601-4.56,11.75c-3.042,3.152-6.885,4.727-11.533,4.727c-4.652,0-8.495-1.574-11.533-4.727
					c-3.042-3.148-4.56-7.065-4.56-11.75v-13.234l5.901,2.431c0,2.342-1.253,5.178-3.755,8.508
					c-2.506,3.334-5.901,6.617-10.192,9.858c-4.292,3.241-9.346,5.988-15.154,8.238c-5.813,2.25-12.116,3.376-18.909,3.376
					c-12.338,0-23.514-3.195-33.526-9.589c-10.016-6.389-17.928-15.214-23.737-26.469c-5.813-11.251-8.716-24.174-8.716-38.759
					c0-14.763,2.904-27.773,8.716-39.029c5.809-11.251,13.633-20.076,23.468-26.47c9.832-6.39,20.74-9.588,32.722-9.588
					c7.686,0,14.751,1.173,21.188,3.511c6.437,2.342,12.023,5.313,16.763,8.913c4.735,3.604,8.402,7.25,10.997,10.939
					c2.59,3.693,3.889,6.799,3.889,9.318l-9.656,3.511v-19.717c0-4.681,1.517-8.597,4.56-11.75
					C295.922,123.011,299.765,121.432,304.417,121.432z M250.238,241.625c7.866,0,14.751-1.979,20.652-5.942
					c5.901-3.958,10.502-9.361,13.813-16.206c3.307-6.841,4.962-14.492,4.962-22.958c0-8.643-1.655-16.383-4.962-23.229
					c-3.311-6.841-7.912-12.243-13.813-16.206c-5.9-3.958-12.786-5.942-20.652-5.942c-7.69,0-14.483,1.984-20.384,5.942
					c-5.9,3.963-10.506,9.365-13.813,16.206c-3.311,6.845-4.962,14.585-4.962,23.229c0,8.466,1.651,16.117,4.962,22.958
					c3.306,6.845,7.912,12.248,13.813,16.206C235.755,239.646,242.548,241.625,250.238,241.625z"/>
				<path fill="#FFFFFF" d="M432.08,121.432c13.23,0,23.289,2.794,30.174,8.373c6.881,5.583,11.621,13.011,14.215,22.283
					c2.59,9.276,3.889,19.582,3.889,30.926v69.145c0,4.685-1.52,8.601-4.559,11.75c-3.043,3.152-6.885,4.727-11.533,4.727
					c-4.652,0-8.494-1.574-11.533-4.727c-3.043-3.148-4.559-7.065-4.559-11.75v-69.145c0-5.942-0.764-11.298-2.279-16.071
					c-1.521-4.769-4.25-8.597-8.182-11.479c-3.936-2.878-9.566-4.322-16.897-4.322c-7.153,0-13.188,1.443-18.104,4.322
					c-4.92,2.882-8.675,6.71-11.265,11.479c-2.594,4.773-3.889,10.129-3.889,16.071v69.145c0,4.685-1.521,8.601-4.56,11.75
					c-3.042,3.152-6.886,4.727-11.533,4.727c-4.652,0-8.495-1.574-11.533-4.727c-3.042-3.148-4.56-7.065-4.56-11.75v-111.55
					c0-4.68,1.517-8.597,4.56-11.749c3.038-3.148,6.881-4.727,11.533-4.727c4.647,0,8.491,1.578,11.533,4.727
					c3.038,3.152,4.56,7.069,4.56,11.749v11.614l-4.023-0.81c1.609-3.06,3.931-6.348,6.974-9.859
					c3.038-3.511,6.613-6.794,10.728-9.858c4.111-3.06,8.759-5.537,13.947-7.428C420.368,122.377,426,121.432,432.08,121.432z"/>
				<path fill="#FFFFFF" d="M632.698,68.763c4.647,0,8.491,1.532,11.533,4.592c3.038,3.064,4.56,7.022,4.56,11.884v166.919
					c0,4.685-1.521,8.601-4.56,11.75c-3.042,3.152-6.886,4.727-11.533,4.727c-4.651,0-8.494-1.574-11.532-4.727
					c-3.043-3.148-4.56-7.065-4.56-11.75v-13.234l5.9,2.431c0,2.342-1.253,5.178-3.755,8.508c-2.506,3.334-5.9,6.617-10.192,9.858
					c-4.291,3.241-9.345,5.988-15.153,8.238c-5.813,2.25-12.115,3.376-18.909,3.376c-12.337,0-23.514-3.195-33.525-9.589
					c-10.016-6.389-17.928-15.214-23.736-26.469c-5.813-11.251-8.717-24.174-8.717-38.759c0-14.763,2.904-27.773,8.717-39.029
					c5.809-11.251,13.632-20.076,23.468-26.47c9.832-6.39,20.74-9.588,32.722-9.588c7.686,0,14.751,1.173,21.188,3.511
					c6.437,2.342,12.023,5.313,16.763,8.913c4.735,3.604,8.402,7.25,10.996,10.939c2.591,3.693,3.89,6.799,3.89,9.318l-9.655,3.511
					V85.239c0-4.68,1.517-8.597,4.56-11.749C624.204,70.342,628.047,68.763,632.698,68.763z M578.521,241.625
					c7.866,0,14.752-1.979,20.652-5.942c5.9-3.958,10.502-9.361,13.813-16.206c3.307-6.841,4.962-14.492,4.962-22.958
					c0-8.643-1.655-16.383-4.962-23.229c-3.311-6.841-7.912-12.243-13.813-16.206c-5.9-3.958-12.786-5.942-20.652-5.942
					c-7.69,0-14.483,1.984-20.384,5.942c-5.9,3.963-10.506,9.365-13.813,16.206c-3.311,6.845-4.962,14.585-4.962,23.229
					c0,8.466,1.651,16.117,4.962,22.958c3.307,6.845,7.912,12.248,13.813,16.206C564.037,239.646,570.83,241.625,578.521,241.625z"
					/>
			</g>
			<g>
				<path fill="none" stroke="#201602" stroke-width="10" d="M152.879,88.75c4.647,2.342,7.375,6.035,8.18,11.074
					c0.805,5.043-0.495,9.635-3.889,13.775c-2.326,3.241-5.322,5.043-8.985,5.402c-3.667,0.363-7.375-0.359-11.131-2.161
					c-4.291-1.979-8.809-3.511-13.544-4.591c-4.74-1.081-9.701-1.621-14.885-1.621c-9.656,0-18.284,1.532-25.882,4.591
					c-7.602,3.064-14.081,7.428-19.445,13.1c-5.364,5.672-9.434,12.382-12.204,20.122c-2.774,7.744-4.157,16.298-4.157,25.659
					c0,10.985,1.563,20.527,4.694,28.63c3.126,8.103,7.463,14.855,13.008,20.257c5.541,5.402,12.069,9.411,19.579,12.02
					c7.51,2.612,15.644,3.917,24.407,3.917c4.828,0,9.655-0.448,14.483-1.351c4.828-0.899,9.476-2.52,13.947-4.862
					c3.755-1.798,7.464-2.431,11.131-1.891c3.663,0.54,6.747,2.431,9.253,5.672c3.575,4.503,4.87,9.141,3.889,13.91
					c-0.985,4.773-3.713,8.238-8.18,10.398c-4.652,2.342-9.434,4.28-14.349,5.807c-4.92,1.532-9.882,2.701-14.886,3.511
					c-5.008,0.811-10.104,1.216-15.288,1.216c-12.874,0-25.078-2.072-36.61-6.212c-11.533-4.14-21.817-10.264-30.844-18.367
					c-9.031-8.103-16.138-18.231-21.322-30.386c-5.188-12.154-7.778-26.242-7.778-42.27c0-13.864,2.368-26.647,7.107-38.354
					c4.735-11.703,11.44-21.831,20.115-30.386c8.671-8.55,18.909-15.214,30.71-19.987c11.801-4.769,24.675-7.157,38.622-7.157
					c7.866,0,15.556,0.903,23.066,2.701C139.201,82.72,146.262,85.332,152.879,88.75z"/>
				<path fill="none" stroke="#201602" stroke-width="10" d="M304.417,121.432c4.647,0,8.49,1.532,11.533,4.592
					c3.038,3.064,4.56,7.022,4.56,11.884v114.25c0,4.685-1.521,8.601-4.56,11.75c-3.042,3.152-6.885,4.727-11.533,4.727
					c-4.652,0-8.495-1.574-11.533-4.727c-3.042-3.148-4.56-7.065-4.56-11.75v-13.234l5.901,2.431c0,2.342-1.253,5.178-3.755,8.508
					c-2.506,3.334-5.901,6.617-10.192,9.858c-4.292,3.241-9.346,5.988-15.154,8.238c-5.813,2.25-12.116,3.376-18.909,3.376
					c-12.338,0-23.514-3.195-33.526-9.589c-10.016-6.389-17.928-15.214-23.737-26.469c-5.813-11.251-8.716-24.174-8.716-38.759
					c0-14.763,2.904-27.773,8.716-39.029c5.809-11.251,13.633-20.076,23.468-26.47c9.832-6.39,20.74-9.588,32.722-9.588
					c7.686,0,14.751,1.173,21.188,3.511c6.437,2.342,12.023,5.313,16.763,8.913c4.735,3.604,8.402,7.25,10.997,10.939
					c2.59,3.693,3.889,6.799,3.889,9.318l-9.656,3.511v-19.717c0-4.681,1.517-8.597,4.56-11.75
					C295.922,123.011,299.765,121.432,304.417,121.432z M250.238,241.625c7.866,0,14.751-1.979,20.652-5.942
					c5.901-3.958,10.502-9.361,13.813-16.206c3.307-6.841,4.962-14.492,4.962-22.958c0-8.643-1.655-16.383-4.962-23.229
					c-3.311-6.841-7.912-12.243-13.813-16.206c-5.9-3.958-12.786-5.942-20.652-5.942c-7.69,0-14.483,1.984-20.384,5.942
					c-5.9,3.963-10.506,9.365-13.813,16.206c-3.311,6.845-4.962,14.585-4.962,23.229c0,8.466,1.651,16.117,4.962,22.958
					c3.306,6.845,7.912,12.248,13.813,16.206C235.755,239.646,242.548,241.625,250.238,241.625z"/>
				<path fill="none" stroke="#201602" stroke-width="10" d="M432.08,121.432c13.23,0,23.289,2.794,30.174,8.373
					c6.881,5.583,11.621,13.011,14.215,22.283c2.59,9.276,3.889,19.582,3.889,30.926v69.145c0,4.685-1.52,8.601-4.559,11.75
					c-3.043,3.152-6.885,4.727-11.533,4.727c-4.652,0-8.494-1.574-11.533-4.727c-3.043-3.148-4.559-7.065-4.559-11.75v-69.145
					c0-5.942-0.764-11.298-2.279-16.071c-1.521-4.769-4.25-8.597-8.182-11.479c-3.936-2.878-9.566-4.322-16.897-4.322
					c-7.153,0-13.188,1.443-18.104,4.322c-4.92,2.882-8.675,6.71-11.265,11.479c-2.594,4.773-3.889,10.129-3.889,16.071v69.145
					c0,4.685-1.521,8.601-4.56,11.75c-3.042,3.152-6.886,4.727-11.533,4.727c-4.652,0-8.495-1.574-11.533-4.727
					c-3.042-3.148-4.56-7.065-4.56-11.75v-111.55c0-4.68,1.517-8.597,4.56-11.749c3.038-3.148,6.881-4.727,11.533-4.727
					c4.647,0,8.491,1.578,11.533,4.727c3.038,3.152,4.56,7.069,4.56,11.749v11.614l-4.023-0.81c1.609-3.06,3.931-6.348,6.974-9.859
					c3.038-3.511,6.613-6.794,10.728-9.858c4.111-3.06,8.759-5.537,13.947-7.428C420.368,122.377,426,121.432,432.08,121.432z"/>
				<path fill="none" stroke="#201602" stroke-width="10" d="M632.698,68.763c4.647,0,8.491,1.532,11.533,4.592
					c3.038,3.064,4.56,7.022,4.56,11.884v166.919c0,4.685-1.521,8.601-4.56,11.75c-3.042,3.152-6.886,4.727-11.533,4.727
					c-4.651,0-8.494-1.574-11.532-4.727c-3.043-3.148-4.56-7.065-4.56-11.75v-13.234l5.9,2.431c0,2.342-1.253,5.178-3.755,8.508
					c-2.506,3.334-5.9,6.617-10.192,9.858c-4.291,3.241-9.345,5.988-15.153,8.238c-5.813,2.25-12.115,3.376-18.909,3.376
					c-12.337,0-23.514-3.195-33.525-9.589c-10.016-6.389-17.928-15.214-23.736-26.469c-5.813-11.251-8.717-24.174-8.717-38.759
					c0-14.763,2.904-27.773,8.717-39.029c5.809-11.251,13.632-20.076,23.468-26.47c9.832-6.39,20.74-9.588,32.722-9.588
					c7.686,0,14.751,1.173,21.188,3.511c6.437,2.342,12.023,5.313,16.763,8.913c4.735,3.604,8.402,7.25,10.996,10.939
					c2.591,3.693,3.89,6.799,3.89,9.318l-9.655,3.511V85.239c0-4.68,1.517-8.597,4.56-11.749
					C624.204,70.342,628.047,68.763,632.698,68.763z M578.521,241.625c7.866,0,14.752-1.979,20.652-5.942
					c5.9-3.958,10.502-9.361,13.813-16.206c3.307-6.841,4.962-14.492,4.962-22.958c0-8.643-1.655-16.383-4.962-23.229
					c-3.311-6.841-7.912-12.243-13.813-16.206c-5.9-3.958-12.786-5.942-20.652-5.942c-7.69,0-14.483,1.984-20.384,5.942
					c-5.9,3.963-10.506,9.365-13.813,16.206c-3.311,6.845-4.962,14.585-4.962,23.229c0,8.466,1.651,16.117,4.962,22.958
					c3.307,6.845,7.912,12.248,13.813,16.206C564.037,239.646,570.83,241.625,578.521,241.625z"/>
			</g>
			<g>
				<path fill="#FFFFFF" d="M152.879,88.75c4.647,2.342,7.375,6.035,8.18,11.074c0.805,5.043-0.495,9.635-3.889,13.775
					c-2.326,3.241-5.322,5.043-8.985,5.402c-3.667,0.363-7.375-0.359-11.131-2.161c-4.291-1.979-8.809-3.511-13.544-4.591
					c-4.74-1.081-9.701-1.621-14.885-1.621c-9.656,0-18.284,1.532-25.882,4.591c-7.602,3.064-14.081,7.428-19.445,13.1
					c-5.364,5.672-9.434,12.382-12.204,20.122c-2.774,7.744-4.157,16.298-4.157,25.659c0,10.985,1.563,20.527,4.694,28.63
					c3.126,8.103,7.463,14.855,13.008,20.257c5.541,5.402,12.069,9.411,19.579,12.02c7.51,2.612,15.644,3.917,24.407,3.917
					c4.828,0,9.655-0.448,14.483-1.351c4.828-0.899,9.476-2.52,13.947-4.862c3.755-1.798,7.464-2.431,11.131-1.891
					c3.663,0.54,6.747,2.431,9.253,5.672c3.575,4.503,4.87,9.141,3.889,13.91c-0.985,4.773-3.713,8.238-8.18,10.398
					c-4.652,2.342-9.434,4.28-14.349,5.807c-4.92,1.532-9.882,2.701-14.886,3.511c-5.008,0.811-10.104,1.216-15.288,1.216
					c-12.874,0-25.078-2.072-36.61-6.212c-11.533-4.14-21.817-10.264-30.844-18.367c-9.031-8.103-16.138-18.231-21.322-30.386
					c-5.188-12.154-7.778-26.242-7.778-42.27c0-13.864,2.368-26.647,7.107-38.354c4.735-11.703,11.44-21.831,20.115-30.386
					c8.671-8.55,18.909-15.214,30.71-19.987c11.801-4.769,24.675-7.157,38.622-7.157c7.866,0,15.556,0.903,23.066,2.701
					C139.201,82.72,146.262,85.332,152.879,88.75z"/>
				<path fill="#FFFFFF" d="M304.417,121.432c4.647,0,8.49,1.532,11.533,4.592c3.038,3.064,4.56,7.022,4.56,11.884v114.25
					c0,4.685-1.521,8.601-4.56,11.75c-3.042,3.152-6.885,4.727-11.533,4.727c-4.652,0-8.495-1.574-11.533-4.727
					c-3.042-3.148-4.56-7.065-4.56-11.75v-13.234l5.901,2.431c0,2.342-1.253,5.178-3.755,8.508
					c-2.506,3.334-5.901,6.617-10.192,9.858c-4.292,3.241-9.346,5.988-15.154,8.238c-5.813,2.25-12.116,3.376-18.909,3.376
					c-12.338,0-23.514-3.195-33.526-9.589c-10.016-6.389-17.928-15.214-23.737-26.469c-5.813-11.251-8.716-24.174-8.716-38.759
					c0-14.763,2.904-27.773,8.716-39.029c5.809-11.251,13.633-20.076,23.468-26.47c9.832-6.39,20.74-9.588,32.722-9.588
					c7.686,0,14.751,1.173,21.188,3.511c6.437,2.342,12.023,5.313,16.763,8.913c4.735,3.604,8.402,7.25,10.997,10.939
					c2.59,3.693,3.889,6.799,3.889,9.318l-9.656,3.511v-19.717c0-4.681,1.517-8.597,4.56-11.75
					C295.922,123.011,299.765,121.432,304.417,121.432z M250.238,241.625c7.866,0,14.751-1.979,20.652-5.942
					c5.901-3.958,10.502-9.361,13.813-16.206c3.307-6.841,4.962-14.492,4.962-22.958c0-8.643-1.655-16.383-4.962-23.229
					c-3.311-6.841-7.912-12.243-13.813-16.206c-5.9-3.958-12.786-5.942-20.652-5.942c-7.69,0-14.483,1.984-20.384,5.942
					c-5.9,3.963-10.506,9.365-13.813,16.206c-3.311,6.845-4.962,14.585-4.962,23.229c0,8.466,1.651,16.117,4.962,22.958
					c3.306,6.845,7.912,12.248,13.813,16.206C235.755,239.646,242.548,241.625,250.238,241.625z"/>
				<path fill="#FFFFFF" d="M432.08,121.432c13.23,0,23.289,2.794,30.174,8.373c6.881,5.583,11.621,13.011,14.215,22.283
					c2.59,9.276,3.889,19.582,3.889,30.926v69.145c0,4.685-1.52,8.601-4.559,11.75c-3.043,3.152-6.885,4.727-11.533,4.727
					c-4.652,0-8.494-1.574-11.533-4.727c-3.043-3.148-4.559-7.065-4.559-11.75v-69.145c0-5.942-0.764-11.298-2.279-16.071
					c-1.521-4.769-4.25-8.597-8.182-11.479c-3.936-2.878-9.566-4.322-16.897-4.322c-7.153,0-13.188,1.443-18.104,4.322
					c-4.92,2.882-8.675,6.71-11.265,11.479c-2.594,4.773-3.889,10.129-3.889,16.071v69.145c0,4.685-1.521,8.601-4.56,11.75
					c-3.042,3.152-6.886,4.727-11.533,4.727c-4.652,0-8.495-1.574-11.533-4.727c-3.042-3.148-4.56-7.065-4.56-11.75v-111.55
					c0-4.68,1.517-8.597,4.56-11.749c3.038-3.148,6.881-4.727,11.533-4.727c4.647,0,8.491,1.578,11.533,4.727
					c3.038,3.152,4.56,7.069,4.56,11.749v11.614l-4.023-0.81c1.609-3.06,3.931-6.348,6.974-9.859
					c3.038-3.511,6.613-6.794,10.728-9.858c4.111-3.06,8.759-5.537,13.947-7.428C420.368,122.377,426,121.432,432.08,121.432z"/>
				<path fill="#FFFFFF" d="M632.698,68.763c4.647,0,8.491,1.532,11.533,4.592c3.038,3.064,4.56,7.022,4.56,11.884v166.919
					c0,4.685-1.521,8.601-4.56,11.75c-3.042,3.152-6.886,4.727-11.533,4.727c-4.651,0-8.494-1.574-11.532-4.727
					c-3.043-3.148-4.56-7.065-4.56-11.75v-13.234l5.9,2.431c0,2.342-1.253,5.178-3.755,8.508c-2.506,3.334-5.9,6.617-10.192,9.858
					c-4.291,3.241-9.345,5.988-15.153,8.238c-5.813,2.25-12.115,3.376-18.909,3.376c-12.337,0-23.514-3.195-33.525-9.589
					c-10.016-6.389-17.928-15.214-23.736-26.469c-5.813-11.251-8.717-24.174-8.717-38.759c0-14.763,2.904-27.773,8.717-39.029
					c5.809-11.251,13.632-20.076,23.468-26.47c9.832-6.39,20.74-9.588,32.722-9.588c7.686,0,14.751,1.173,21.188,3.511
					c6.437,2.342,12.023,5.313,16.763,8.913c4.735,3.604,8.402,7.25,10.996,10.939c2.591,3.693,3.89,6.799,3.89,9.318l-9.655,3.511
					V85.239c0-4.68,1.517-8.597,4.56-11.749C624.204,70.342,628.047,68.763,632.698,68.763z M578.521,241.625
					c7.866,0,14.752-1.979,20.652-5.942c5.9-3.958,10.502-9.361,13.813-16.206c3.307-6.841,4.962-14.492,4.962-22.958
					c0-8.643-1.655-16.383-4.962-23.229c-3.311-6.841-7.912-12.243-13.813-16.206c-5.9-3.958-12.786-5.942-20.652-5.942
					c-7.69,0-14.483,1.984-20.384,5.942c-5.9,3.963-10.506,9.365-13.813,16.206c-3.311,6.845-4.962,14.585-4.962,23.229
					c0,8.466,1.651,16.117,4.962,22.958c3.307,6.845,7.912,12.248,13.813,16.206C564.037,239.646,570.83,241.625,578.521,241.625z"
					/>
			</g>
		</g>
	</g>
</g>
<g>
</g>
<g>
</g>
<g>
</g>
<g>
</g>
<g>
</g>
<g>
</g>
</svg>
